<mxfile host="Electron" modified="2023-05-08T14:45:40.555Z" agent="Mozilla/5.0 (Windows NT 10.0; Win64; x64) AppleWebKit/537.36 (KHTML, like Gecko) draw.io/21.2.8 Chrome/112.0.5615.165 Electron/24.2.0 Safari/537.36" etag="by5nGyHeSLHaAhNRuXy3" version="21.2.8" type="device">
  <diagram name="PÃ¡gina-1" id="oxzDjeYw-mg4gaym_z-t">
    <mxGraphModel dx="3131" dy="1754" grid="1" gridSize="10" guides="1" tooltips="1" connect="1" arrows="1" fold="1" page="1" pageScale="1" pageWidth="827" pageHeight="1169" math="0" shadow="0">
      <root>
        <mxCell id="0" />
        <mxCell id="1" parent="0" />
        <mxCell id="p_nJ_jK38WjMyXfddBws-102" value="RELACION Dependencia - Area" style="shape=table;startSize=30;container=1;collapsible=0;childLayout=tableLayout;fontStyle=1;align=center;" parent="1" vertex="1">
          <mxGeometry x="-1646.5" y="1240" width="260" height="150" as="geometry" />
        </mxCell>
        <mxCell id="p_nJ_jK38WjMyXfddBws-103" value="" style="shape=tableRow;horizontal=0;startSize=0;swimlaneHead=0;swimlaneBody=0;top=0;left=0;bottom=0;right=0;collapsible=0;dropTarget=0;fillColor=none;points=[[0,0.5],[1,0.5]];portConstraint=eastwest;" parent="p_nJ_jK38WjMyXfddBws-102" vertex="1">
          <mxGeometry y="30" width="260" height="40" as="geometry" />
        </mxCell>
        <mxCell id="p_nJ_jK38WjMyXfddBws-104" value="1 Dependencia" style="shape=partialRectangle;html=1;whiteSpace=wrap;connectable=0;fillColor=none;top=0;left=0;bottom=0;right=0;overflow=hidden;" parent="p_nJ_jK38WjMyXfddBws-103" vertex="1">
          <mxGeometry width="90" height="40" as="geometry">
            <mxRectangle width="90" height="40" as="alternateBounds" />
          </mxGeometry>
        </mxCell>
        <mxCell id="p_nJ_jK38WjMyXfddBws-105" value="Posee" style="shape=partialRectangle;html=1;whiteSpace=wrap;connectable=0;fillColor=none;top=0;left=0;bottom=0;right=0;overflow=hidden;" parent="p_nJ_jK38WjMyXfddBws-103" vertex="1">
          <mxGeometry x="90" width="68" height="40" as="geometry">
            <mxRectangle width="68" height="40" as="alternateBounds" />
          </mxGeometry>
        </mxCell>
        <mxCell id="p_nJ_jK38WjMyXfddBws-106" value="M Areas" style="shape=partialRectangle;html=1;whiteSpace=wrap;connectable=0;fillColor=none;top=0;left=0;bottom=0;right=0;overflow=hidden;" parent="p_nJ_jK38WjMyXfddBws-103" vertex="1">
          <mxGeometry x="158" width="102" height="40" as="geometry">
            <mxRectangle width="102" height="40" as="alternateBounds" />
          </mxGeometry>
        </mxCell>
        <mxCell id="p_nJ_jK38WjMyXfddBws-107" value="" style="shape=tableRow;horizontal=0;startSize=0;swimlaneHead=0;swimlaneBody=0;top=0;left=0;bottom=0;right=0;collapsible=0;dropTarget=0;fillColor=none;points=[[0,0.5],[1,0.5]];portConstraint=eastwest;" parent="p_nJ_jK38WjMyXfddBws-102" vertex="1">
          <mxGeometry y="70" width="260" height="40" as="geometry" />
        </mxCell>
        <mxCell id="p_nJ_jK38WjMyXfddBws-108" value="1 Dependencia" style="shape=partialRectangle;html=1;whiteSpace=wrap;connectable=0;fillColor=none;top=0;left=0;bottom=0;right=0;overflow=hidden;" parent="p_nJ_jK38WjMyXfddBws-107" vertex="1">
          <mxGeometry width="90" height="40" as="geometry">
            <mxRectangle width="90" height="40" as="alternateBounds" />
          </mxGeometry>
        </mxCell>
        <mxCell id="p_nJ_jK38WjMyXfddBws-109" value="Poseida" style="shape=partialRectangle;html=1;whiteSpace=wrap;connectable=0;fillColor=none;top=0;left=0;bottom=0;right=0;overflow=hidden;" parent="p_nJ_jK38WjMyXfddBws-107" vertex="1">
          <mxGeometry x="90" width="68" height="40" as="geometry">
            <mxRectangle width="68" height="40" as="alternateBounds" />
          </mxGeometry>
        </mxCell>
        <mxCell id="p_nJ_jK38WjMyXfddBws-110" value="1 Area" style="shape=partialRectangle;html=1;whiteSpace=wrap;connectable=0;fillColor=none;top=0;left=0;bottom=0;right=0;overflow=hidden;" parent="p_nJ_jK38WjMyXfddBws-107" vertex="1">
          <mxGeometry x="158" width="102" height="40" as="geometry">
            <mxRectangle width="102" height="40" as="alternateBounds" />
          </mxGeometry>
        </mxCell>
        <mxCell id="p_nJ_jK38WjMyXfddBws-111" value="" style="shape=tableRow;horizontal=0;startSize=0;swimlaneHead=0;swimlaneBody=0;top=0;left=0;bottom=0;right=0;collapsible=0;dropTarget=0;fillColor=none;points=[[0,0.5],[1,0.5]];portConstraint=eastwest;" parent="p_nJ_jK38WjMyXfddBws-102" vertex="1">
          <mxGeometry y="110" width="260" height="40" as="geometry" />
        </mxCell>
        <mxCell id="p_nJ_jK38WjMyXfddBws-112" value="1" style="shape=partialRectangle;html=1;whiteSpace=wrap;connectable=0;fillColor=none;top=0;left=0;bottom=0;right=0;overflow=hidden;" parent="p_nJ_jK38WjMyXfddBws-111" vertex="1">
          <mxGeometry width="90" height="40" as="geometry">
            <mxRectangle width="90" height="40" as="alternateBounds" />
          </mxGeometry>
        </mxCell>
        <mxCell id="p_nJ_jK38WjMyXfddBws-113" value="" style="shape=partialRectangle;html=1;whiteSpace=wrap;connectable=0;fillColor=none;top=0;left=0;bottom=0;right=0;overflow=hidden;" parent="p_nJ_jK38WjMyXfddBws-111" vertex="1">
          <mxGeometry x="90" width="68" height="40" as="geometry">
            <mxRectangle width="68" height="40" as="alternateBounds" />
          </mxGeometry>
        </mxCell>
        <mxCell id="p_nJ_jK38WjMyXfddBws-114" value="M" style="shape=partialRectangle;html=1;whiteSpace=wrap;connectable=0;fillColor=none;top=0;left=0;bottom=0;right=0;overflow=hidden;" parent="p_nJ_jK38WjMyXfddBws-111" vertex="1">
          <mxGeometry x="158" width="102" height="40" as="geometry">
            <mxRectangle width="102" height="40" as="alternateBounds" />
          </mxGeometry>
        </mxCell>
        <mxCell id="p_nJ_jK38WjMyXfddBws-117" value="" style="endArrow=none;html=1;rounded=0;exitX=1;exitY=1;exitDx=0;exitDy=0;" parent="1" source="p_nJ_jK38WjMyXfddBws-115" target="p_nJ_jK38WjMyXfddBws-3" edge="1">
          <mxGeometry width="50" height="50" relative="1" as="geometry">
            <mxPoint x="-580" y="850" as="sourcePoint" />
            <mxPoint x="-530" y="800" as="targetPoint" />
          </mxGeometry>
        </mxCell>
        <mxCell id="p_nJ_jK38WjMyXfddBws-119" value="M" style="edgeLabel;html=1;align=center;verticalAlign=middle;resizable=0;points=[];fontSize=16;fontStyle=1" parent="p_nJ_jK38WjMyXfddBws-117" vertex="1" connectable="0">
          <mxGeometry x="0.374" y="2" relative="1" as="geometry">
            <mxPoint x="-13" y="-5" as="offset" />
          </mxGeometry>
        </mxCell>
        <mxCell id="p_nJ_jK38WjMyXfddBws-120" value="RELACION Dependencia - Director General" style="shape=table;startSize=30;container=1;collapsible=0;childLayout=tableLayout;fontStyle=1;align=center;" parent="1" vertex="1">
          <mxGeometry x="-1356.5" y="1240" width="310" height="150" as="geometry" />
        </mxCell>
        <mxCell id="p_nJ_jK38WjMyXfddBws-121" value="" style="shape=tableRow;horizontal=0;startSize=0;swimlaneHead=0;swimlaneBody=0;top=0;left=0;bottom=0;right=0;collapsible=0;dropTarget=0;fillColor=none;points=[[0,0.5],[1,0.5]];portConstraint=eastwest;" parent="p_nJ_jK38WjMyXfddBws-120" vertex="1">
          <mxGeometry y="30" width="310" height="40" as="geometry" />
        </mxCell>
        <mxCell id="p_nJ_jK38WjMyXfddBws-122" value="1 Dependencia" style="shape=partialRectangle;html=1;whiteSpace=wrap;connectable=0;fillColor=none;top=0;left=0;bottom=0;right=0;overflow=hidden;" parent="p_nJ_jK38WjMyXfddBws-121" vertex="1">
          <mxGeometry width="100" height="40" as="geometry">
            <mxRectangle width="100" height="40" as="alternateBounds" />
          </mxGeometry>
        </mxCell>
        <mxCell id="p_nJ_jK38WjMyXfddBws-123" value="Administrar" style="shape=partialRectangle;html=1;whiteSpace=wrap;connectable=0;fillColor=none;top=0;left=0;bottom=0;right=0;overflow=hidden;" parent="p_nJ_jK38WjMyXfddBws-121" vertex="1">
          <mxGeometry x="100" width="88" height="40" as="geometry">
            <mxRectangle width="88" height="40" as="alternateBounds" />
          </mxGeometry>
        </mxCell>
        <mxCell id="p_nJ_jK38WjMyXfddBws-124" value="1 Director General" style="shape=partialRectangle;html=1;whiteSpace=wrap;connectable=0;fillColor=none;top=0;left=0;bottom=0;right=0;overflow=hidden;" parent="p_nJ_jK38WjMyXfddBws-121" vertex="1">
          <mxGeometry x="188" width="122" height="40" as="geometry">
            <mxRectangle width="122" height="40" as="alternateBounds" />
          </mxGeometry>
        </mxCell>
        <mxCell id="p_nJ_jK38WjMyXfddBws-125" value="" style="shape=tableRow;horizontal=0;startSize=0;swimlaneHead=0;swimlaneBody=0;top=0;left=0;bottom=0;right=0;collapsible=0;dropTarget=0;fillColor=none;points=[[0,0.5],[1,0.5]];portConstraint=eastwest;" parent="p_nJ_jK38WjMyXfddBws-120" vertex="1">
          <mxGeometry y="70" width="310" height="40" as="geometry" />
        </mxCell>
        <mxCell id="p_nJ_jK38WjMyXfddBws-126" value="1 Dependencia" style="shape=partialRectangle;html=1;whiteSpace=wrap;connectable=0;fillColor=none;top=0;left=0;bottom=0;right=0;overflow=hidden;" parent="p_nJ_jK38WjMyXfddBws-125" vertex="1">
          <mxGeometry width="100" height="40" as="geometry">
            <mxRectangle width="100" height="40" as="alternateBounds" />
          </mxGeometry>
        </mxCell>
        <mxCell id="p_nJ_jK38WjMyXfddBws-127" value="Administrar" style="shape=partialRectangle;html=1;whiteSpace=wrap;connectable=0;fillColor=none;top=0;left=0;bottom=0;right=0;overflow=hidden;" parent="p_nJ_jK38WjMyXfddBws-125" vertex="1">
          <mxGeometry x="100" width="88" height="40" as="geometry">
            <mxRectangle width="88" height="40" as="alternateBounds" />
          </mxGeometry>
        </mxCell>
        <mxCell id="p_nJ_jK38WjMyXfddBws-128" value="1 Director General" style="shape=partialRectangle;html=1;whiteSpace=wrap;connectable=0;fillColor=none;top=0;left=0;bottom=0;right=0;overflow=hidden;" parent="p_nJ_jK38WjMyXfddBws-125" vertex="1">
          <mxGeometry x="188" width="122" height="40" as="geometry">
            <mxRectangle width="122" height="40" as="alternateBounds" />
          </mxGeometry>
        </mxCell>
        <mxCell id="p_nJ_jK38WjMyXfddBws-129" value="" style="shape=tableRow;horizontal=0;startSize=0;swimlaneHead=0;swimlaneBody=0;top=0;left=0;bottom=0;right=0;collapsible=0;dropTarget=0;fillColor=none;points=[[0,0.5],[1,0.5]];portConstraint=eastwest;" parent="p_nJ_jK38WjMyXfddBws-120" vertex="1">
          <mxGeometry y="110" width="310" height="40" as="geometry" />
        </mxCell>
        <mxCell id="p_nJ_jK38WjMyXfddBws-130" value="1" style="shape=partialRectangle;html=1;whiteSpace=wrap;connectable=0;fillColor=none;top=0;left=0;bottom=0;right=0;overflow=hidden;" parent="p_nJ_jK38WjMyXfddBws-129" vertex="1">
          <mxGeometry width="100" height="40" as="geometry">
            <mxRectangle width="100" height="40" as="alternateBounds" />
          </mxGeometry>
        </mxCell>
        <mxCell id="p_nJ_jK38WjMyXfddBws-131" value="" style="shape=partialRectangle;html=1;whiteSpace=wrap;connectable=0;fillColor=none;top=0;left=0;bottom=0;right=0;overflow=hidden;" parent="p_nJ_jK38WjMyXfddBws-129" vertex="1">
          <mxGeometry x="100" width="88" height="40" as="geometry">
            <mxRectangle width="88" height="40" as="alternateBounds" />
          </mxGeometry>
        </mxCell>
        <mxCell id="p_nJ_jK38WjMyXfddBws-132" value="1" style="shape=partialRectangle;html=1;whiteSpace=wrap;connectable=0;fillColor=none;top=0;left=0;bottom=0;right=0;overflow=hidden;" parent="p_nJ_jK38WjMyXfddBws-129" vertex="1">
          <mxGeometry x="188" width="122" height="40" as="geometry">
            <mxRectangle width="122" height="40" as="alternateBounds" />
          </mxGeometry>
        </mxCell>
        <mxCell id="p_nJ_jK38WjMyXfddBws-133" value="Administrar" style="rhombus;whiteSpace=wrap;html=1;" parent="1" vertex="1">
          <mxGeometry x="-300" y="220" width="90" height="80" as="geometry" />
        </mxCell>
        <mxCell id="p_nJ_jK38WjMyXfddBws-138" value="" style="group" parent="1" vertex="1" connectable="0">
          <mxGeometry x="-470" y="660" width="240" height="145" as="geometry" />
        </mxCell>
        <mxCell id="p_nJ_jK38WjMyXfddBws-3" value="Area" style="whiteSpace=wrap;html=1;" parent="p_nJ_jK38WjMyXfddBws-138" vertex="1">
          <mxGeometry x="120" width="120" height="60" as="geometry" />
        </mxCell>
        <mxCell id="p_nJ_jK38WjMyXfddBws-96" value="idArea" style="ellipse;whiteSpace=wrap;html=1;fontStyle=5" parent="p_nJ_jK38WjMyXfddBws-138" vertex="1">
          <mxGeometry x="145" y="100" width="70" height="45" as="geometry" />
        </mxCell>
        <mxCell id="p_nJ_jK38WjMyXfddBws-97" value="nomArea" style="ellipse;whiteSpace=wrap;html=1;" parent="p_nJ_jK38WjMyXfddBws-138" vertex="1">
          <mxGeometry x="60" y="100" width="70" height="45" as="geometry" />
        </mxCell>
        <mxCell id="p_nJ_jK38WjMyXfddBws-98" value="descArea" style="ellipse;whiteSpace=wrap;html=1;" parent="p_nJ_jK38WjMyXfddBws-138" vertex="1">
          <mxGeometry y="40" width="70" height="45" as="geometry" />
        </mxCell>
        <mxCell id="p_nJ_jK38WjMyXfddBws-99" value="" style="endArrow=none;html=1;rounded=0;" parent="p_nJ_jK38WjMyXfddBws-138" source="p_nJ_jK38WjMyXfddBws-98" target="p_nJ_jK38WjMyXfddBws-3" edge="1">
          <mxGeometry width="50" height="50" relative="1" as="geometry">
            <mxPoint x="-90" y="70" as="sourcePoint" />
            <mxPoint x="-40" y="20" as="targetPoint" />
          </mxGeometry>
        </mxCell>
        <mxCell id="p_nJ_jK38WjMyXfddBws-100" value="" style="endArrow=none;html=1;rounded=0;" parent="p_nJ_jK38WjMyXfddBws-138" source="p_nJ_jK38WjMyXfddBws-97" target="p_nJ_jK38WjMyXfddBws-3" edge="1">
          <mxGeometry width="50" height="50" relative="1" as="geometry">
            <mxPoint x="78" y="65" as="sourcePoint" />
            <mxPoint x="130" y="53" as="targetPoint" />
          </mxGeometry>
        </mxCell>
        <mxCell id="p_nJ_jK38WjMyXfddBws-101" value="" style="endArrow=none;html=1;rounded=0;" parent="p_nJ_jK38WjMyXfddBws-138" source="p_nJ_jK38WjMyXfddBws-96" target="p_nJ_jK38WjMyXfddBws-3" edge="1">
          <mxGeometry width="50" height="50" relative="1" as="geometry">
            <mxPoint x="123" y="113" as="sourcePoint" />
            <mxPoint x="162" y="70" as="targetPoint" />
          </mxGeometry>
        </mxCell>
        <mxCell id="p_nJ_jK38WjMyXfddBws-206" value="RELACION Servicio Social - Alumno" style="shape=table;startSize=30;container=1;collapsible=0;childLayout=tableLayout;fontStyle=1;align=center;" parent="1" vertex="1">
          <mxGeometry x="-1326.5" y="1060" width="250" height="150" as="geometry" />
        </mxCell>
        <mxCell id="p_nJ_jK38WjMyXfddBws-207" value="" style="shape=tableRow;horizontal=0;startSize=0;swimlaneHead=0;swimlaneBody=0;top=0;left=0;bottom=0;right=0;collapsible=0;dropTarget=0;fillColor=none;points=[[0,0.5],[1,0.5]];portConstraint=eastwest;" parent="p_nJ_jK38WjMyXfddBws-206" vertex="1">
          <mxGeometry y="30" width="250" height="40" as="geometry" />
        </mxCell>
        <mxCell id="p_nJ_jK38WjMyXfddBws-208" value="1 Servicio Social" style="shape=partialRectangle;html=1;whiteSpace=wrap;connectable=0;fillColor=none;top=0;left=0;bottom=0;right=0;overflow=hidden;" parent="p_nJ_jK38WjMyXfddBws-207" vertex="1">
          <mxGeometry width="100" height="40" as="geometry">
            <mxRectangle width="100" height="40" as="alternateBounds" />
          </mxGeometry>
        </mxCell>
        <mxCell id="p_nJ_jK38WjMyXfddBws-209" value="Realizado" style="shape=partialRectangle;html=1;whiteSpace=wrap;connectable=0;fillColor=none;top=0;left=0;bottom=0;right=0;overflow=hidden;" parent="p_nJ_jK38WjMyXfddBws-207" vertex="1">
          <mxGeometry x="100" width="70" height="40" as="geometry">
            <mxRectangle width="70" height="40" as="alternateBounds" />
          </mxGeometry>
        </mxCell>
        <mxCell id="p_nJ_jK38WjMyXfddBws-210" value="M Alumnos" style="shape=partialRectangle;html=1;whiteSpace=wrap;connectable=0;fillColor=none;top=0;left=0;bottom=0;right=0;overflow=hidden;" parent="p_nJ_jK38WjMyXfddBws-207" vertex="1">
          <mxGeometry x="170" width="80" height="40" as="geometry">
            <mxRectangle width="80" height="40" as="alternateBounds" />
          </mxGeometry>
        </mxCell>
        <mxCell id="p_nJ_jK38WjMyXfddBws-211" value="" style="shape=tableRow;horizontal=0;startSize=0;swimlaneHead=0;swimlaneBody=0;top=0;left=0;bottom=0;right=0;collapsible=0;dropTarget=0;fillColor=none;points=[[0,0.5],[1,0.5]];portConstraint=eastwest;" parent="p_nJ_jK38WjMyXfddBws-206" vertex="1">
          <mxGeometry y="70" width="250" height="40" as="geometry" />
        </mxCell>
        <mxCell id="p_nJ_jK38WjMyXfddBws-212" value="1 Servicio Social" style="shape=partialRectangle;html=1;whiteSpace=wrap;connectable=0;fillColor=none;top=0;left=0;bottom=0;right=0;overflow=hidden;" parent="p_nJ_jK38WjMyXfddBws-211" vertex="1">
          <mxGeometry width="100" height="40" as="geometry">
            <mxRectangle width="100" height="40" as="alternateBounds" />
          </mxGeometry>
        </mxCell>
        <mxCell id="p_nJ_jK38WjMyXfddBws-213" value="Realiza" style="shape=partialRectangle;html=1;whiteSpace=wrap;connectable=0;fillColor=none;top=0;left=0;bottom=0;right=0;overflow=hidden;" parent="p_nJ_jK38WjMyXfddBws-211" vertex="1">
          <mxGeometry x="100" width="70" height="40" as="geometry">
            <mxRectangle width="70" height="40" as="alternateBounds" />
          </mxGeometry>
        </mxCell>
        <mxCell id="p_nJ_jK38WjMyXfddBws-214" value="1 Alumno" style="shape=partialRectangle;html=1;whiteSpace=wrap;connectable=0;fillColor=none;top=0;left=0;bottom=0;right=0;overflow=hidden;" parent="p_nJ_jK38WjMyXfddBws-211" vertex="1">
          <mxGeometry x="170" width="80" height="40" as="geometry">
            <mxRectangle width="80" height="40" as="alternateBounds" />
          </mxGeometry>
        </mxCell>
        <mxCell id="p_nJ_jK38WjMyXfddBws-215" value="" style="shape=tableRow;horizontal=0;startSize=0;swimlaneHead=0;swimlaneBody=0;top=0;left=0;bottom=0;right=0;collapsible=0;dropTarget=0;fillColor=none;points=[[0,0.5],[1,0.5]];portConstraint=eastwest;" parent="p_nJ_jK38WjMyXfddBws-206" vertex="1">
          <mxGeometry y="110" width="250" height="40" as="geometry" />
        </mxCell>
        <mxCell id="p_nJ_jK38WjMyXfddBws-216" value="1" style="shape=partialRectangle;html=1;whiteSpace=wrap;connectable=0;fillColor=none;top=0;left=0;bottom=0;right=0;overflow=hidden;" parent="p_nJ_jK38WjMyXfddBws-215" vertex="1">
          <mxGeometry width="100" height="40" as="geometry">
            <mxRectangle width="100" height="40" as="alternateBounds" />
          </mxGeometry>
        </mxCell>
        <mxCell id="p_nJ_jK38WjMyXfddBws-217" value="" style="shape=partialRectangle;html=1;whiteSpace=wrap;connectable=0;fillColor=none;top=0;left=0;bottom=0;right=0;overflow=hidden;" parent="p_nJ_jK38WjMyXfddBws-215" vertex="1">
          <mxGeometry x="100" width="70" height="40" as="geometry">
            <mxRectangle width="70" height="40" as="alternateBounds" />
          </mxGeometry>
        </mxCell>
        <mxCell id="p_nJ_jK38WjMyXfddBws-218" value="M" style="shape=partialRectangle;html=1;whiteSpace=wrap;connectable=0;fillColor=none;top=0;left=0;bottom=0;right=0;overflow=hidden;" parent="p_nJ_jK38WjMyXfddBws-215" vertex="1">
          <mxGeometry x="170" width="80" height="40" as="geometry">
            <mxRectangle width="80" height="40" as="alternateBounds" />
          </mxGeometry>
        </mxCell>
        <mxCell id="p_nJ_jK38WjMyXfddBws-222" value="" style="endArrow=none;html=1;rounded=0;exitX=0.5;exitY=0;exitDx=0;exitDy=0;entryX=0.5;entryY=1;entryDx=0;entryDy=0;" parent="1" source="p_nJ_jK38WjMyXfddBws-5" target="p_nJ_jK38WjMyXfddBws-219" edge="1">
          <mxGeometry width="50" height="50" relative="1" as="geometry">
            <mxPoint x="-430" y="635" as="sourcePoint" />
            <mxPoint x="-340" y="674" as="targetPoint" />
          </mxGeometry>
        </mxCell>
        <mxCell id="p_nJ_jK38WjMyXfddBws-223" value="M" style="edgeLabel;html=1;align=center;verticalAlign=middle;resizable=0;points=[];fontSize=16;fontStyle=1" parent="p_nJ_jK38WjMyXfddBws-222" vertex="1" connectable="0">
          <mxGeometry x="0.374" y="2" relative="1" as="geometry">
            <mxPoint x="3" y="7" as="offset" />
          </mxGeometry>
        </mxCell>
        <mxCell id="p_nJ_jK38WjMyXfddBws-225" value="" style="endArrow=classic;html=1;rounded=0;exitX=0.5;exitY=0;exitDx=0;exitDy=0;entryX=0.5;entryY=1;entryDx=0;entryDy=0;" parent="1" source="p_nJ_jK38WjMyXfddBws-219" target="p_nJ_jK38WjMyXfddBws-6" edge="1">
          <mxGeometry width="50" height="50" relative="1" as="geometry">
            <mxPoint x="-470" y="595" as="sourcePoint" />
            <mxPoint x="-520" y="468" as="targetPoint" />
          </mxGeometry>
        </mxCell>
        <mxCell id="p_nJ_jK38WjMyXfddBws-226" value="&lt;b&gt;&lt;font style=&quot;font-size: 16px;&quot;&gt;1&lt;/font&gt;&lt;/b&gt;" style="edgeLabel;html=1;align=center;verticalAlign=middle;resizable=0;points=[];" parent="p_nJ_jK38WjMyXfddBws-225" vertex="1" connectable="0">
          <mxGeometry x="-0.129" y="2" relative="1" as="geometry">
            <mxPoint as="offset" />
          </mxGeometry>
        </mxCell>
        <mxCell id="p_nJ_jK38WjMyXfddBws-227" value="RELACION Servicio Social - Dependencia" style="shape=table;startSize=30;container=1;collapsible=0;childLayout=tableLayout;fontStyle=1;align=center;" parent="1" vertex="1">
          <mxGeometry x="-1654" y="1060" width="275" height="150" as="geometry" />
        </mxCell>
        <mxCell id="p_nJ_jK38WjMyXfddBws-228" value="" style="shape=tableRow;horizontal=0;startSize=0;swimlaneHead=0;swimlaneBody=0;top=0;left=0;bottom=0;right=0;collapsible=0;dropTarget=0;fillColor=none;points=[[0,0.5],[1,0.5]];portConstraint=eastwest;" parent="p_nJ_jK38WjMyXfddBws-227" vertex="1">
          <mxGeometry y="30" width="275" height="40" as="geometry" />
        </mxCell>
        <mxCell id="p_nJ_jK38WjMyXfddBws-229" value="1 Servicio Social" style="shape=partialRectangle;html=1;whiteSpace=wrap;connectable=0;fillColor=none;top=0;left=0;bottom=0;right=0;overflow=hidden;" parent="p_nJ_jK38WjMyXfddBws-228" vertex="1">
          <mxGeometry width="118" height="40" as="geometry">
            <mxRectangle width="118" height="40" as="alternateBounds" />
          </mxGeometry>
        </mxCell>
        <mxCell id="p_nJ_jK38WjMyXfddBws-230" value="Solicitado" style="shape=partialRectangle;html=1;whiteSpace=wrap;connectable=0;fillColor=none;top=0;left=0;bottom=0;right=0;overflow=hidden;" parent="p_nJ_jK38WjMyXfddBws-228" vertex="1">
          <mxGeometry x="118" width="62" height="40" as="geometry">
            <mxRectangle width="62" height="40" as="alternateBounds" />
          </mxGeometry>
        </mxCell>
        <mxCell id="p_nJ_jK38WjMyXfddBws-231" value="1 Dependencia" style="shape=partialRectangle;html=1;whiteSpace=wrap;connectable=0;fillColor=none;top=0;left=0;bottom=0;right=0;overflow=hidden;" parent="p_nJ_jK38WjMyXfddBws-228" vertex="1">
          <mxGeometry x="180" width="95" height="40" as="geometry">
            <mxRectangle width="95" height="40" as="alternateBounds" />
          </mxGeometry>
        </mxCell>
        <mxCell id="p_nJ_jK38WjMyXfddBws-232" value="" style="shape=tableRow;horizontal=0;startSize=0;swimlaneHead=0;swimlaneBody=0;top=0;left=0;bottom=0;right=0;collapsible=0;dropTarget=0;fillColor=none;points=[[0,0.5],[1,0.5]];portConstraint=eastwest;" parent="p_nJ_jK38WjMyXfddBws-227" vertex="1">
          <mxGeometry y="70" width="275" height="40" as="geometry" />
        </mxCell>
        <mxCell id="p_nJ_jK38WjMyXfddBws-233" value="M Servicios Sociales" style="shape=partialRectangle;html=1;whiteSpace=wrap;connectable=0;fillColor=none;top=0;left=0;bottom=0;right=0;overflow=hidden;" parent="p_nJ_jK38WjMyXfddBws-232" vertex="1">
          <mxGeometry width="118" height="40" as="geometry">
            <mxRectangle width="118" height="40" as="alternateBounds" />
          </mxGeometry>
        </mxCell>
        <mxCell id="p_nJ_jK38WjMyXfddBws-234" value="Solicita" style="shape=partialRectangle;html=1;whiteSpace=wrap;connectable=0;fillColor=none;top=0;left=0;bottom=0;right=0;overflow=hidden;" parent="p_nJ_jK38WjMyXfddBws-232" vertex="1">
          <mxGeometry x="118" width="62" height="40" as="geometry">
            <mxRectangle width="62" height="40" as="alternateBounds" />
          </mxGeometry>
        </mxCell>
        <mxCell id="p_nJ_jK38WjMyXfddBws-235" value="1 Dependencia" style="shape=partialRectangle;html=1;whiteSpace=wrap;connectable=0;fillColor=none;top=0;left=0;bottom=0;right=0;overflow=hidden;" parent="p_nJ_jK38WjMyXfddBws-232" vertex="1">
          <mxGeometry x="180" width="95" height="40" as="geometry">
            <mxRectangle width="95" height="40" as="alternateBounds" />
          </mxGeometry>
        </mxCell>
        <mxCell id="p_nJ_jK38WjMyXfddBws-236" value="" style="shape=tableRow;horizontal=0;startSize=0;swimlaneHead=0;swimlaneBody=0;top=0;left=0;bottom=0;right=0;collapsible=0;dropTarget=0;fillColor=none;points=[[0,0.5],[1,0.5]];portConstraint=eastwest;" parent="p_nJ_jK38WjMyXfddBws-227" vertex="1">
          <mxGeometry y="110" width="275" height="40" as="geometry" />
        </mxCell>
        <mxCell id="p_nJ_jK38WjMyXfddBws-237" value="M" style="shape=partialRectangle;html=1;whiteSpace=wrap;connectable=0;fillColor=none;top=0;left=0;bottom=0;right=0;overflow=hidden;" parent="p_nJ_jK38WjMyXfddBws-236" vertex="1">
          <mxGeometry width="118" height="40" as="geometry">
            <mxRectangle width="118" height="40" as="alternateBounds" />
          </mxGeometry>
        </mxCell>
        <mxCell id="p_nJ_jK38WjMyXfddBws-238" value="" style="shape=partialRectangle;html=1;whiteSpace=wrap;connectable=0;fillColor=none;top=0;left=0;bottom=0;right=0;overflow=hidden;" parent="p_nJ_jK38WjMyXfddBws-236" vertex="1">
          <mxGeometry x="118" width="62" height="40" as="geometry">
            <mxRectangle width="62" height="40" as="alternateBounds" />
          </mxGeometry>
        </mxCell>
        <mxCell id="p_nJ_jK38WjMyXfddBws-239" value="1" style="shape=partialRectangle;html=1;whiteSpace=wrap;connectable=0;fillColor=none;top=0;left=0;bottom=0;right=0;overflow=hidden;" parent="p_nJ_jK38WjMyXfddBws-236" vertex="1">
          <mxGeometry x="180" width="95" height="40" as="geometry">
            <mxRectangle width="95" height="40" as="alternateBounds" />
          </mxGeometry>
        </mxCell>
        <mxCell id="p_nJ_jK38WjMyXfddBws-241" value="" style="endArrow=none;html=1;rounded=0;exitX=1;exitY=0.5;exitDx=0;exitDy=0;" parent="1" source="p_nJ_jK38WjMyXfddBws-240" target="p_nJ_jK38WjMyXfddBws-6" edge="1">
          <mxGeometry width="50" height="50" relative="1" as="geometry">
            <mxPoint x="-430" y="635" as="sourcePoint" />
            <mxPoint x="-340" y="674" as="targetPoint" />
          </mxGeometry>
        </mxCell>
        <mxCell id="p_nJ_jK38WjMyXfddBws-242" value="M" style="edgeLabel;html=1;align=center;verticalAlign=middle;resizable=0;points=[];fontSize=16;fontStyle=1" parent="p_nJ_jK38WjMyXfddBws-241" vertex="1" connectable="0">
          <mxGeometry x="0.374" y="2" relative="1" as="geometry">
            <mxPoint x="-41" y="-1" as="offset" />
          </mxGeometry>
        </mxCell>
        <mxCell id="p_nJ_jK38WjMyXfddBws-305" value="RELACION Servicio Social - Alumno" style="shape=table;startSize=30;container=1;collapsible=0;childLayout=tableLayout;fontStyle=1;align=center;" parent="1" vertex="1">
          <mxGeometry x="-1331.5" y="890" width="260" height="150" as="geometry" />
        </mxCell>
        <mxCell id="p_nJ_jK38WjMyXfddBws-306" value="" style="shape=tableRow;horizontal=0;startSize=0;swimlaneHead=0;swimlaneBody=0;top=0;left=0;bottom=0;right=0;collapsible=0;dropTarget=0;fillColor=none;points=[[0,0.5],[1,0.5]];portConstraint=eastwest;" parent="p_nJ_jK38WjMyXfddBws-305" vertex="1">
          <mxGeometry y="30" width="260" height="40" as="geometry" />
        </mxCell>
        <mxCell id="p_nJ_jK38WjMyXfddBws-307" value="1 Servicio Social" style="shape=partialRectangle;html=1;whiteSpace=wrap;connectable=0;fillColor=none;top=0;left=0;bottom=0;right=0;overflow=hidden;" parent="p_nJ_jK38WjMyXfddBws-306" vertex="1">
          <mxGeometry width="114" height="40" as="geometry">
            <mxRectangle width="114" height="40" as="alternateBounds" />
          </mxGeometry>
        </mxCell>
        <mxCell id="p_nJ_jK38WjMyXfddBws-308" value="Realizado" style="shape=partialRectangle;html=1;whiteSpace=wrap;connectable=0;fillColor=none;top=0;left=0;bottom=0;right=0;overflow=hidden;" parent="p_nJ_jK38WjMyXfddBws-306" vertex="1">
          <mxGeometry x="114" width="63" height="40" as="geometry">
            <mxRectangle width="63" height="40" as="alternateBounds" />
          </mxGeometry>
        </mxCell>
        <mxCell id="p_nJ_jK38WjMyXfddBws-309" value="M Areas" style="shape=partialRectangle;html=1;whiteSpace=wrap;connectable=0;fillColor=none;top=0;left=0;bottom=0;right=0;overflow=hidden;" parent="p_nJ_jK38WjMyXfddBws-306" vertex="1">
          <mxGeometry x="177" width="83" height="40" as="geometry">
            <mxRectangle width="83" height="40" as="alternateBounds" />
          </mxGeometry>
        </mxCell>
        <mxCell id="p_nJ_jK38WjMyXfddBws-310" value="" style="shape=tableRow;horizontal=0;startSize=0;swimlaneHead=0;swimlaneBody=0;top=0;left=0;bottom=0;right=0;collapsible=0;dropTarget=0;fillColor=none;points=[[0,0.5],[1,0.5]];portConstraint=eastwest;" parent="p_nJ_jK38WjMyXfddBws-305" vertex="1">
          <mxGeometry y="70" width="260" height="40" as="geometry" />
        </mxCell>
        <mxCell id="p_nJ_jK38WjMyXfddBws-311" value="M Servicios Sociales" style="shape=partialRectangle;html=1;whiteSpace=wrap;connectable=0;fillColor=none;top=0;left=0;bottom=0;right=0;overflow=hidden;" parent="p_nJ_jK38WjMyXfddBws-310" vertex="1">
          <mxGeometry width="114" height="40" as="geometry">
            <mxRectangle width="114" height="40" as="alternateBounds" />
          </mxGeometry>
        </mxCell>
        <mxCell id="p_nJ_jK38WjMyXfddBws-312" value="Realiza" style="shape=partialRectangle;html=1;whiteSpace=wrap;connectable=0;fillColor=none;top=0;left=0;bottom=0;right=0;overflow=hidden;" parent="p_nJ_jK38WjMyXfddBws-310" vertex="1">
          <mxGeometry x="114" width="63" height="40" as="geometry">
            <mxRectangle width="63" height="40" as="alternateBounds" />
          </mxGeometry>
        </mxCell>
        <mxCell id="p_nJ_jK38WjMyXfddBws-313" value="1 Area" style="shape=partialRectangle;html=1;whiteSpace=wrap;connectable=0;fillColor=none;top=0;left=0;bottom=0;right=0;overflow=hidden;" parent="p_nJ_jK38WjMyXfddBws-310" vertex="1">
          <mxGeometry x="177" width="83" height="40" as="geometry">
            <mxRectangle width="83" height="40" as="alternateBounds" />
          </mxGeometry>
        </mxCell>
        <mxCell id="p_nJ_jK38WjMyXfddBws-314" value="" style="shape=tableRow;horizontal=0;startSize=0;swimlaneHead=0;swimlaneBody=0;top=0;left=0;bottom=0;right=0;collapsible=0;dropTarget=0;fillColor=none;points=[[0,0.5],[1,0.5]];portConstraint=eastwest;" parent="p_nJ_jK38WjMyXfddBws-305" vertex="1">
          <mxGeometry y="110" width="260" height="40" as="geometry" />
        </mxCell>
        <mxCell id="p_nJ_jK38WjMyXfddBws-315" value="M" style="shape=partialRectangle;html=1;whiteSpace=wrap;connectable=0;fillColor=none;top=0;left=0;bottom=0;right=0;overflow=hidden;" parent="p_nJ_jK38WjMyXfddBws-314" vertex="1">
          <mxGeometry width="114" height="40" as="geometry">
            <mxRectangle width="114" height="40" as="alternateBounds" />
          </mxGeometry>
        </mxCell>
        <mxCell id="p_nJ_jK38WjMyXfddBws-316" value="" style="shape=partialRectangle;html=1;whiteSpace=wrap;connectable=0;fillColor=none;top=0;left=0;bottom=0;right=0;overflow=hidden;" parent="p_nJ_jK38WjMyXfddBws-314" vertex="1">
          <mxGeometry x="114" width="63" height="40" as="geometry">
            <mxRectangle width="63" height="40" as="alternateBounds" />
          </mxGeometry>
        </mxCell>
        <mxCell id="p_nJ_jK38WjMyXfddBws-317" value="M" style="shape=partialRectangle;html=1;whiteSpace=wrap;connectable=0;fillColor=none;top=0;left=0;bottom=0;right=0;overflow=hidden;" parent="p_nJ_jK38WjMyXfddBws-314" vertex="1">
          <mxGeometry x="177" width="83" height="40" as="geometry">
            <mxRectangle width="83" height="40" as="alternateBounds" />
          </mxGeometry>
        </mxCell>
        <mxCell id="p_nJ_jK38WjMyXfddBws-325" value="RELACION Servicio Social - Documento" style="shape=table;startSize=30;container=1;collapsible=0;childLayout=tableLayout;fontStyle=1;align=center;" parent="1" vertex="1">
          <mxGeometry x="-1646.5" y="890" width="260" height="150" as="geometry" />
        </mxCell>
        <mxCell id="p_nJ_jK38WjMyXfddBws-326" value="" style="shape=tableRow;horizontal=0;startSize=0;swimlaneHead=0;swimlaneBody=0;top=0;left=0;bottom=0;right=0;collapsible=0;dropTarget=0;fillColor=none;points=[[0,0.5],[1,0.5]];portConstraint=eastwest;" parent="p_nJ_jK38WjMyXfddBws-325" vertex="1">
          <mxGeometry y="30" width="260" height="40" as="geometry" />
        </mxCell>
        <mxCell id="p_nJ_jK38WjMyXfddBws-327" value="1 Servicio Social" style="shape=partialRectangle;html=1;whiteSpace=wrap;connectable=0;fillColor=none;top=0;left=0;bottom=0;right=0;overflow=hidden;" parent="p_nJ_jK38WjMyXfddBws-326" vertex="1">
          <mxGeometry width="100" height="40" as="geometry">
            <mxRectangle width="100" height="40" as="alternateBounds" />
          </mxGeometry>
        </mxCell>
        <mxCell id="p_nJ_jK38WjMyXfddBws-328" value="Genera" style="shape=partialRectangle;html=1;whiteSpace=wrap;connectable=0;fillColor=none;top=0;left=0;bottom=0;right=0;overflow=hidden;" parent="p_nJ_jK38WjMyXfddBws-326" vertex="1">
          <mxGeometry x="100" width="77" height="40" as="geometry">
            <mxRectangle width="77" height="40" as="alternateBounds" />
          </mxGeometry>
        </mxCell>
        <mxCell id="p_nJ_jK38WjMyXfddBws-329" value="M Documentos" style="shape=partialRectangle;html=1;whiteSpace=wrap;connectable=0;fillColor=none;top=0;left=0;bottom=0;right=0;overflow=hidden;" parent="p_nJ_jK38WjMyXfddBws-326" vertex="1">
          <mxGeometry x="177" width="83" height="40" as="geometry">
            <mxRectangle width="83" height="40" as="alternateBounds" />
          </mxGeometry>
        </mxCell>
        <mxCell id="p_nJ_jK38WjMyXfddBws-330" value="" style="shape=tableRow;horizontal=0;startSize=0;swimlaneHead=0;swimlaneBody=0;top=0;left=0;bottom=0;right=0;collapsible=0;dropTarget=0;fillColor=none;points=[[0,0.5],[1,0.5]];portConstraint=eastwest;" parent="p_nJ_jK38WjMyXfddBws-325" vertex="1">
          <mxGeometry y="70" width="260" height="40" as="geometry" />
        </mxCell>
        <mxCell id="p_nJ_jK38WjMyXfddBws-331" value="1 Servicio Social" style="shape=partialRectangle;html=1;whiteSpace=wrap;connectable=0;fillColor=none;top=0;left=0;bottom=0;right=0;overflow=hidden;" parent="p_nJ_jK38WjMyXfddBws-330" vertex="1">
          <mxGeometry width="100" height="40" as="geometry">
            <mxRectangle width="100" height="40" as="alternateBounds" />
          </mxGeometry>
        </mxCell>
        <mxCell id="p_nJ_jK38WjMyXfddBws-332" value="Generado" style="shape=partialRectangle;html=1;whiteSpace=wrap;connectable=0;fillColor=none;top=0;left=0;bottom=0;right=0;overflow=hidden;" parent="p_nJ_jK38WjMyXfddBws-330" vertex="1">
          <mxGeometry x="100" width="77" height="40" as="geometry">
            <mxRectangle width="77" height="40" as="alternateBounds" />
          </mxGeometry>
        </mxCell>
        <mxCell id="p_nJ_jK38WjMyXfddBws-333" value="1 Documento" style="shape=partialRectangle;html=1;whiteSpace=wrap;connectable=0;fillColor=none;top=0;left=0;bottom=0;right=0;overflow=hidden;" parent="p_nJ_jK38WjMyXfddBws-330" vertex="1">
          <mxGeometry x="177" width="83" height="40" as="geometry">
            <mxRectangle width="83" height="40" as="alternateBounds" />
          </mxGeometry>
        </mxCell>
        <mxCell id="p_nJ_jK38WjMyXfddBws-334" value="" style="shape=tableRow;horizontal=0;startSize=0;swimlaneHead=0;swimlaneBody=0;top=0;left=0;bottom=0;right=0;collapsible=0;dropTarget=0;fillColor=none;points=[[0,0.5],[1,0.5]];portConstraint=eastwest;" parent="p_nJ_jK38WjMyXfddBws-325" vertex="1">
          <mxGeometry y="110" width="260" height="40" as="geometry" />
        </mxCell>
        <mxCell id="p_nJ_jK38WjMyXfddBws-335" value="1" style="shape=partialRectangle;html=1;whiteSpace=wrap;connectable=0;fillColor=none;top=0;left=0;bottom=0;right=0;overflow=hidden;" parent="p_nJ_jK38WjMyXfddBws-334" vertex="1">
          <mxGeometry width="100" height="40" as="geometry">
            <mxRectangle width="100" height="40" as="alternateBounds" />
          </mxGeometry>
        </mxCell>
        <mxCell id="p_nJ_jK38WjMyXfddBws-336" value="" style="shape=partialRectangle;html=1;whiteSpace=wrap;connectable=0;fillColor=none;top=0;left=0;bottom=0;right=0;overflow=hidden;" parent="p_nJ_jK38WjMyXfddBws-334" vertex="1">
          <mxGeometry x="100" width="77" height="40" as="geometry">
            <mxRectangle width="77" height="40" as="alternateBounds" />
          </mxGeometry>
        </mxCell>
        <mxCell id="p_nJ_jK38WjMyXfddBws-337" value="M" style="shape=partialRectangle;html=1;whiteSpace=wrap;connectable=0;fillColor=none;top=0;left=0;bottom=0;right=0;overflow=hidden;" parent="p_nJ_jK38WjMyXfddBws-334" vertex="1">
          <mxGeometry x="177" width="83" height="40" as="geometry">
            <mxRectangle width="83" height="40" as="alternateBounds" />
          </mxGeometry>
        </mxCell>
        <mxCell id="p_nJ_jK38WjMyXfddBws-345" value="RELACION Documento - Coordinador" style="shape=table;startSize=30;container=1;collapsible=0;childLayout=tableLayout;fontStyle=1;align=center;" parent="1" vertex="1">
          <mxGeometry x="-1646.5" y="725" width="260" height="150" as="geometry" />
        </mxCell>
        <mxCell id="p_nJ_jK38WjMyXfddBws-346" value="" style="shape=tableRow;horizontal=0;startSize=0;swimlaneHead=0;swimlaneBody=0;top=0;left=0;bottom=0;right=0;collapsible=0;dropTarget=0;fillColor=none;points=[[0,0.5],[1,0.5]];portConstraint=eastwest;" parent="p_nJ_jK38WjMyXfddBws-345" vertex="1">
          <mxGeometry y="30" width="260" height="40" as="geometry" />
        </mxCell>
        <mxCell id="p_nJ_jK38WjMyXfddBws-347" value="1 Documento" style="shape=partialRectangle;html=1;whiteSpace=wrap;connectable=0;fillColor=none;top=0;left=0;bottom=0;right=0;overflow=hidden;" parent="p_nJ_jK38WjMyXfddBws-346" vertex="1">
          <mxGeometry width="100" height="40" as="geometry">
            <mxRectangle width="100" height="40" as="alternateBounds" />
          </mxGeometry>
        </mxCell>
        <mxCell id="p_nJ_jK38WjMyXfddBws-348" value="Revisado" style="shape=partialRectangle;html=1;whiteSpace=wrap;connectable=0;fillColor=none;top=0;left=0;bottom=0;right=0;overflow=hidden;" parent="p_nJ_jK38WjMyXfddBws-346" vertex="1">
          <mxGeometry x="100" width="77" height="40" as="geometry">
            <mxRectangle width="77" height="40" as="alternateBounds" />
          </mxGeometry>
        </mxCell>
        <mxCell id="p_nJ_jK38WjMyXfddBws-349" value="1 Coordinador" style="shape=partialRectangle;html=1;whiteSpace=wrap;connectable=0;fillColor=none;top=0;left=0;bottom=0;right=0;overflow=hidden;" parent="p_nJ_jK38WjMyXfddBws-346" vertex="1">
          <mxGeometry x="177" width="83" height="40" as="geometry">
            <mxRectangle width="83" height="40" as="alternateBounds" />
          </mxGeometry>
        </mxCell>
        <mxCell id="p_nJ_jK38WjMyXfddBws-350" value="" style="shape=tableRow;horizontal=0;startSize=0;swimlaneHead=0;swimlaneBody=0;top=0;left=0;bottom=0;right=0;collapsible=0;dropTarget=0;fillColor=none;points=[[0,0.5],[1,0.5]];portConstraint=eastwest;" parent="p_nJ_jK38WjMyXfddBws-345" vertex="1">
          <mxGeometry y="70" width="260" height="40" as="geometry" />
        </mxCell>
        <mxCell id="p_nJ_jK38WjMyXfddBws-351" value="M Documentos" style="shape=partialRectangle;html=1;whiteSpace=wrap;connectable=0;fillColor=none;top=0;left=0;bottom=0;right=0;overflow=hidden;" parent="p_nJ_jK38WjMyXfddBws-350" vertex="1">
          <mxGeometry width="100" height="40" as="geometry">
            <mxRectangle width="100" height="40" as="alternateBounds" />
          </mxGeometry>
        </mxCell>
        <mxCell id="p_nJ_jK38WjMyXfddBws-352" value="Revisa" style="shape=partialRectangle;html=1;whiteSpace=wrap;connectable=0;fillColor=none;top=0;left=0;bottom=0;right=0;overflow=hidden;" parent="p_nJ_jK38WjMyXfddBws-350" vertex="1">
          <mxGeometry x="100" width="77" height="40" as="geometry">
            <mxRectangle width="77" height="40" as="alternateBounds" />
          </mxGeometry>
        </mxCell>
        <mxCell id="p_nJ_jK38WjMyXfddBws-353" value="1 Coordinador" style="shape=partialRectangle;html=1;whiteSpace=wrap;connectable=0;fillColor=none;top=0;left=0;bottom=0;right=0;overflow=hidden;" parent="p_nJ_jK38WjMyXfddBws-350" vertex="1">
          <mxGeometry x="177" width="83" height="40" as="geometry">
            <mxRectangle width="83" height="40" as="alternateBounds" />
          </mxGeometry>
        </mxCell>
        <mxCell id="p_nJ_jK38WjMyXfddBws-354" value="" style="shape=tableRow;horizontal=0;startSize=0;swimlaneHead=0;swimlaneBody=0;top=0;left=0;bottom=0;right=0;collapsible=0;dropTarget=0;fillColor=none;points=[[0,0.5],[1,0.5]];portConstraint=eastwest;" parent="p_nJ_jK38WjMyXfddBws-345" vertex="1">
          <mxGeometry y="110" width="260" height="40" as="geometry" />
        </mxCell>
        <mxCell id="p_nJ_jK38WjMyXfddBws-355" value="M" style="shape=partialRectangle;html=1;whiteSpace=wrap;connectable=0;fillColor=none;top=0;left=0;bottom=0;right=0;overflow=hidden;" parent="p_nJ_jK38WjMyXfddBws-354" vertex="1">
          <mxGeometry width="100" height="40" as="geometry">
            <mxRectangle width="100" height="40" as="alternateBounds" />
          </mxGeometry>
        </mxCell>
        <mxCell id="p_nJ_jK38WjMyXfddBws-356" value="" style="shape=partialRectangle;html=1;whiteSpace=wrap;connectable=0;fillColor=none;top=0;left=0;bottom=0;right=0;overflow=hidden;" parent="p_nJ_jK38WjMyXfddBws-354" vertex="1">
          <mxGeometry x="100" width="77" height="40" as="geometry">
            <mxRectangle width="77" height="40" as="alternateBounds" />
          </mxGeometry>
        </mxCell>
        <mxCell id="p_nJ_jK38WjMyXfddBws-357" value="1" style="shape=partialRectangle;html=1;whiteSpace=wrap;connectable=0;fillColor=none;top=0;left=0;bottom=0;right=0;overflow=hidden;" parent="p_nJ_jK38WjMyXfddBws-354" vertex="1">
          <mxGeometry x="177" width="83" height="40" as="geometry">
            <mxRectangle width="83" height="40" as="alternateBounds" />
          </mxGeometry>
        </mxCell>
        <mxCell id="p_nJ_jK38WjMyXfddBws-115" value="Poseer" style="rhombus;whiteSpace=wrap;html=1;" parent="1" vertex="1">
          <mxGeometry x="-500" y="565" width="80" height="80" as="geometry" />
        </mxCell>
        <mxCell id="p_nJ_jK38WjMyXfddBws-116" value="" style="endArrow=classic;html=1;rounded=0;exitX=0;exitY=0;exitDx=0;exitDy=0;entryX=0.75;entryY=1;entryDx=0;entryDy=0;" parent="1" source="p_nJ_jK38WjMyXfddBws-115" target="p_nJ_jK38WjMyXfddBws-1" edge="1">
          <mxGeometry width="50" height="50" relative="1" as="geometry">
            <mxPoint x="-590" y="720" as="sourcePoint" />
            <mxPoint x="-540" y="670" as="targetPoint" />
          </mxGeometry>
        </mxCell>
        <mxCell id="p_nJ_jK38WjMyXfddBws-118" value="&lt;b&gt;&lt;font style=&quot;font-size: 16px;&quot;&gt;1&lt;/font&gt;&lt;/b&gt;" style="edgeLabel;html=1;align=center;verticalAlign=middle;resizable=0;points=[];" parent="p_nJ_jK38WjMyXfddBws-116" vertex="1" connectable="0">
          <mxGeometry x="-0.129" y="2" relative="1" as="geometry">
            <mxPoint as="offset" />
          </mxGeometry>
        </mxCell>
        <mxCell id="p_nJ_jK38WjMyXfddBws-244" value="" style="endArrow=classic;html=1;rounded=0;exitX=0;exitY=0.5;exitDx=0;exitDy=0;entryX=1;entryY=0.75;entryDx=0;entryDy=0;" parent="1" source="p_nJ_jK38WjMyXfddBws-240" target="p_nJ_jK38WjMyXfddBws-1" edge="1">
          <mxGeometry width="50" height="50" relative="1" as="geometry">
            <mxPoint x="-470" y="595" as="sourcePoint" />
            <mxPoint x="-520" y="468" as="targetPoint" />
          </mxGeometry>
        </mxCell>
        <mxCell id="p_nJ_jK38WjMyXfddBws-245" value="&lt;b&gt;&lt;font style=&quot;font-size: 16px;&quot;&gt;1&lt;/font&gt;&lt;/b&gt;" style="edgeLabel;html=1;align=center;verticalAlign=middle;resizable=0;points=[];" parent="p_nJ_jK38WjMyXfddBws-244" vertex="1" connectable="0">
          <mxGeometry x="-0.129" y="2" relative="1" as="geometry">
            <mxPoint x="-12" y="-8" as="offset" />
          </mxGeometry>
        </mxCell>
        <mxCell id="o6FvsHjwkwFCM-Jpp8p4-8" value="" style="endArrow=classic;html=1;rounded=0;" parent="1" source="p_nJ_jK38WjMyXfddBws-133" target="p_nJ_jK38WjMyXfddBws-2" edge="1">
          <mxGeometry width="50" height="50" relative="1" as="geometry">
            <mxPoint x="-190" y="235" as="sourcePoint" />
            <mxPoint x="-490" y="348" as="targetPoint" />
          </mxGeometry>
        </mxCell>
        <mxCell id="o6FvsHjwkwFCM-Jpp8p4-9" value="&lt;b&gt;&lt;font style=&quot;font-size: 16px;&quot;&gt;1&lt;/font&gt;&lt;/b&gt;" style="edgeLabel;html=1;align=center;verticalAlign=middle;resizable=0;points=[];" parent="o6FvsHjwkwFCM-Jpp8p4-8" vertex="1" connectable="0">
          <mxGeometry x="-0.129" y="2" relative="1" as="geometry">
            <mxPoint x="-5" y="-1" as="offset" />
          </mxGeometry>
        </mxCell>
        <mxCell id="o6FvsHjwkwFCM-Jpp8p4-14" value="IS A" style="triangle;whiteSpace=wrap;html=1;direction=south;" parent="1" vertex="1">
          <mxGeometry x="-104" y="1220" width="80" height="60" as="geometry" />
        </mxCell>
        <mxCell id="o6FvsHjwkwFCM-Jpp8p4-20" value="" style="endArrow=none;html=1;rounded=0;" parent="1" source="p_nJ_jK38WjMyXfddBws-5" target="o6FvsHjwkwFCM-Jpp8p4-14" edge="1">
          <mxGeometry width="50" height="50" relative="1" as="geometry">
            <mxPoint x="-22" y="1035" as="sourcePoint" />
            <mxPoint x="34" y="1088" as="targetPoint" />
          </mxGeometry>
        </mxCell>
        <mxCell id="o6FvsHjwkwFCM-Jpp8p4-25" value="" style="endArrow=none;html=1;rounded=0;" parent="1" source="o6FvsHjwkwFCM-Jpp8p4-15" target="o6FvsHjwkwFCM-Jpp8p4-14" edge="1">
          <mxGeometry width="50" height="50" relative="1" as="geometry">
            <mxPoint x="-38" y="1420" as="sourcePoint" />
            <mxPoint x="-46" y="1390" as="targetPoint" />
          </mxGeometry>
        </mxCell>
        <mxCell id="o6FvsHjwkwFCM-Jpp8p4-26" value="" style="endArrow=none;html=1;rounded=0;" parent="1" source="p_nJ_jK38WjMyXfddBws-4" target="o6FvsHjwkwFCM-Jpp8p4-14" edge="1">
          <mxGeometry width="50" height="50" relative="1" as="geometry">
            <mxPoint x="-54" y="1370" as="sourcePoint" />
            <mxPoint x="-54" y="1330" as="targetPoint" />
            <Array as="points">
              <mxPoint x="330" y="1190" />
            </Array>
          </mxGeometry>
        </mxCell>
        <mxCell id="o6FvsHjwkwFCM-Jpp8p4-27" value="" style="endArrow=none;html=1;rounded=0;" parent="1" source="p_nJ_jK38WjMyXfddBws-1" target="o6FvsHjwkwFCM-Jpp8p4-14" edge="1">
          <mxGeometry width="50" height="50" relative="1" as="geometry">
            <mxPoint x="492" y="960" as="sourcePoint" />
            <mxPoint x="-20" y="1279" as="targetPoint" />
            <Array as="points">
              <mxPoint x="-410" y="1100" />
            </Array>
          </mxGeometry>
        </mxCell>
        <mxCell id="p_nJ_jK38WjMyXfddBws-134" value="" style="endArrow=classic;html=1;rounded=0;exitX=0;exitY=0.5;exitDx=0;exitDy=0;" parent="1" source="p_nJ_jK38WjMyXfddBws-133" target="p_nJ_jK38WjMyXfddBws-1" edge="1">
          <mxGeometry width="50" height="50" relative="1" as="geometry">
            <mxPoint x="460" y="340" as="sourcePoint" />
            <mxPoint x="-450" y="350" as="targetPoint" />
          </mxGeometry>
        </mxCell>
        <mxCell id="p_nJ_jK38WjMyXfddBws-135" value="&lt;b&gt;&lt;font style=&quot;font-size: 16px;&quot;&gt;1&lt;/font&gt;&lt;/b&gt;" style="edgeLabel;html=1;align=center;verticalAlign=middle;resizable=0;points=[];" parent="p_nJ_jK38WjMyXfddBws-134" vertex="1" connectable="0">
          <mxGeometry x="-0.129" y="2" relative="1" as="geometry">
            <mxPoint x="-5" y="-1" as="offset" />
          </mxGeometry>
        </mxCell>
        <mxCell id="fWY5PkTmN_TgE-W4XBkF-3" value="" style="group" parent="1" vertex="1" connectable="0">
          <mxGeometry x="-200" y="1320" width="365" height="195" as="geometry" />
        </mxCell>
        <mxCell id="o6FvsHjwkwFCM-Jpp8p4-17" value="pass" style="ellipse;whiteSpace=wrap;html=1;" parent="fWY5PkTmN_TgE-W4XBkF-3" vertex="1">
          <mxGeometry x="295" y="125" width="45" height="45" as="geometry" />
        </mxCell>
        <mxCell id="o6FvsHjwkwFCM-Jpp8p4-18" value="email" style="ellipse;whiteSpace=wrap;html=1;" parent="fWY5PkTmN_TgE-W4XBkF-3" vertex="1">
          <mxGeometry x="190" y="150" width="60" height="45" as="geometry" />
        </mxCell>
        <mxCell id="o6FvsHjwkwFCM-Jpp8p4-19" value="Credenciales" style="ellipse;whiteSpace=wrap;html=1;" parent="fWY5PkTmN_TgE-W4XBkF-3" vertex="1">
          <mxGeometry x="195" y="80" width="100" height="45" as="geometry" />
        </mxCell>
        <mxCell id="o6FvsHjwkwFCM-Jpp8p4-21" value="" style="endArrow=none;html=1;rounded=0;" parent="fWY5PkTmN_TgE-W4XBkF-3" source="o6FvsHjwkwFCM-Jpp8p4-19" target="o6FvsHjwkwFCM-Jpp8p4-18" edge="1">
          <mxGeometry width="50" height="50" relative="1" as="geometry">
            <mxPoint x="232.5" y="-335" as="sourcePoint" />
            <mxPoint x="232.5" y="-100" as="targetPoint" />
          </mxGeometry>
        </mxCell>
        <mxCell id="o6FvsHjwkwFCM-Jpp8p4-22" value="" style="endArrow=none;html=1;rounded=0;" parent="fWY5PkTmN_TgE-W4XBkF-3" source="o6FvsHjwkwFCM-Jpp8p4-19" target="o6FvsHjwkwFCM-Jpp8p4-17" edge="1">
          <mxGeometry width="50" height="50" relative="1" as="geometry">
            <mxPoint x="249.5" y="135" as="sourcePoint" />
            <mxPoint x="242.5" y="161" as="targetPoint" />
          </mxGeometry>
        </mxCell>
        <mxCell id="o6FvsHjwkwFCM-Jpp8p4-24" value="" style="endArrow=none;html=1;rounded=0;" parent="fWY5PkTmN_TgE-W4XBkF-3" source="o6FvsHjwkwFCM-Jpp8p4-19" target="o6FvsHjwkwFCM-Jpp8p4-15" edge="1">
          <mxGeometry width="50" height="50" relative="1" as="geometry">
            <mxPoint x="63" y="96" as="sourcePoint" />
            <mxPoint x="102" y="70" as="targetPoint" />
          </mxGeometry>
        </mxCell>
        <mxCell id="o6FvsHjwkwFCM-Jpp8p4-15" value="Usuario" style="whiteSpace=wrap;html=1;" parent="fWY5PkTmN_TgE-W4XBkF-3" vertex="1">
          <mxGeometry x="76" width="120" height="60" as="geometry" />
        </mxCell>
        <mxCell id="o6FvsHjwkwFCM-Jpp8p4-16" value="codUser" style="ellipse;whiteSpace=wrap;html=1;fontStyle=5" parent="fWY5PkTmN_TgE-W4XBkF-3" vertex="1">
          <mxGeometry y="80" width="70" height="45" as="geometry" />
        </mxCell>
        <mxCell id="o6FvsHjwkwFCM-Jpp8p4-23" value="" style="endArrow=none;html=1;rounded=0;" parent="fWY5PkTmN_TgE-W4XBkF-3" source="o6FvsHjwkwFCM-Jpp8p4-16" target="o6FvsHjwkwFCM-Jpp8p4-15" edge="1">
          <mxGeometry width="50" height="50" relative="1" as="geometry">
            <mxPoint x="201" y="140" as="sourcePoint" />
            <mxPoint x="226" y="153" as="targetPoint" />
          </mxGeometry>
        </mxCell>
        <mxCell id="fWY5PkTmN_TgE-W4XBkF-1" value="tipoUser" style="ellipse;whiteSpace=wrap;html=1;" parent="fWY5PkTmN_TgE-W4XBkF-3" vertex="1">
          <mxGeometry x="105" y="100" width="56.5" height="45" as="geometry" />
        </mxCell>
        <mxCell id="fWY5PkTmN_TgE-W4XBkF-2" value="" style="endArrow=none;html=1;rounded=0;" parent="fWY5PkTmN_TgE-W4XBkF-3" source="fWY5PkTmN_TgE-W4XBkF-1" target="o6FvsHjwkwFCM-Jpp8p4-15" edge="1">
          <mxGeometry width="50" height="50" relative="1" as="geometry">
            <mxPoint x="274" y="64" as="sourcePoint" />
            <mxPoint x="206" y="51" as="targetPoint" />
          </mxGeometry>
        </mxCell>
        <mxCell id="fWY5PkTmN_TgE-W4XBkF-4" value="" style="group" parent="1" vertex="1" connectable="0">
          <mxGeometry x="260" y="990" width="480" height="225" as="geometry" />
        </mxCell>
        <mxCell id="p_nJ_jK38WjMyXfddBws-358" value="nomCoord" style="ellipse;whiteSpace=wrap;html=1;container=0;" parent="fWY5PkTmN_TgE-W4XBkF-4" vertex="1">
          <mxGeometry x="20" width="70" height="45" as="geometry" />
        </mxCell>
        <mxCell id="p_nJ_jK38WjMyXfddBws-359" value="" style="endArrow=none;html=1;rounded=0;" parent="fWY5PkTmN_TgE-W4XBkF-4" source="p_nJ_jK38WjMyXfddBws-358" target="p_nJ_jK38WjMyXfddBws-362" edge="1">
          <mxGeometry width="50" height="50" relative="1" as="geometry">
            <mxPoint x="390" y="182" as="sourcePoint" />
            <mxPoint x="439" y="164" as="targetPoint" />
          </mxGeometry>
        </mxCell>
        <mxCell id="p_nJ_jK38WjMyXfddBws-360" value="apCoord" style="ellipse;whiteSpace=wrap;html=1;container=0;" parent="fWY5PkTmN_TgE-W4XBkF-4" vertex="1">
          <mxGeometry y="60" width="70" height="45" as="geometry" />
        </mxCell>
        <mxCell id="p_nJ_jK38WjMyXfddBws-361" value="" style="endArrow=none;html=1;rounded=0;" parent="fWY5PkTmN_TgE-W4XBkF-4" source="p_nJ_jK38WjMyXfddBws-362" target="p_nJ_jK38WjMyXfddBws-360" edge="1">
          <mxGeometry width="50" height="50" relative="1" as="geometry">
            <mxPoint x="362" y="260" as="sourcePoint" />
            <mxPoint x="360" y="215" as="targetPoint" />
          </mxGeometry>
        </mxCell>
        <mxCell id="p_nJ_jK38WjMyXfddBws-4" value="Coordinador" style="whiteSpace=wrap;html=1;container=0;" parent="fWY5PkTmN_TgE-W4XBkF-4" vertex="1">
          <mxGeometry x="180" y="40" width="120" height="60" as="geometry" />
        </mxCell>
        <mxCell id="p_nJ_jK38WjMyXfddBws-362" value="Nombre" style="ellipse;whiteSpace=wrap;html=1;container=0;" parent="fWY5PkTmN_TgE-W4XBkF-4" vertex="1">
          <mxGeometry x="84" y="55" width="70" height="45" as="geometry" />
        </mxCell>
        <mxCell id="p_nJ_jK38WjMyXfddBws-363" value="amCoord" style="ellipse;whiteSpace=wrap;html=1;container=0;" parent="fWY5PkTmN_TgE-W4XBkF-4" vertex="1">
          <mxGeometry x="40" y="110" width="70" height="45" as="geometry" />
        </mxCell>
        <mxCell id="p_nJ_jK38WjMyXfddBws-364" value="" style="endArrow=none;html=1;rounded=0;" parent="fWY5PkTmN_TgE-W4XBkF-4" source="p_nJ_jK38WjMyXfddBws-362" target="p_nJ_jK38WjMyXfddBws-363" edge="1">
          <mxGeometry width="50" height="50" relative="1" as="geometry">
            <mxPoint x="370" y="171" as="sourcePoint" />
            <mxPoint x="378" y="154" as="targetPoint" />
          </mxGeometry>
        </mxCell>
        <mxCell id="p_nJ_jK38WjMyXfddBws-366" value="numTelfCoord" style="ellipse;whiteSpace=wrap;html=1;container=0;" parent="fWY5PkTmN_TgE-W4XBkF-4" vertex="1">
          <mxGeometry x="260" y="179" width="120" height="45" as="geometry" />
        </mxCell>
        <mxCell id="p_nJ_jK38WjMyXfddBws-367" value="Contacto" style="ellipse;whiteSpace=wrap;html=1;container=0;" parent="fWY5PkTmN_TgE-W4XBkF-4" vertex="1">
          <mxGeometry x="290" y="115" width="80" height="45" as="geometry" />
        </mxCell>
        <mxCell id="p_nJ_jK38WjMyXfddBws-369" value="" style="endArrow=none;html=1;rounded=0;" parent="fWY5PkTmN_TgE-W4XBkF-4" source="p_nJ_jK38WjMyXfddBws-367" target="p_nJ_jK38WjMyXfddBws-366" edge="1">
          <mxGeometry width="50" height="50" relative="1" as="geometry">
            <mxPoint x="418" y="63" as="sourcePoint" />
            <mxPoint x="462" y="55" as="targetPoint" />
          </mxGeometry>
        </mxCell>
        <mxCell id="p_nJ_jK38WjMyXfddBws-371" value="" style="endArrow=none;html=1;rounded=0;" parent="fWY5PkTmN_TgE-W4XBkF-4" source="p_nJ_jK38WjMyXfddBws-4" target="p_nJ_jK38WjMyXfddBws-362" edge="1">
          <mxGeometry width="50" height="50" relative="1" as="geometry">
            <mxPoint x="153.0994222888039" y="50" as="sourcePoint" />
            <mxPoint x="95" y="82" as="targetPoint" />
          </mxGeometry>
        </mxCell>
        <mxCell id="p_nJ_jK38WjMyXfddBws-372" value="" style="endArrow=none;html=1;rounded=0;" parent="fWY5PkTmN_TgE-W4XBkF-4" source="p_nJ_jK38WjMyXfddBws-4" target="p_nJ_jK38WjMyXfddBws-367" edge="1">
          <mxGeometry width="50" height="50" relative="1" as="geometry">
            <mxPoint x="213" y="100" as="sourcePoint" />
            <mxPoint x="196" y="118" as="targetPoint" />
          </mxGeometry>
        </mxCell>
        <mxCell id="o6FvsHjwkwFCM-Jpp8p4-30" value="Coordinador" style="whiteSpace=wrap;html=1;container=0;" parent="fWY5PkTmN_TgE-W4XBkF-4" vertex="1">
          <mxGeometry x="190" y="45" width="100" height="50" as="geometry" />
        </mxCell>
        <mxCell id="o6FvsHjwkwFCM-Jpp8p4-35" value="idCoord" style="ellipse;whiteSpace=wrap;html=1;container=0;" parent="fWY5PkTmN_TgE-W4XBkF-4" vertex="1">
          <mxGeometry x="320" y="47.5" width="80" height="45" as="geometry" />
        </mxCell>
        <mxCell id="o6FvsHjwkwFCM-Jpp8p4-36" value="" style="endArrow=none;html=1;rounded=0;" parent="fWY5PkTmN_TgE-W4XBkF-4" source="p_nJ_jK38WjMyXfddBws-4" target="o6FvsHjwkwFCM-Jpp8p4-35" edge="1">
          <mxGeometry width="50" height="50" relative="1" as="geometry">
            <mxPoint x="327" y="169" as="sourcePoint" />
            <mxPoint x="314" y="191" as="targetPoint" />
          </mxGeometry>
        </mxCell>
        <mxCell id="o6FvsHjwkwFCM-Jpp8p4-39" value="codUserCoord" style="ellipse;whiteSpace=wrap;html=1;fontStyle=5;container=0;" parent="fWY5PkTmN_TgE-W4XBkF-4" vertex="1">
          <mxGeometry x="150" y="140" width="90" height="40" as="geometry" />
        </mxCell>
        <mxCell id="o6FvsHjwkwFCM-Jpp8p4-40" value="" style="endArrow=none;html=1;rounded=0;" parent="fWY5PkTmN_TgE-W4XBkF-4" source="p_nJ_jK38WjMyXfddBws-4" target="o6FvsHjwkwFCM-Jpp8p4-39" edge="1">
          <mxGeometry width="50" height="50" relative="1" as="geometry">
            <mxPoint x="327" y="169" as="sourcePoint" />
            <mxPoint x="314" y="191" as="targetPoint" />
          </mxGeometry>
        </mxCell>
        <mxCell id="p_nJ_jK38WjMyXfddBws-340" value="Generar" style="rhombus;whiteSpace=wrap;html=1;" parent="1" vertex="1">
          <mxGeometry x="235" y="565" width="80" height="80" as="geometry" />
        </mxCell>
        <mxCell id="p_nJ_jK38WjMyXfddBws-341" value="" style="endArrow=classic;html=1;rounded=0;exitX=0;exitY=0.5;exitDx=0;exitDy=0;" parent="1" source="p_nJ_jK38WjMyXfddBws-340" target="p_nJ_jK38WjMyXfddBws-6" edge="1">
          <mxGeometry width="50" height="50" relative="1" as="geometry">
            <mxPoint x="-40" y="735" as="sourcePoint" />
            <mxPoint x="50" y="575" as="targetPoint" />
          </mxGeometry>
        </mxCell>
        <mxCell id="p_nJ_jK38WjMyXfddBws-342" value="&lt;b&gt;&lt;font style=&quot;font-size: 16px;&quot;&gt;1&lt;/font&gt;&lt;/b&gt;" style="edgeLabel;html=1;align=center;verticalAlign=middle;resizable=0;points=[];" parent="p_nJ_jK38WjMyXfddBws-341" vertex="1" connectable="0">
          <mxGeometry x="-0.129" y="2" relative="1" as="geometry">
            <mxPoint as="offset" />
          </mxGeometry>
        </mxCell>
        <mxCell id="fWY5PkTmN_TgE-W4XBkF-6" value="" style="group" parent="1" vertex="1" connectable="0">
          <mxGeometry x="-160" y="380" width="515" height="345" as="geometry" />
        </mxCell>
        <mxCell id="p_nJ_jK38WjMyXfddBws-193" value="diasPorSem" style="ellipse;whiteSpace=wrap;html=1;" parent="fWY5PkTmN_TgE-W4XBkF-6" vertex="1">
          <mxGeometry x="210" width="90" height="45" as="geometry" />
        </mxCell>
        <mxCell id="p_nJ_jK38WjMyXfddBws-195" value="" style="endArrow=none;html=1;rounded=0;" parent="fWY5PkTmN_TgE-W4XBkF-6" source="p_nJ_jK38WjMyXfddBws-190" target="p_nJ_jK38WjMyXfddBws-193" edge="1">
          <mxGeometry width="50" height="50" relative="1" as="geometry">
            <mxPoint x="177" y="333" as="sourcePoint" />
            <mxPoint x="198" y="357" as="targetPoint" />
          </mxGeometry>
        </mxCell>
        <mxCell id="p_nJ_jK38WjMyXfddBws-6" value="Servicio Social" style="whiteSpace=wrap;html=1;" parent="fWY5PkTmN_TgE-W4XBkF-6" vertex="1">
          <mxGeometry x="140" y="125" width="120" height="60" as="geometry" />
        </mxCell>
        <mxCell id="p_nJ_jK38WjMyXfddBws-174" value="idServicio" style="ellipse;whiteSpace=wrap;html=1;fontStyle=5" parent="fWY5PkTmN_TgE-W4XBkF-6" vertex="1">
          <mxGeometry y="80" width="70" height="45" as="geometry" />
        </mxCell>
        <mxCell id="p_nJ_jK38WjMyXfddBws-175" value="Fecha de Inicio" style="ellipse;whiteSpace=wrap;html=1;" parent="fWY5PkTmN_TgE-W4XBkF-6" vertex="1">
          <mxGeometry x="315" y="105" width="100" height="45" as="geometry" />
        </mxCell>
        <mxCell id="p_nJ_jK38WjMyXfddBws-176" value="dia" style="ellipse;whiteSpace=wrap;html=1;" parent="fWY5PkTmN_TgE-W4XBkF-6" vertex="1">
          <mxGeometry x="465" y="105" width="50" height="45" as="geometry" />
        </mxCell>
        <mxCell id="p_nJ_jK38WjMyXfddBws-177" value="mes" style="ellipse;whiteSpace=wrap;html=1;" parent="fWY5PkTmN_TgE-W4XBkF-6" vertex="1">
          <mxGeometry x="415" y="70" width="50" height="45" as="geometry" />
        </mxCell>
        <mxCell id="p_nJ_jK38WjMyXfddBws-178" value="aÃ±o" style="ellipse;whiteSpace=wrap;html=1;" parent="fWY5PkTmN_TgE-W4XBkF-6" vertex="1">
          <mxGeometry x="345" y="55" width="50" height="45" as="geometry" />
        </mxCell>
        <mxCell id="p_nJ_jK38WjMyXfddBws-179" value="" style="endArrow=none;html=1;rounded=0;" parent="fWY5PkTmN_TgE-W4XBkF-6" source="p_nJ_jK38WjMyXfddBws-175" target="p_nJ_jK38WjMyXfddBws-176" edge="1">
          <mxGeometry width="50" height="50" relative="1" as="geometry">
            <mxPoint x="444" y="-12" as="sourcePoint" />
            <mxPoint x="490" y="-4" as="targetPoint" />
          </mxGeometry>
        </mxCell>
        <mxCell id="p_nJ_jK38WjMyXfddBws-180" value="" style="endArrow=none;html=1;rounded=0;" parent="fWY5PkTmN_TgE-W4XBkF-6" source="p_nJ_jK38WjMyXfddBws-175" target="p_nJ_jK38WjMyXfddBws-177" edge="1">
          <mxGeometry width="50" height="50" relative="1" as="geometry">
            <mxPoint x="453" y="131" as="sourcePoint" />
            <mxPoint x="475" y="126" as="targetPoint" />
          </mxGeometry>
        </mxCell>
        <mxCell id="p_nJ_jK38WjMyXfddBws-181" value="" style="endArrow=none;html=1;rounded=0;" parent="fWY5PkTmN_TgE-W4XBkF-6" source="p_nJ_jK38WjMyXfddBws-175" target="p_nJ_jK38WjMyXfddBws-178" edge="1">
          <mxGeometry width="50" height="50" relative="1" as="geometry">
            <mxPoint x="445" y="151" as="sourcePoint" />
            <mxPoint x="467" y="159" as="targetPoint" />
          </mxGeometry>
        </mxCell>
        <mxCell id="p_nJ_jK38WjMyXfddBws-182" value="Fecha de Fin" style="ellipse;whiteSpace=wrap;html=1;" parent="fWY5PkTmN_TgE-W4XBkF-6" vertex="1">
          <mxGeometry x="205" y="225" width="100" height="45" as="geometry" />
        </mxCell>
        <mxCell id="p_nJ_jK38WjMyXfddBws-183" value="dia" style="ellipse;whiteSpace=wrap;html=1;" parent="fWY5PkTmN_TgE-W4XBkF-6" vertex="1">
          <mxGeometry x="325" y="255" width="50" height="45" as="geometry" />
        </mxCell>
        <mxCell id="p_nJ_jK38WjMyXfddBws-184" value="mes" style="ellipse;whiteSpace=wrap;html=1;" parent="fWY5PkTmN_TgE-W4XBkF-6" vertex="1">
          <mxGeometry x="265" y="290" width="50" height="45" as="geometry" />
        </mxCell>
        <mxCell id="p_nJ_jK38WjMyXfddBws-185" value="aÃ±o" style="ellipse;whiteSpace=wrap;html=1;" parent="fWY5PkTmN_TgE-W4XBkF-6" vertex="1">
          <mxGeometry x="205" y="290" width="50" height="45" as="geometry" />
        </mxCell>
        <mxCell id="p_nJ_jK38WjMyXfddBws-186" value="" style="endArrow=none;html=1;rounded=0;" parent="fWY5PkTmN_TgE-W4XBkF-6" source="p_nJ_jK38WjMyXfddBws-182" target="p_nJ_jK38WjMyXfddBws-183" edge="1">
          <mxGeometry width="50" height="50" relative="1" as="geometry">
            <mxPoint x="334" y="108" as="sourcePoint" />
            <mxPoint x="380" y="116" as="targetPoint" />
          </mxGeometry>
        </mxCell>
        <mxCell id="p_nJ_jK38WjMyXfddBws-187" value="" style="endArrow=none;html=1;rounded=0;" parent="fWY5PkTmN_TgE-W4XBkF-6" source="p_nJ_jK38WjMyXfddBws-182" target="p_nJ_jK38WjMyXfddBws-184" edge="1">
          <mxGeometry width="50" height="50" relative="1" as="geometry">
            <mxPoint x="343" y="251" as="sourcePoint" />
            <mxPoint x="365" y="246" as="targetPoint" />
          </mxGeometry>
        </mxCell>
        <mxCell id="p_nJ_jK38WjMyXfddBws-188" value="" style="endArrow=none;html=1;rounded=0;" parent="fWY5PkTmN_TgE-W4XBkF-6" source="p_nJ_jK38WjMyXfddBws-182" target="p_nJ_jK38WjMyXfddBws-185" edge="1">
          <mxGeometry width="50" height="50" relative="1" as="geometry">
            <mxPoint x="335" y="271" as="sourcePoint" />
            <mxPoint x="357" y="279" as="targetPoint" />
          </mxGeometry>
        </mxCell>
        <mxCell id="p_nJ_jK38WjMyXfddBws-190" value="Horario" style="ellipse;whiteSpace=wrap;html=1;" parent="fWY5PkTmN_TgE-W4XBkF-6" vertex="1">
          <mxGeometry x="180" y="70" width="80" height="45" as="geometry" />
        </mxCell>
        <mxCell id="p_nJ_jK38WjMyXfddBws-191" value="horaInicio" style="ellipse;whiteSpace=wrap;html=1;" parent="fWY5PkTmN_TgE-W4XBkF-6" vertex="1">
          <mxGeometry x="125" y="10" width="80" height="45" as="geometry" />
        </mxCell>
        <mxCell id="p_nJ_jK38WjMyXfddBws-192" value="horaFin" style="ellipse;whiteSpace=wrap;html=1;" parent="fWY5PkTmN_TgE-W4XBkF-6" vertex="1">
          <mxGeometry x="265" y="35" width="80" height="45" as="geometry" />
        </mxCell>
        <mxCell id="p_nJ_jK38WjMyXfddBws-194" value="" style="endArrow=none;html=1;rounded=0;" parent="fWY5PkTmN_TgE-W4XBkF-6" source="p_nJ_jK38WjMyXfddBws-190" target="p_nJ_jK38WjMyXfddBws-192" edge="1">
          <mxGeometry width="50" height="50" relative="1" as="geometry">
            <mxPoint x="337" y="315" as="sourcePoint" />
            <mxPoint x="328" y="336" as="targetPoint" />
          </mxGeometry>
        </mxCell>
        <mxCell id="p_nJ_jK38WjMyXfddBws-196" value="" style="endArrow=none;html=1;rounded=0;" parent="fWY5PkTmN_TgE-W4XBkF-6" source="p_nJ_jK38WjMyXfddBws-190" target="p_nJ_jK38WjMyXfddBws-191" edge="1">
          <mxGeometry width="50" height="50" relative="1" as="geometry">
            <mxPoint x="182" y="338" as="sourcePoint" />
            <mxPoint x="203" y="362" as="targetPoint" />
          </mxGeometry>
        </mxCell>
        <mxCell id="p_nJ_jK38WjMyXfddBws-197" value="" style="endArrow=none;html=1;rounded=0;" parent="fWY5PkTmN_TgE-W4XBkF-6" source="p_nJ_jK38WjMyXfddBws-6" target="p_nJ_jK38WjMyXfddBws-174" edge="1">
          <mxGeometry width="50" height="50" relative="1" as="geometry">
            <mxPoint x="146" y="329" as="sourcePoint" />
            <mxPoint x="134" y="355" as="targetPoint" />
          </mxGeometry>
        </mxCell>
        <mxCell id="p_nJ_jK38WjMyXfddBws-199" value="" style="endArrow=none;html=1;rounded=0;" parent="fWY5PkTmN_TgE-W4XBkF-6" source="p_nJ_jK38WjMyXfddBws-6" target="p_nJ_jK38WjMyXfddBws-190" edge="1">
          <mxGeometry width="50" height="50" relative="1" as="geometry">
            <mxPoint x="171" y="135" as="sourcePoint" />
            <mxPoint x="132" y="105" as="targetPoint" />
          </mxGeometry>
        </mxCell>
        <mxCell id="p_nJ_jK38WjMyXfddBws-200" value="" style="endArrow=none;html=1;rounded=0;" parent="fWY5PkTmN_TgE-W4XBkF-6" source="p_nJ_jK38WjMyXfddBws-6" target="p_nJ_jK38WjMyXfddBws-182" edge="1">
          <mxGeometry width="50" height="50" relative="1" as="geometry">
            <mxPoint x="198" y="195" as="sourcePoint" />
            <mxPoint x="163" y="286" as="targetPoint" />
          </mxGeometry>
        </mxCell>
        <mxCell id="p_nJ_jK38WjMyXfddBws-201" value="" style="endArrow=none;html=1;rounded=0;" parent="fWY5PkTmN_TgE-W4XBkF-6" source="p_nJ_jK38WjMyXfddBws-6" target="p_nJ_jK38WjMyXfddBws-175" edge="1">
          <mxGeometry width="50" height="50" relative="1" as="geometry">
            <mxPoint x="242" y="195" as="sourcePoint" />
            <mxPoint x="323" y="272" as="targetPoint" />
          </mxGeometry>
        </mxCell>
        <mxCell id="p_nJ_jK38WjMyXfddBws-203" value="actividades" style="ellipse;whiteSpace=wrap;html=1;" parent="fWY5PkTmN_TgE-W4XBkF-6" vertex="1">
          <mxGeometry x="45" y="35" width="80" height="45" as="geometry" />
        </mxCell>
        <mxCell id="p_nJ_jK38WjMyXfddBws-204" value="" style="endArrow=none;html=1;rounded=0;" parent="fWY5PkTmN_TgE-W4XBkF-6" source="p_nJ_jK38WjMyXfddBws-6" target="p_nJ_jK38WjMyXfddBws-203" edge="1">
          <mxGeometry width="50" height="50" relative="1" as="geometry">
            <mxPoint x="171" y="135" as="sourcePoint" />
            <mxPoint x="132" y="105" as="targetPoint" />
          </mxGeometry>
        </mxCell>
        <mxCell id="pXRByJer4nILOct9MMqB-3" value="nomServic" style="ellipse;whiteSpace=wrap;html=1;" vertex="1" parent="fWY5PkTmN_TgE-W4XBkF-6">
          <mxGeometry x="30" y="185" width="80" height="45" as="geometry" />
        </mxCell>
        <mxCell id="pXRByJer4nILOct9MMqB-4" value="" style="endArrow=none;html=1;rounded=0;" edge="1" parent="fWY5PkTmN_TgE-W4XBkF-6" source="p_nJ_jK38WjMyXfddBws-6" target="pXRByJer4nILOct9MMqB-3">
          <mxGeometry width="50" height="50" relative="1" as="geometry">
            <mxPoint x="150" y="146" as="sourcePoint" />
            <mxPoint x="76" y="122" as="targetPoint" />
          </mxGeometry>
        </mxCell>
        <mxCell id="fWY5PkTmN_TgE-W4XBkF-8" value="" style="group" parent="1" vertex="1" connectable="0">
          <mxGeometry x="-970" y="-10" width="706.25" height="620" as="geometry" />
        </mxCell>
        <mxCell id="p_nJ_jK38WjMyXfddBws-45" value="IS A" style="triangle;whiteSpace=wrap;html=1;direction=south;" parent="fWY5PkTmN_TgE-W4XBkF-8" vertex="1">
          <mxGeometry x="370" y="175" width="80" height="60" as="geometry" />
        </mxCell>
        <mxCell id="p_nJ_jK38WjMyXfddBws-46" value="" style="endArrow=none;html=1;rounded=0;" parent="fWY5PkTmN_TgE-W4XBkF-8" source="p_nJ_jK38WjMyXfddBws-1" target="p_nJ_jK38WjMyXfddBws-45" edge="1">
          <mxGeometry width="50" height="50" relative="1" as="geometry">
            <mxPoint x="408" y="418" as="sourcePoint" />
            <mxPoint x="380" y="280" as="targetPoint" />
          </mxGeometry>
        </mxCell>
        <mxCell id="p_nJ_jK38WjMyXfddBws-47" value="Dependencia" style="whiteSpace=wrap;html=1;" parent="fWY5PkTmN_TgE-W4XBkF-8" vertex="1">
          <mxGeometry x="200" y="175" width="120" height="60" as="geometry" />
        </mxCell>
        <mxCell id="p_nJ_jK38WjMyXfddBws-48" value="Dependencia" style="whiteSpace=wrap;html=1;" parent="fWY5PkTmN_TgE-W4XBkF-8" vertex="1">
          <mxGeometry x="350" y="70" width="120" height="60" as="geometry" />
        </mxCell>
        <mxCell id="p_nJ_jK38WjMyXfddBws-49" value="Dependencia" style="whiteSpace=wrap;html=1;" parent="fWY5PkTmN_TgE-W4XBkF-8" vertex="1">
          <mxGeometry x="490" y="175" width="120" height="60" as="geometry" />
        </mxCell>
        <mxCell id="p_nJ_jK38WjMyXfddBws-50" value="Privada" style="whiteSpace=wrap;html=1;" parent="fWY5PkTmN_TgE-W4XBkF-8" vertex="1">
          <mxGeometry x="500" y="180" width="100" height="50" as="geometry" />
        </mxCell>
        <mxCell id="p_nJ_jK38WjMyXfddBws-51" value="Social" style="whiteSpace=wrap;html=1;" parent="fWY5PkTmN_TgE-W4XBkF-8" vertex="1">
          <mxGeometry x="360" y="75" width="100" height="50" as="geometry" />
        </mxCell>
        <mxCell id="p_nJ_jK38WjMyXfddBws-52" value="Publica" style="whiteSpace=wrap;html=1;" parent="fWY5PkTmN_TgE-W4XBkF-8" vertex="1">
          <mxGeometry x="210" y="180" width="100" height="50" as="geometry" />
        </mxCell>
        <mxCell id="p_nJ_jK38WjMyXfddBws-53" value="" style="endArrow=none;html=1;rounded=0;" parent="fWY5PkTmN_TgE-W4XBkF-8" source="p_nJ_jK38WjMyXfddBws-47" target="p_nJ_jK38WjMyXfddBws-45" edge="1">
          <mxGeometry width="50" height="50" relative="1" as="geometry">
            <mxPoint x="386" y="418" as="sourcePoint" />
            <mxPoint x="420" y="245" as="targetPoint" />
          </mxGeometry>
        </mxCell>
        <mxCell id="p_nJ_jK38WjMyXfddBws-54" value="" style="endArrow=none;html=1;rounded=0;" parent="fWY5PkTmN_TgE-W4XBkF-8" source="p_nJ_jK38WjMyXfddBws-48" target="p_nJ_jK38WjMyXfddBws-45" edge="1">
          <mxGeometry width="50" height="50" relative="1" as="geometry">
            <mxPoint x="311" y="150" as="sourcePoint" />
            <mxPoint x="387" y="195" as="targetPoint" />
          </mxGeometry>
        </mxCell>
        <mxCell id="p_nJ_jK38WjMyXfddBws-55" value="" style="endArrow=none;html=1;rounded=0;" parent="fWY5PkTmN_TgE-W4XBkF-8" source="p_nJ_jK38WjMyXfddBws-49" target="p_nJ_jK38WjMyXfddBws-45" edge="1">
          <mxGeometry width="50" height="50" relative="1" as="geometry">
            <mxPoint x="427" y="130" as="sourcePoint" />
            <mxPoint x="423" y="185" as="targetPoint" />
          </mxGeometry>
        </mxCell>
        <mxCell id="p_nJ_jK38WjMyXfddBws-56" value="codUserDependPublic" style="ellipse;whiteSpace=wrap;html=1;fontStyle=5" parent="fWY5PkTmN_TgE-W4XBkF-8" vertex="1">
          <mxGeometry x="187.5" y="80" width="145" height="45" as="geometry" />
        </mxCell>
        <mxCell id="p_nJ_jK38WjMyXfddBws-57" value="codUserDependSoc" style="ellipse;whiteSpace=wrap;html=1;fontStyle=5" parent="fWY5PkTmN_TgE-W4XBkF-8" vertex="1">
          <mxGeometry x="342.5" width="135" height="45" as="geometry" />
        </mxCell>
        <mxCell id="p_nJ_jK38WjMyXfddBws-58" value="codUserDependPriv" style="ellipse;whiteSpace=wrap;html=1;fontStyle=5" parent="fWY5PkTmN_TgE-W4XBkF-8" vertex="1">
          <mxGeometry x="482.5" y="77.5" width="135" height="45" as="geometry" />
        </mxCell>
        <mxCell id="p_nJ_jK38WjMyXfddBws-59" value="" style="endArrow=none;html=1;rounded=0;" parent="fWY5PkTmN_TgE-W4XBkF-8" source="p_nJ_jK38WjMyXfddBws-56" target="p_nJ_jK38WjMyXfddBws-47" edge="1">
          <mxGeometry width="50" height="50" relative="1" as="geometry">
            <mxPoint x="330" y="215" as="sourcePoint" />
            <mxPoint x="400" y="215" as="targetPoint" />
          </mxGeometry>
        </mxCell>
        <mxCell id="p_nJ_jK38WjMyXfddBws-60" value="" style="endArrow=none;html=1;rounded=0;" parent="fWY5PkTmN_TgE-W4XBkF-8" source="p_nJ_jK38WjMyXfddBws-48" target="p_nJ_jK38WjMyXfddBws-57" edge="1">
          <mxGeometry width="50" height="50" relative="1" as="geometry">
            <mxPoint x="340" y="225" as="sourcePoint" />
            <mxPoint x="410" y="225" as="targetPoint" />
          </mxGeometry>
        </mxCell>
        <mxCell id="p_nJ_jK38WjMyXfddBws-61" value="" style="endArrow=none;html=1;rounded=0;" parent="fWY5PkTmN_TgE-W4XBkF-8" source="p_nJ_jK38WjMyXfddBws-58" target="p_nJ_jK38WjMyXfddBws-49" edge="1">
          <mxGeometry width="50" height="50" relative="1" as="geometry">
            <mxPoint x="350" y="235" as="sourcePoint" />
            <mxPoint x="420" y="235" as="targetPoint" />
          </mxGeometry>
        </mxCell>
        <mxCell id="p_nJ_jK38WjMyXfddBws-1" value="Dependencia" style="whiteSpace=wrap;html=1;" parent="fWY5PkTmN_TgE-W4XBkF-8" vertex="1">
          <mxGeometry x="350" y="407.5" width="120" height="60" as="geometry" />
        </mxCell>
        <mxCell id="p_nJ_jK38WjMyXfddBws-9" value="idDepend" style="ellipse;whiteSpace=wrap;html=1;fontStyle=0" parent="fWY5PkTmN_TgE-W4XBkF-8" vertex="1">
          <mxGeometry x="250" y="430" width="70" height="45" as="geometry" />
        </mxCell>
        <mxCell id="p_nJ_jK38WjMyXfddBws-10" value="nomDepend" style="ellipse;whiteSpace=wrap;html=1;" parent="fWY5PkTmN_TgE-W4XBkF-8" vertex="1">
          <mxGeometry x="187.5" y="385" width="75" height="45" as="geometry" />
        </mxCell>
        <mxCell id="p_nJ_jK38WjMyXfddBws-11" value="RFC" style="ellipse;whiteSpace=wrap;html=1;" parent="fWY5PkTmN_TgE-W4XBkF-8" vertex="1">
          <mxGeometry x="160" y="340" width="60" height="45" as="geometry" />
        </mxCell>
        <mxCell id="p_nJ_jK38WjMyXfddBws-12" value="tipoDepend" style="ellipse;whiteSpace=wrap;html=1;" parent="fWY5PkTmN_TgE-W4XBkF-8" vertex="1">
          <mxGeometry x="230" y="325" width="80" height="45" as="geometry" />
        </mxCell>
        <mxCell id="p_nJ_jK38WjMyXfddBws-13" value="Direccion" style="ellipse;whiteSpace=wrap;html=1;" parent="fWY5PkTmN_TgE-W4XBkF-8" vertex="1">
          <mxGeometry x="165" y="497.5" width="80" height="45" as="geometry" />
        </mxCell>
        <mxCell id="p_nJ_jK38WjMyXfddBws-14" value="calleDepend" style="ellipse;whiteSpace=wrap;html=1;" parent="fWY5PkTmN_TgE-W4XBkF-8" vertex="1">
          <mxGeometry x="85" y="445" width="80" height="45" as="geometry" />
        </mxCell>
        <mxCell id="p_nJ_jK38WjMyXfddBws-15" value="numExtDepend" style="ellipse;whiteSpace=wrap;html=1;" parent="fWY5PkTmN_TgE-W4XBkF-8" vertex="1">
          <mxGeometry y="485" width="120" height="45" as="geometry" />
        </mxCell>
        <mxCell id="p_nJ_jK38WjMyXfddBws-16" value="numIntDepend" style="ellipse;whiteSpace=wrap;html=1;" parent="fWY5PkTmN_TgE-W4XBkF-8" vertex="1">
          <mxGeometry x="27" y="530" width="120" height="45" as="geometry" />
        </mxCell>
        <mxCell id="p_nJ_jK38WjMyXfddBws-17" value="CPDepend" style="ellipse;whiteSpace=wrap;html=1;" parent="fWY5PkTmN_TgE-W4XBkF-8" vertex="1">
          <mxGeometry x="200" y="560" width="90" height="45" as="geometry" />
        </mxCell>
        <mxCell id="p_nJ_jK38WjMyXfddBws-18" value="coloniaDepend" style="ellipse;whiteSpace=wrap;html=1;" parent="fWY5PkTmN_TgE-W4XBkF-8" vertex="1">
          <mxGeometry x="80" y="575" width="120" height="45" as="geometry" />
        </mxCell>
        <mxCell id="p_nJ_jK38WjMyXfddBws-19" value="ciudadDepend" style="ellipse;whiteSpace=wrap;html=1;" parent="fWY5PkTmN_TgE-W4XBkF-8" vertex="1">
          <mxGeometry x="270" y="530" width="100" height="45" as="geometry" />
        </mxCell>
        <mxCell id="p_nJ_jK38WjMyXfddBws-20" value="EFDepend" style="ellipse;whiteSpace=wrap;html=1;" parent="fWY5PkTmN_TgE-W4XBkF-8" vertex="1">
          <mxGeometry x="170" y="445" width="80" height="45" as="geometry" />
        </mxCell>
        <mxCell id="p_nJ_jK38WjMyXfddBws-21" value="" style="endArrow=none;html=1;rounded=0;" parent="fWY5PkTmN_TgE-W4XBkF-8" source="p_nJ_jK38WjMyXfddBws-16" target="p_nJ_jK38WjMyXfddBws-13" edge="1">
          <mxGeometry width="50" height="50" relative="1" as="geometry">
            <mxPoint x="340" y="755" as="sourcePoint" />
            <mxPoint x="390" y="705" as="targetPoint" />
          </mxGeometry>
        </mxCell>
        <mxCell id="p_nJ_jK38WjMyXfddBws-22" value="" style="endArrow=none;html=1;rounded=0;" parent="fWY5PkTmN_TgE-W4XBkF-8" source="p_nJ_jK38WjMyXfddBws-18" target="p_nJ_jK38WjMyXfddBws-13" edge="1">
          <mxGeometry width="50" height="50" relative="1" as="geometry">
            <mxPoint x="329" y="576" as="sourcePoint" />
            <mxPoint x="372" y="528" as="targetPoint" />
          </mxGeometry>
        </mxCell>
        <mxCell id="p_nJ_jK38WjMyXfddBws-23" value="" style="endArrow=none;html=1;rounded=0;" parent="fWY5PkTmN_TgE-W4XBkF-8" source="p_nJ_jK38WjMyXfddBws-17" target="p_nJ_jK38WjMyXfddBws-13" edge="1">
          <mxGeometry width="50" height="50" relative="1" as="geometry">
            <mxPoint x="407" y="620" as="sourcePoint" />
            <mxPoint x="393" y="530" as="targetPoint" />
          </mxGeometry>
        </mxCell>
        <mxCell id="p_nJ_jK38WjMyXfddBws-24" value="" style="endArrow=none;html=1;rounded=0;" parent="fWY5PkTmN_TgE-W4XBkF-8" source="p_nJ_jK38WjMyXfddBws-19" target="p_nJ_jK38WjMyXfddBws-13" edge="1">
          <mxGeometry width="50" height="50" relative="1" as="geometry">
            <mxPoint x="417" y="630" as="sourcePoint" />
            <mxPoint x="403" y="540" as="targetPoint" />
          </mxGeometry>
        </mxCell>
        <mxCell id="p_nJ_jK38WjMyXfddBws-25" value="" style="endArrow=none;html=1;rounded=0;" parent="fWY5PkTmN_TgE-W4XBkF-8" source="p_nJ_jK38WjMyXfddBws-20" target="p_nJ_jK38WjMyXfddBws-13" edge="1">
          <mxGeometry width="50" height="50" relative="1" as="geometry">
            <mxPoint x="427" y="640" as="sourcePoint" />
            <mxPoint x="413" y="550" as="targetPoint" />
          </mxGeometry>
        </mxCell>
        <mxCell id="p_nJ_jK38WjMyXfddBws-26" value="" style="endArrow=none;html=1;rounded=0;" parent="fWY5PkTmN_TgE-W4XBkF-8" source="p_nJ_jK38WjMyXfddBws-15" target="p_nJ_jK38WjMyXfddBws-13" edge="1">
          <mxGeometry width="50" height="50" relative="1" as="geometry">
            <mxPoint x="437" y="650" as="sourcePoint" />
            <mxPoint x="423" y="560" as="targetPoint" />
          </mxGeometry>
        </mxCell>
        <mxCell id="p_nJ_jK38WjMyXfddBws-27" value="" style="endArrow=none;html=1;rounded=0;" parent="fWY5PkTmN_TgE-W4XBkF-8" source="p_nJ_jK38WjMyXfddBws-14" target="p_nJ_jK38WjMyXfddBws-13" edge="1">
          <mxGeometry width="50" height="50" relative="1" as="geometry">
            <mxPoint x="447" y="660" as="sourcePoint" />
            <mxPoint x="433" y="570" as="targetPoint" />
          </mxGeometry>
        </mxCell>
        <mxCell id="p_nJ_jK38WjMyXfddBws-28" value="" style="endArrow=none;html=1;rounded=0;" parent="fWY5PkTmN_TgE-W4XBkF-8" source="p_nJ_jK38WjMyXfddBws-13" target="p_nJ_jK38WjMyXfddBws-1" edge="1">
          <mxGeometry width="50" height="50" relative="1" as="geometry">
            <mxPoint x="497" y="685" as="sourcePoint" />
            <mxPoint x="483" y="595" as="targetPoint" />
          </mxGeometry>
        </mxCell>
        <mxCell id="p_nJ_jK38WjMyXfddBws-29" value="" style="endArrow=none;html=1;rounded=0;" parent="fWY5PkTmN_TgE-W4XBkF-8" source="p_nJ_jK38WjMyXfddBws-9" target="p_nJ_jK38WjMyXfddBws-1" edge="1">
          <mxGeometry width="50" height="50" relative="1" as="geometry">
            <mxPoint x="432" y="500" as="sourcePoint" />
            <mxPoint x="437" y="450" as="targetPoint" />
          </mxGeometry>
        </mxCell>
        <mxCell id="p_nJ_jK38WjMyXfddBws-30" value="" style="endArrow=none;html=1;rounded=0;" parent="fWY5PkTmN_TgE-W4XBkF-8" source="p_nJ_jK38WjMyXfddBws-10" target="p_nJ_jK38WjMyXfddBws-1" edge="1">
          <mxGeometry width="50" height="50" relative="1" as="geometry">
            <mxPoint x="339" y="412" as="sourcePoint" />
            <mxPoint x="380" y="415" as="targetPoint" />
          </mxGeometry>
        </mxCell>
        <mxCell id="p_nJ_jK38WjMyXfddBws-31" value="" style="endArrow=none;html=1;rounded=0;" parent="fWY5PkTmN_TgE-W4XBkF-8" source="p_nJ_jK38WjMyXfddBws-11" target="p_nJ_jK38WjMyXfddBws-1" edge="1">
          <mxGeometry width="50" height="50" relative="1" as="geometry">
            <mxPoint x="384" y="359" as="sourcePoint" />
            <mxPoint x="413" y="390" as="targetPoint" />
          </mxGeometry>
        </mxCell>
        <mxCell id="p_nJ_jK38WjMyXfddBws-32" value="" style="endArrow=none;html=1;rounded=0;" parent="fWY5PkTmN_TgE-W4XBkF-8" source="p_nJ_jK38WjMyXfddBws-1" target="p_nJ_jK38WjMyXfddBws-12" edge="1">
          <mxGeometry width="50" height="50" relative="1" as="geometry">
            <mxPoint x="394" y="369" as="sourcePoint" />
            <mxPoint x="423" y="400" as="targetPoint" />
          </mxGeometry>
        </mxCell>
        <mxCell id="p_nJ_jK38WjMyXfddBws-36" value="Contacto" style="ellipse;whiteSpace=wrap;html=1;" parent="fWY5PkTmN_TgE-W4XBkF-8" vertex="1">
          <mxGeometry x="500" y="370" width="80" height="45" as="geometry" />
        </mxCell>
        <mxCell id="p_nJ_jK38WjMyXfddBws-37" value="" style="endArrow=none;html=1;rounded=0;" parent="fWY5PkTmN_TgE-W4XBkF-8" source="p_nJ_jK38WjMyXfddBws-36" target="p_nJ_jK38WjMyXfddBws-1" edge="1">
          <mxGeometry width="50" height="50" relative="1" as="geometry">
            <mxPoint x="496" y="577.5" as="sourcePoint" />
            <mxPoint x="470" y="478.75" as="targetPoint" />
          </mxGeometry>
        </mxCell>
        <mxCell id="p_nJ_jK38WjMyXfddBws-39" value="" style="endArrow=none;html=1;rounded=0;" parent="fWY5PkTmN_TgE-W4XBkF-8" source="p_nJ_jK38WjMyXfddBws-36" target="p_nJ_jK38WjMyXfddBws-34" edge="1">
          <mxGeometry width="50" height="50" relative="1" as="geometry">
            <mxPoint x="578" y="455.5" as="sourcePoint" />
            <mxPoint x="622" y="447.5" as="targetPoint" />
          </mxGeometry>
        </mxCell>
        <mxCell id="p_nJ_jK38WjMyXfddBws-40" value="numTrabajadores" style="ellipse;whiteSpace=wrap;html=1;" parent="fWY5PkTmN_TgE-W4XBkF-8" vertex="1">
          <mxGeometry x="472.5" y="500" width="110" height="45" as="geometry" />
        </mxCell>
        <mxCell id="p_nJ_jK38WjMyXfddBws-41" value="" style="endArrow=none;html=1;rounded=0;" parent="fWY5PkTmN_TgE-W4XBkF-8" source="p_nJ_jK38WjMyXfddBws-40" target="p_nJ_jK38WjMyXfddBws-1" edge="1">
          <mxGeometry width="50" height="50" relative="1" as="geometry">
            <mxPoint x="508" y="475.5" as="sourcePoint" />
            <mxPoint x="470" y="507.2222222222222" as="targetPoint" />
          </mxGeometry>
        </mxCell>
        <mxCell id="p_nJ_jK38WjMyXfddBws-43" value="enfoqueDepend" style="ellipse;whiteSpace=wrap;html=1;" parent="fWY5PkTmN_TgE-W4XBkF-8" vertex="1">
          <mxGeometry x="290" y="270" width="110" height="45" as="geometry" />
        </mxCell>
        <mxCell id="p_nJ_jK38WjMyXfddBws-44" value="" style="endArrow=none;html=1;rounded=0;" parent="fWY5PkTmN_TgE-W4XBkF-8" source="p_nJ_jK38WjMyXfddBws-1" target="p_nJ_jK38WjMyXfddBws-43" edge="1">
          <mxGeometry width="50" height="50" relative="1" as="geometry">
            <mxPoint x="408" y="418" as="sourcePoint" />
            <mxPoint x="379" y="344" as="targetPoint" />
          </mxGeometry>
        </mxCell>
        <mxCell id="p_nJ_jK38WjMyXfddBws-249" value="califDepend" style="ellipse;whiteSpace=wrap;html=1;" parent="fWY5PkTmN_TgE-W4XBkF-8" vertex="1">
          <mxGeometry x="410" y="260" width="95" height="45" as="geometry" />
        </mxCell>
        <mxCell id="p_nJ_jK38WjMyXfddBws-250" value="" style="endArrow=none;html=1;rounded=0;" parent="fWY5PkTmN_TgE-W4XBkF-8" source="p_nJ_jK38WjMyXfddBws-1" target="p_nJ_jK38WjMyXfddBws-249" edge="1">
          <mxGeometry width="50" height="50" relative="1" as="geometry">
            <mxPoint x="433" y="418" as="sourcePoint" />
            <mxPoint x="475" y="320" as="targetPoint" />
          </mxGeometry>
        </mxCell>
        <mxCell id="o6FvsHjwkwFCM-Jpp8p4-28" value="Dependencia" style="whiteSpace=wrap;html=1;" parent="fWY5PkTmN_TgE-W4XBkF-8" vertex="1">
          <mxGeometry x="360" y="412.5" width="100" height="50" as="geometry" />
        </mxCell>
        <mxCell id="o6FvsHjwkwFCM-Jpp8p4-41" value="codUserDepend" style="ellipse;whiteSpace=wrap;html=1;fontStyle=5" parent="fWY5PkTmN_TgE-W4XBkF-8" vertex="1">
          <mxGeometry x="280" y="485" width="100" height="40" as="geometry" />
        </mxCell>
        <mxCell id="o6FvsHjwkwFCM-Jpp8p4-42" value="" style="endArrow=none;html=1;rounded=0;" parent="fWY5PkTmN_TgE-W4XBkF-8" source="o6FvsHjwkwFCM-Jpp8p4-41" target="p_nJ_jK38WjMyXfddBws-1" edge="1">
          <mxGeometry width="50" height="50" relative="1" as="geometry">
            <mxPoint x="248" y="517" as="sourcePoint" />
            <mxPoint x="360" y="472" as="targetPoint" />
          </mxGeometry>
        </mxCell>
        <mxCell id="YcdxmWCueC0W0oyNS2-Q-4" value="logo" style="ellipse;whiteSpace=wrap;html=1;" parent="fWY5PkTmN_TgE-W4XBkF-8" vertex="1">
          <mxGeometry x="320" y="340" width="47.5" height="45" as="geometry" />
        </mxCell>
        <mxCell id="YcdxmWCueC0W0oyNS2-Q-5" value="" style="endArrow=none;html=1;rounded=0;" parent="fWY5PkTmN_TgE-W4XBkF-8" source="p_nJ_jK38WjMyXfddBws-1" target="YcdxmWCueC0W0oyNS2-Q-4" edge="1">
          <mxGeometry width="50" height="50" relative="1" as="geometry">
            <mxPoint x="390" y="418" as="sourcePoint" />
            <mxPoint x="320" y="347" as="targetPoint" />
          </mxGeometry>
        </mxCell>
        <mxCell id="p_nJ_jK38WjMyXfddBws-34" value="numTelfDepend" style="ellipse;whiteSpace=wrap;html=1;" parent="fWY5PkTmN_TgE-W4XBkF-8" vertex="1">
          <mxGeometry x="606.25" y="367.5" width="100" height="45" as="geometry" />
        </mxCell>
        <mxCell id="fWY5PkTmN_TgE-W4XBkF-11" value="" style="group" parent="1" vertex="1" connectable="0">
          <mxGeometry x="-85" y="730" width="180" height="80" as="geometry" />
        </mxCell>
        <mxCell id="p_nJ_jK38WjMyXfddBws-219" value="Realizar" style="rhombus;whiteSpace=wrap;html=1;" parent="fWY5PkTmN_TgE-W4XBkF-11" vertex="1">
          <mxGeometry width="80" height="80" as="geometry" />
        </mxCell>
        <mxCell id="pXRByJer4nILOct9MMqB-1" value="estado" style="ellipse;whiteSpace=wrap;html=1;" vertex="1" parent="fWY5PkTmN_TgE-W4XBkF-11">
          <mxGeometry x="105" y="22.5" width="55" height="45" as="geometry" />
        </mxCell>
        <mxCell id="pXRByJer4nILOct9MMqB-2" value="" style="endArrow=none;html=1;rounded=0;" edge="1" parent="fWY5PkTmN_TgE-W4XBkF-11" source="p_nJ_jK38WjMyXfddBws-219" target="pXRByJer4nILOct9MMqB-1">
          <mxGeometry width="50" height="50" relative="1" as="geometry">
            <mxPoint x="235" y="110" as="sourcePoint" />
            <mxPoint x="285" y="60" as="targetPoint" />
          </mxGeometry>
        </mxCell>
        <mxCell id="fWY5PkTmN_TgE-W4XBkF-13" value="" style="group" parent="1" vertex="1" connectable="0">
          <mxGeometry x="-200" y="-25" width="440" height="295" as="geometry" />
        </mxCell>
        <mxCell id="p_nJ_jK38WjMyXfddBws-2" value="Director General" style="whiteSpace=wrap;html=1;" parent="fWY5PkTmN_TgE-W4XBkF-13" vertex="1">
          <mxGeometry x="140" y="160" width="120" height="60" as="geometry" />
        </mxCell>
        <mxCell id="p_nJ_jK38WjMyXfddBws-63" value="idDirector" style="ellipse;whiteSpace=wrap;html=1;fontStyle=5" parent="fWY5PkTmN_TgE-W4XBkF-13" vertex="1">
          <mxGeometry x="30" y="92.5" width="80" height="45" as="geometry" />
        </mxCell>
        <mxCell id="p_nJ_jK38WjMyXfddBws-64" value="Nombre" style="ellipse;whiteSpace=wrap;html=1;" parent="fWY5PkTmN_TgE-W4XBkF-13" vertex="1">
          <mxGeometry x="130" y="92.5" width="60" height="45" as="geometry" />
        </mxCell>
        <mxCell id="p_nJ_jK38WjMyXfddBws-65" value="nomDirector" style="ellipse;whiteSpace=wrap;html=1;" parent="fWY5PkTmN_TgE-W4XBkF-13" vertex="1">
          <mxGeometry x="40" y="30" width="80" height="45" as="geometry" />
        </mxCell>
        <mxCell id="p_nJ_jK38WjMyXfddBws-66" value="apDirector" style="ellipse;whiteSpace=wrap;html=1;" parent="fWY5PkTmN_TgE-W4XBkF-13" vertex="1">
          <mxGeometry x="140" width="80" height="45" as="geometry" />
        </mxCell>
        <mxCell id="p_nJ_jK38WjMyXfddBws-67" value="amDirector" style="ellipse;whiteSpace=wrap;html=1;" parent="fWY5PkTmN_TgE-W4XBkF-13" vertex="1">
          <mxGeometry x="200" y="47.5" width="80" height="45" as="geometry" />
        </mxCell>
        <mxCell id="p_nJ_jK38WjMyXfddBws-68" value="CURPDirector" style="ellipse;whiteSpace=wrap;html=1;" parent="fWY5PkTmN_TgE-W4XBkF-13" vertex="1">
          <mxGeometry x="105" y="250" width="85" height="45" as="geometry" />
        </mxCell>
        <mxCell id="p_nJ_jK38WjMyXfddBws-69" value="edadDirector" style="ellipse;whiteSpace=wrap;html=1;" parent="fWY5PkTmN_TgE-W4XBkF-13" vertex="1">
          <mxGeometry y="150" width="80" height="45" as="geometry" />
        </mxCell>
        <mxCell id="p_nJ_jK38WjMyXfddBws-73" value="emailDirector" style="ellipse;whiteSpace=wrap;html=1;" parent="fWY5PkTmN_TgE-W4XBkF-13" vertex="1">
          <mxGeometry x="325" y="60" width="85" height="45" as="geometry" />
        </mxCell>
        <mxCell id="p_nJ_jK38WjMyXfddBws-74" value="numTelfDirector" style="ellipse;whiteSpace=wrap;html=1;" parent="fWY5PkTmN_TgE-W4XBkF-13" vertex="1">
          <mxGeometry x="340" y="115" width="100" height="45" as="geometry" />
        </mxCell>
        <mxCell id="p_nJ_jK38WjMyXfddBws-75" value="Contacto" style="ellipse;whiteSpace=wrap;html=1;" parent="fWY5PkTmN_TgE-W4XBkF-13" vertex="1">
          <mxGeometry x="220" y="105" width="80" height="45" as="geometry" />
        </mxCell>
        <mxCell id="p_nJ_jK38WjMyXfddBws-76" value="" style="endArrow=none;html=1;rounded=0;" parent="fWY5PkTmN_TgE-W4XBkF-13" source="p_nJ_jK38WjMyXfddBws-75" target="p_nJ_jK38WjMyXfddBws-73" edge="1">
          <mxGeometry width="50" height="50" relative="1" as="geometry">
            <mxPoint x="358" y="160.5" as="sourcePoint" />
            <mxPoint x="330" y="173.5" as="targetPoint" />
          </mxGeometry>
        </mxCell>
        <mxCell id="p_nJ_jK38WjMyXfddBws-77" value="" style="endArrow=none;html=1;rounded=0;" parent="fWY5PkTmN_TgE-W4XBkF-13" source="p_nJ_jK38WjMyXfddBws-75" target="p_nJ_jK38WjMyXfddBws-74" edge="1">
          <mxGeometry width="50" height="50" relative="1" as="geometry">
            <mxPoint x="428" y="140.5" as="sourcePoint" />
            <mxPoint x="472" y="132.5" as="targetPoint" />
          </mxGeometry>
        </mxCell>
        <mxCell id="p_nJ_jK38WjMyXfddBws-84" value="" style="endArrow=none;html=1;rounded=0;" parent="fWY5PkTmN_TgE-W4XBkF-13" source="p_nJ_jK38WjMyXfddBws-2" target="p_nJ_jK38WjMyXfddBws-64" edge="1">
          <mxGeometry width="50" height="50" relative="1" as="geometry">
            <mxPoint x="428" y="154" as="sourcePoint" />
            <mxPoint x="475" y="161" as="targetPoint" />
          </mxGeometry>
        </mxCell>
        <mxCell id="p_nJ_jK38WjMyXfddBws-85" value="" style="endArrow=none;html=1;rounded=0;" parent="fWY5PkTmN_TgE-W4XBkF-13" source="p_nJ_jK38WjMyXfddBws-65" target="p_nJ_jK38WjMyXfddBws-64" edge="1">
          <mxGeometry width="50" height="50" relative="1" as="geometry">
            <mxPoint x="220" y="170" as="sourcePoint" />
            <mxPoint x="233" y="134" as="targetPoint" />
          </mxGeometry>
        </mxCell>
        <mxCell id="p_nJ_jK38WjMyXfddBws-86" value="" style="endArrow=none;html=1;rounded=0;" parent="fWY5PkTmN_TgE-W4XBkF-13" source="p_nJ_jK38WjMyXfddBws-66" target="p_nJ_jK38WjMyXfddBws-64" edge="1">
          <mxGeometry width="50" height="50" relative="1" as="geometry">
            <mxPoint x="175" y="71" as="sourcePoint" />
            <mxPoint x="217" y="98" as="targetPoint" />
          </mxGeometry>
        </mxCell>
        <mxCell id="p_nJ_jK38WjMyXfddBws-87" value="" style="endArrow=none;html=1;rounded=0;" parent="fWY5PkTmN_TgE-W4XBkF-13" source="p_nJ_jK38WjMyXfddBws-67" target="p_nJ_jK38WjMyXfddBws-64" edge="1">
          <mxGeometry width="50" height="50" relative="1" as="geometry">
            <mxPoint x="264" y="65" as="sourcePoint" />
            <mxPoint x="251" y="91" as="targetPoint" />
          </mxGeometry>
        </mxCell>
        <mxCell id="p_nJ_jK38WjMyXfddBws-88" value="" style="endArrow=none;html=1;rounded=0;" parent="fWY5PkTmN_TgE-W4XBkF-13" source="p_nJ_jK38WjMyXfddBws-75" target="p_nJ_jK38WjMyXfddBws-2" edge="1">
          <mxGeometry width="50" height="50" relative="1" as="geometry">
            <mxPoint x="293" y="105" as="sourcePoint" />
            <mxPoint x="269" y="108" as="targetPoint" />
          </mxGeometry>
        </mxCell>
        <mxCell id="p_nJ_jK38WjMyXfddBws-91" value="" style="endArrow=none;html=1;rounded=0;" parent="fWY5PkTmN_TgE-W4XBkF-13" source="p_nJ_jK38WjMyXfddBws-69" target="p_nJ_jK38WjMyXfddBws-2" edge="1">
          <mxGeometry width="50" height="50" relative="1" as="geometry">
            <mxPoint x="359" y="285" as="sourcePoint" />
            <mxPoint x="263" y="230" as="targetPoint" />
          </mxGeometry>
        </mxCell>
        <mxCell id="p_nJ_jK38WjMyXfddBws-92" value="" style="endArrow=none;html=1;rounded=0;" parent="fWY5PkTmN_TgE-W4XBkF-13" source="p_nJ_jK38WjMyXfddBws-68" target="p_nJ_jK38WjMyXfddBws-2" edge="1">
          <mxGeometry width="50" height="50" relative="1" as="geometry">
            <mxPoint x="210" y="290" as="sourcePoint" />
            <mxPoint x="210" y="230" as="targetPoint" />
          </mxGeometry>
        </mxCell>
        <mxCell id="p_nJ_jK38WjMyXfddBws-93" value="" style="endArrow=none;html=1;rounded=0;" parent="fWY5PkTmN_TgE-W4XBkF-13" source="p_nJ_jK38WjMyXfddBws-63" target="p_nJ_jK38WjMyXfddBws-2" edge="1">
          <mxGeometry width="50" height="50" relative="1" as="geometry">
            <mxPoint x="114" y="263" as="sourcePoint" />
            <mxPoint x="165" y="230" as="targetPoint" />
          </mxGeometry>
        </mxCell>
        <mxCell id="p_nJ_jK38WjMyXfddBws-240" value="Solicitar" style="rhombus;whiteSpace=wrap;html=1;" parent="1" vertex="1">
          <mxGeometry x="-300" y="475" width="80" height="80" as="geometry" />
        </mxCell>
        <mxCell id="YcdxmWCueC0W0oyNS2-Q-3" value="" style="group" parent="1" vertex="1" connectable="0">
          <mxGeometry x="-330" y="870" width="580" height="275" as="geometry" />
        </mxCell>
        <mxCell id="p_nJ_jK38WjMyXfddBws-141" value="nomAlumn" style="ellipse;whiteSpace=wrap;html=1;" parent="YcdxmWCueC0W0oyNS2-Q-3" vertex="1">
          <mxGeometry y="85" width="70" height="45" as="geometry" />
        </mxCell>
        <mxCell id="p_nJ_jK38WjMyXfddBws-168" value="" style="endArrow=none;html=1;rounded=0;" parent="YcdxmWCueC0W0oyNS2-Q-3" source="p_nJ_jK38WjMyXfddBws-141" target="p_nJ_jK38WjMyXfddBws-140" edge="1">
          <mxGeometry width="50" height="50" relative="1" as="geometry">
            <mxPoint x="346" y="37" as="sourcePoint" />
            <mxPoint x="395" y="19" as="targetPoint" />
          </mxGeometry>
        </mxCell>
        <mxCell id="p_nJ_jK38WjMyXfddBws-142" value="apAlumn" style="ellipse;whiteSpace=wrap;html=1;" parent="YcdxmWCueC0W0oyNS2-Q-3" vertex="1">
          <mxGeometry y="30" width="70" height="45" as="geometry" />
        </mxCell>
        <mxCell id="p_nJ_jK38WjMyXfddBws-166" value="" style="endArrow=none;html=1;rounded=0;" parent="YcdxmWCueC0W0oyNS2-Q-3" source="p_nJ_jK38WjMyXfddBws-140" target="p_nJ_jK38WjMyXfddBws-142" edge="1">
          <mxGeometry width="50" height="50" relative="1" as="geometry">
            <mxPoint x="318" y="115" as="sourcePoint" />
            <mxPoint x="316" y="70" as="targetPoint" />
          </mxGeometry>
        </mxCell>
        <mxCell id="p_nJ_jK38WjMyXfddBws-5" value="Alumno" style="whiteSpace=wrap;html=1;" parent="YcdxmWCueC0W0oyNS2-Q-3" vertex="1">
          <mxGeometry x="206" y="95" width="120" height="60" as="geometry" />
        </mxCell>
        <mxCell id="p_nJ_jK38WjMyXfddBws-139" value="matricula" style="ellipse;whiteSpace=wrap;html=1;fontStyle=0" parent="YcdxmWCueC0W0oyNS2-Q-3" vertex="1">
          <mxGeometry x="55" y="120" width="70" height="45" as="geometry" />
        </mxCell>
        <mxCell id="p_nJ_jK38WjMyXfddBws-140" value="Nombre" style="ellipse;whiteSpace=wrap;html=1;" parent="YcdxmWCueC0W0oyNS2-Q-3" vertex="1">
          <mxGeometry x="86" y="65" width="70" height="45" as="geometry" />
        </mxCell>
        <mxCell id="p_nJ_jK38WjMyXfddBws-143" value="amAlumn" style="ellipse;whiteSpace=wrap;html=1;" parent="YcdxmWCueC0W0oyNS2-Q-3" vertex="1">
          <mxGeometry x="86" width="70" height="45" as="geometry" />
        </mxCell>
        <mxCell id="p_nJ_jK38WjMyXfddBws-144" value="CURPAlumn" style="ellipse;whiteSpace=wrap;html=1;" parent="YcdxmWCueC0W0oyNS2-Q-3" vertex="1">
          <mxGeometry x="6" y="175" width="80" height="45" as="geometry" />
        </mxCell>
        <mxCell id="p_nJ_jK38WjMyXfddBws-145" value="edadAlumn" style="ellipse;whiteSpace=wrap;html=1;" parent="YcdxmWCueC0W0oyNS2-Q-3" vertex="1">
          <mxGeometry x="30" y="230" width="70" height="45" as="geometry" />
        </mxCell>
        <mxCell id="p_nJ_jK38WjMyXfddBws-153" value="especialidad" style="ellipse;whiteSpace=wrap;html=1;" parent="YcdxmWCueC0W0oyNS2-Q-3" vertex="1">
          <mxGeometry x="396" y="20" width="84" height="45" as="geometry" />
        </mxCell>
        <mxCell id="p_nJ_jK38WjMyXfddBws-154" value="semestre" style="ellipse;whiteSpace=wrap;html=1;" parent="YcdxmWCueC0W0oyNS2-Q-3" vertex="1">
          <mxGeometry x="300" y="20" width="70" height="45" as="geometry" />
        </mxCell>
        <mxCell id="p_nJ_jK38WjMyXfddBws-156" value="numTelfAlumn" style="ellipse;whiteSpace=wrap;html=1;" parent="YcdxmWCueC0W0oyNS2-Q-3" vertex="1">
          <mxGeometry x="460" y="65" width="120" height="45" as="geometry" />
        </mxCell>
        <mxCell id="p_nJ_jK38WjMyXfddBws-157" value="Contacto" style="ellipse;whiteSpace=wrap;html=1;" parent="YcdxmWCueC0W0oyNS2-Q-3" vertex="1">
          <mxGeometry x="370" y="95" width="80" height="45" as="geometry" />
        </mxCell>
        <mxCell id="p_nJ_jK38WjMyXfddBws-159" value="" style="endArrow=none;html=1;rounded=0;" parent="YcdxmWCueC0W0oyNS2-Q-3" source="p_nJ_jK38WjMyXfddBws-157" target="p_nJ_jK38WjMyXfddBws-156" edge="1">
          <mxGeometry width="50" height="50" relative="1" as="geometry">
            <mxPoint x="444" y="168" as="sourcePoint" />
            <mxPoint x="488" y="160" as="targetPoint" />
          </mxGeometry>
        </mxCell>
        <mxCell id="p_nJ_jK38WjMyXfddBws-162" value="" style="endArrow=none;html=1;rounded=0;" parent="YcdxmWCueC0W0oyNS2-Q-3" source="p_nJ_jK38WjMyXfddBws-5" target="p_nJ_jK38WjMyXfddBws-157" edge="1">
          <mxGeometry width="50" height="50" relative="1" as="geometry">
            <mxPoint x="296" y="165" as="sourcePoint" />
            <mxPoint x="332" y="221" as="targetPoint" />
          </mxGeometry>
        </mxCell>
        <mxCell id="p_nJ_jK38WjMyXfddBws-163" value="" style="endArrow=none;html=1;rounded=0;" parent="YcdxmWCueC0W0oyNS2-Q-3" source="p_nJ_jK38WjMyXfddBws-5" target="p_nJ_jK38WjMyXfddBws-153" edge="1">
          <mxGeometry width="50" height="50" relative="1" as="geometry">
            <mxPoint x="336" y="164" as="sourcePoint" />
            <mxPoint x="406" y="198" as="targetPoint" />
          </mxGeometry>
        </mxCell>
        <mxCell id="p_nJ_jK38WjMyXfddBws-164" value="" style="endArrow=none;html=1;rounded=0;" parent="YcdxmWCueC0W0oyNS2-Q-3" source="p_nJ_jK38WjMyXfddBws-5" target="p_nJ_jK38WjMyXfddBws-154" edge="1">
          <mxGeometry width="50" height="50" relative="1" as="geometry">
            <mxPoint x="336" y="129" as="sourcePoint" />
            <mxPoint x="406" y="121" as="targetPoint" />
          </mxGeometry>
        </mxCell>
        <mxCell id="p_nJ_jK38WjMyXfddBws-165" value="" style="endArrow=none;html=1;rounded=0;" parent="YcdxmWCueC0W0oyNS2-Q-3" source="p_nJ_jK38WjMyXfddBws-5" target="p_nJ_jK38WjMyXfddBws-140" edge="1">
          <mxGeometry width="50" height="50" relative="1" as="geometry">
            <mxPoint x="328" y="105" as="sourcePoint" />
            <mxPoint x="385" y="72" as="targetPoint" />
          </mxGeometry>
        </mxCell>
        <mxCell id="p_nJ_jK38WjMyXfddBws-167" value="" style="endArrow=none;html=1;rounded=0;" parent="YcdxmWCueC0W0oyNS2-Q-3" source="p_nJ_jK38WjMyXfddBws-140" target="p_nJ_jK38WjMyXfddBws-143" edge="1">
          <mxGeometry width="50" height="50" relative="1" as="geometry">
            <mxPoint x="326" y="26" as="sourcePoint" />
            <mxPoint x="334" y="9" as="targetPoint" />
          </mxGeometry>
        </mxCell>
        <mxCell id="p_nJ_jK38WjMyXfddBws-169" value="" style="endArrow=none;html=1;rounded=0;" parent="YcdxmWCueC0W0oyNS2-Q-3" source="p_nJ_jK38WjMyXfddBws-139" target="p_nJ_jK38WjMyXfddBws-5" edge="1">
          <mxGeometry width="50" height="50" relative="1" as="geometry">
            <mxPoint x="222" y="-5" as="sourcePoint" />
            <mxPoint x="250" y="19" as="targetPoint" />
          </mxGeometry>
        </mxCell>
        <mxCell id="p_nJ_jK38WjMyXfddBws-170" value="" style="endArrow=none;html=1;rounded=0;" parent="YcdxmWCueC0W0oyNS2-Q-3" source="p_nJ_jK38WjMyXfddBws-144" target="p_nJ_jK38WjMyXfddBws-5" edge="1">
          <mxGeometry width="50" height="50" relative="1" as="geometry">
            <mxPoint x="176" y="73" as="sourcePoint" />
            <mxPoint x="228" y="105" as="targetPoint" />
          </mxGeometry>
        </mxCell>
        <mxCell id="p_nJ_jK38WjMyXfddBws-171" value="" style="endArrow=none;html=1;rounded=0;" parent="YcdxmWCueC0W0oyNS2-Q-3" source="p_nJ_jK38WjMyXfddBws-145" target="p_nJ_jK38WjMyXfddBws-5" edge="1">
          <mxGeometry width="50" height="50" relative="1" as="geometry">
            <mxPoint x="181" y="132" as="sourcePoint" />
            <mxPoint x="238" y="115" as="targetPoint" />
          </mxGeometry>
        </mxCell>
        <mxCell id="o6FvsHjwkwFCM-Jpp8p4-1" value="localidadAlumn" style="ellipse;whiteSpace=wrap;html=1;" parent="YcdxmWCueC0W0oyNS2-Q-3" vertex="1">
          <mxGeometry x="110" y="220" width="100" height="45" as="geometry" />
        </mxCell>
        <mxCell id="o6FvsHjwkwFCM-Jpp8p4-2" value="" style="endArrow=none;html=1;rounded=0;" parent="YcdxmWCueC0W0oyNS2-Q-3" source="o6FvsHjwkwFCM-Jpp8p4-1" target="p_nJ_jK38WjMyXfddBws-5" edge="1">
          <mxGeometry width="50" height="50" relative="1" as="geometry">
            <mxPoint x="117" y="265" as="sourcePoint" />
            <mxPoint x="250" y="165" as="targetPoint" />
          </mxGeometry>
        </mxCell>
        <mxCell id="o6FvsHjwkwFCM-Jpp8p4-3" value="generoAlumn" style="ellipse;whiteSpace=wrap;html=1;" parent="YcdxmWCueC0W0oyNS2-Q-3" vertex="1">
          <mxGeometry x="380" y="205" width="90" height="45" as="geometry" />
        </mxCell>
        <mxCell id="o6FvsHjwkwFCM-Jpp8p4-4" value="" style="endArrow=none;html=1;rounded=0;" parent="YcdxmWCueC0W0oyNS2-Q-3" source="p_nJ_jK38WjMyXfddBws-5" target="o6FvsHjwkwFCM-Jpp8p4-3" edge="1">
          <mxGeometry width="50" height="50" relative="1" as="geometry">
            <mxPoint x="319" y="165" as="sourcePoint" />
            <mxPoint x="368" y="199" as="targetPoint" />
          </mxGeometry>
        </mxCell>
        <mxCell id="o6FvsHjwkwFCM-Jpp8p4-6" value="creditosAcum" style="ellipse;whiteSpace=wrap;html=1;" parent="YcdxmWCueC0W0oyNS2-Q-3" vertex="1">
          <mxGeometry x="365" y="150" width="90" height="45" as="geometry" />
        </mxCell>
        <mxCell id="o6FvsHjwkwFCM-Jpp8p4-7" value="" style="endArrow=none;html=1;rounded=0;" parent="YcdxmWCueC0W0oyNS2-Q-3" source="p_nJ_jK38WjMyXfddBws-5" target="o6FvsHjwkwFCM-Jpp8p4-6" edge="1">
          <mxGeometry width="50" height="50" relative="1" as="geometry">
            <mxPoint x="287" y="165" as="sourcePoint" />
            <mxPoint x="302" y="205" as="targetPoint" />
          </mxGeometry>
        </mxCell>
        <mxCell id="o6FvsHjwkwFCM-Jpp8p4-29" value="Alumno" style="whiteSpace=wrap;html=1;" parent="YcdxmWCueC0W0oyNS2-Q-3" vertex="1">
          <mxGeometry x="218" y="102.5" width="96" height="45" as="geometry" />
        </mxCell>
        <mxCell id="o6FvsHjwkwFCM-Jpp8p4-37" value="codUserAlumn" style="ellipse;whiteSpace=wrap;html=1;fontStyle=5" parent="YcdxmWCueC0W0oyNS2-Q-3" vertex="1">
          <mxGeometry x="280" y="210" width="90" height="40" as="geometry" />
        </mxCell>
        <mxCell id="o6FvsHjwkwFCM-Jpp8p4-38" value="" style="endArrow=none;html=1;rounded=0;" parent="YcdxmWCueC0W0oyNS2-Q-3" source="p_nJ_jK38WjMyXfddBws-5" target="o6FvsHjwkwFCM-Jpp8p4-37" edge="1">
          <mxGeometry width="50" height="50" relative="1" as="geometry">
            <mxPoint x="323" y="165" as="sourcePoint" />
            <mxPoint x="407" y="220" as="targetPoint" />
          </mxGeometry>
        </mxCell>
        <mxCell id="YcdxmWCueC0W0oyNS2-Q-1" value="foto" style="ellipse;whiteSpace=wrap;html=1;" parent="YcdxmWCueC0W0oyNS2-Q-3" vertex="1">
          <mxGeometry x="190" y="22.5" width="55" height="45" as="geometry" />
        </mxCell>
        <mxCell id="YcdxmWCueC0W0oyNS2-Q-2" value="" style="endArrow=none;html=1;rounded=0;" parent="YcdxmWCueC0W0oyNS2-Q-3" source="p_nJ_jK38WjMyXfddBws-5" target="YcdxmWCueC0W0oyNS2-Q-1" edge="1">
          <mxGeometry width="50" height="50" relative="1" as="geometry">
            <mxPoint x="301" y="105" as="sourcePoint" />
            <mxPoint x="328" y="72" as="targetPoint" />
          </mxGeometry>
        </mxCell>
        <mxCell id="YcdxmWCueC0W0oyNS2-Q-8" value="Tener" style="rhombus;whiteSpace=wrap;html=1;" parent="1" vertex="1">
          <mxGeometry x="-700" y="635" width="80" height="80" as="geometry" />
        </mxCell>
        <mxCell id="YcdxmWCueC0W0oyNS2-Q-10" value="Estado de Verificacion" style="whiteSpace=wrap;html=1;" parent="1" vertex="1">
          <mxGeometry x="-800" y="750" width="100" height="60" as="geometry" />
        </mxCell>
        <mxCell id="YcdxmWCueC0W0oyNS2-Q-11" value="RELACION Dependencia - Estado de Verificacion" style="shape=table;startSize=30;container=1;collapsible=0;childLayout=tableLayout;fontStyle=1;align=center;" parent="1" vertex="1">
          <mxGeometry x="-1340" y="720" width="301.5" height="150" as="geometry" />
        </mxCell>
        <mxCell id="YcdxmWCueC0W0oyNS2-Q-12" value="" style="shape=tableRow;horizontal=0;startSize=0;swimlaneHead=0;swimlaneBody=0;top=0;left=0;bottom=0;right=0;collapsible=0;dropTarget=0;fillColor=none;points=[[0,0.5],[1,0.5]];portConstraint=eastwest;" parent="YcdxmWCueC0W0oyNS2-Q-11" vertex="1">
          <mxGeometry y="30" width="301.5" height="40" as="geometry" />
        </mxCell>
        <mxCell id="YcdxmWCueC0W0oyNS2-Q-13" value="1 Dependencia" style="shape=partialRectangle;html=1;whiteSpace=wrap;connectable=0;fillColor=none;top=0;left=0;bottom=0;right=0;overflow=hidden;" parent="YcdxmWCueC0W0oyNS2-Q-12" vertex="1">
          <mxGeometry width="100" height="40" as="geometry">
            <mxRectangle width="100" height="40" as="alternateBounds" />
          </mxGeometry>
        </mxCell>
        <mxCell id="YcdxmWCueC0W0oyNS2-Q-14" value="Tiene" style="shape=partialRectangle;html=1;whiteSpace=wrap;connectable=0;fillColor=none;top=0;left=0;bottom=0;right=0;overflow=hidden;" parent="YcdxmWCueC0W0oyNS2-Q-12" vertex="1">
          <mxGeometry x="100" width="50" height="40" as="geometry">
            <mxRectangle width="50" height="40" as="alternateBounds" />
          </mxGeometry>
        </mxCell>
        <mxCell id="YcdxmWCueC0W0oyNS2-Q-15" value="M Estados de Verificacion" style="shape=partialRectangle;html=1;whiteSpace=wrap;connectable=0;fillColor=none;top=0;left=0;bottom=0;right=0;overflow=hidden;" parent="YcdxmWCueC0W0oyNS2-Q-12" vertex="1">
          <mxGeometry x="150" width="152" height="40" as="geometry">
            <mxRectangle width="152" height="40" as="alternateBounds" />
          </mxGeometry>
        </mxCell>
        <mxCell id="YcdxmWCueC0W0oyNS2-Q-16" value="" style="shape=tableRow;horizontal=0;startSize=0;swimlaneHead=0;swimlaneBody=0;top=0;left=0;bottom=0;right=0;collapsible=0;dropTarget=0;fillColor=none;points=[[0,0.5],[1,0.5]];portConstraint=eastwest;" parent="YcdxmWCueC0W0oyNS2-Q-11" vertex="1">
          <mxGeometry y="70" width="301.5" height="40" as="geometry" />
        </mxCell>
        <mxCell id="YcdxmWCueC0W0oyNS2-Q-17" value="M Dependencias" style="shape=partialRectangle;html=1;whiteSpace=wrap;connectable=0;fillColor=none;top=0;left=0;bottom=0;right=0;overflow=hidden;" parent="YcdxmWCueC0W0oyNS2-Q-16" vertex="1">
          <mxGeometry width="100" height="40" as="geometry">
            <mxRectangle width="100" height="40" as="alternateBounds" />
          </mxGeometry>
        </mxCell>
        <mxCell id="YcdxmWCueC0W0oyNS2-Q-18" value="Tenido" style="shape=partialRectangle;html=1;whiteSpace=wrap;connectable=0;fillColor=none;top=0;left=0;bottom=0;right=0;overflow=hidden;" parent="YcdxmWCueC0W0oyNS2-Q-16" vertex="1">
          <mxGeometry x="100" width="50" height="40" as="geometry">
            <mxRectangle width="50" height="40" as="alternateBounds" />
          </mxGeometry>
        </mxCell>
        <mxCell id="YcdxmWCueC0W0oyNS2-Q-19" value="1 Estado de Verificacion" style="shape=partialRectangle;html=1;whiteSpace=wrap;connectable=0;fillColor=none;top=0;left=0;bottom=0;right=0;overflow=hidden;" parent="YcdxmWCueC0W0oyNS2-Q-16" vertex="1">
          <mxGeometry x="150" width="152" height="40" as="geometry">
            <mxRectangle width="152" height="40" as="alternateBounds" />
          </mxGeometry>
        </mxCell>
        <mxCell id="YcdxmWCueC0W0oyNS2-Q-20" value="" style="shape=tableRow;horizontal=0;startSize=0;swimlaneHead=0;swimlaneBody=0;top=0;left=0;bottom=0;right=0;collapsible=0;dropTarget=0;fillColor=none;points=[[0,0.5],[1,0.5]];portConstraint=eastwest;" parent="YcdxmWCueC0W0oyNS2-Q-11" vertex="1">
          <mxGeometry y="110" width="301.5" height="40" as="geometry" />
        </mxCell>
        <mxCell id="YcdxmWCueC0W0oyNS2-Q-21" value="M" style="shape=partialRectangle;html=1;whiteSpace=wrap;connectable=0;fillColor=none;top=0;left=0;bottom=0;right=0;overflow=hidden;" parent="YcdxmWCueC0W0oyNS2-Q-20" vertex="1">
          <mxGeometry width="100" height="40" as="geometry">
            <mxRectangle width="100" height="40" as="alternateBounds" />
          </mxGeometry>
        </mxCell>
        <mxCell id="YcdxmWCueC0W0oyNS2-Q-22" value="" style="shape=partialRectangle;html=1;whiteSpace=wrap;connectable=0;fillColor=none;top=0;left=0;bottom=0;right=0;overflow=hidden;" parent="YcdxmWCueC0W0oyNS2-Q-20" vertex="1">
          <mxGeometry x="100" width="50" height="40" as="geometry">
            <mxRectangle width="50" height="40" as="alternateBounds" />
          </mxGeometry>
        </mxCell>
        <mxCell id="YcdxmWCueC0W0oyNS2-Q-23" value="M" style="shape=partialRectangle;html=1;whiteSpace=wrap;connectable=0;fillColor=none;top=0;left=0;bottom=0;right=0;overflow=hidden;" parent="YcdxmWCueC0W0oyNS2-Q-20" vertex="1">
          <mxGeometry x="150" width="152" height="40" as="geometry">
            <mxRectangle width="152" height="40" as="alternateBounds" />
          </mxGeometry>
        </mxCell>
        <mxCell id="YcdxmWCueC0W0oyNS2-Q-24" value="" style="endArrow=none;html=1;rounded=0;" parent="1" source="p_nJ_jK38WjMyXfddBws-1" target="YcdxmWCueC0W0oyNS2-Q-8" edge="1">
          <mxGeometry width="50" height="50" relative="1" as="geometry">
            <mxPoint x="-430" y="635" as="sourcePoint" />
            <mxPoint x="-340" y="674" as="targetPoint" />
            <Array as="points">
              <mxPoint x="-590" y="610" />
            </Array>
          </mxGeometry>
        </mxCell>
        <mxCell id="YcdxmWCueC0W0oyNS2-Q-25" value="M" style="edgeLabel;html=1;align=center;verticalAlign=middle;resizable=0;points=[];fontSize=16;fontStyle=1" parent="YcdxmWCueC0W0oyNS2-Q-24" vertex="1" connectable="0">
          <mxGeometry x="0.374" y="2" relative="1" as="geometry">
            <mxPoint x="7" y="-43" as="offset" />
          </mxGeometry>
        </mxCell>
        <mxCell id="YcdxmWCueC0W0oyNS2-Q-26" value="" style="endArrow=none;html=1;rounded=0;" parent="1" source="YcdxmWCueC0W0oyNS2-Q-8" target="YcdxmWCueC0W0oyNS2-Q-10" edge="1">
          <mxGeometry width="50" height="50" relative="1" as="geometry">
            <mxPoint x="-420" y="645" as="sourcePoint" />
            <mxPoint x="-330" y="684" as="targetPoint" />
          </mxGeometry>
        </mxCell>
        <mxCell id="YcdxmWCueC0W0oyNS2-Q-27" value="M" style="edgeLabel;html=1;align=center;verticalAlign=middle;resizable=0;points=[];fontSize=16;fontStyle=1" parent="YcdxmWCueC0W0oyNS2-Q-26" vertex="1" connectable="0">
          <mxGeometry x="0.374" y="2" relative="1" as="geometry">
            <mxPoint x="14" y="-13" as="offset" />
          </mxGeometry>
        </mxCell>
        <mxCell id="YcdxmWCueC0W0oyNS2-Q-28" value="idEstado" style="ellipse;whiteSpace=wrap;html=1;fontStyle=5" parent="1" vertex="1">
          <mxGeometry x="-900" y="765" width="70" height="45" as="geometry" />
        </mxCell>
        <mxCell id="YcdxmWCueC0W0oyNS2-Q-29" value="nomEstado" style="ellipse;whiteSpace=wrap;html=1;" parent="1" vertex="1">
          <mxGeometry x="-900" y="825" width="90" height="45" as="geometry" />
        </mxCell>
        <mxCell id="YcdxmWCueC0W0oyNS2-Q-34" value="" style="endArrow=none;html=1;rounded=0;" parent="1" source="YcdxmWCueC0W0oyNS2-Q-10" target="YcdxmWCueC0W0oyNS2-Q-28" edge="1">
          <mxGeometry width="50" height="50" relative="1" as="geometry">
            <mxPoint x="-460" y="503" as="sourcePoint" />
            <mxPoint x="-509" y="468" as="targetPoint" />
          </mxGeometry>
        </mxCell>
        <mxCell id="YcdxmWCueC0W0oyNS2-Q-36" value="" style="endArrow=none;html=1;rounded=0;" parent="1" source="YcdxmWCueC0W0oyNS2-Q-10" target="YcdxmWCueC0W0oyNS2-Q-29" edge="1">
          <mxGeometry width="50" height="50" relative="1" as="geometry">
            <mxPoint x="-749" y="770" as="sourcePoint" />
            <mxPoint x="-759" y="753" as="targetPoint" />
          </mxGeometry>
        </mxCell>
        <mxCell id="YcdxmWCueC0W0oyNS2-Q-40" value="Fecha de Actualizacion" style="ellipse;whiteSpace=wrap;html=1;" parent="1" vertex="1">
          <mxGeometry x="-660" y="730" width="100" height="45" as="geometry" />
        </mxCell>
        <mxCell id="YcdxmWCueC0W0oyNS2-Q-41" value="dia" style="ellipse;whiteSpace=wrap;html=1;" parent="1" vertex="1">
          <mxGeometry x="-540" y="760" width="50" height="45" as="geometry" />
        </mxCell>
        <mxCell id="YcdxmWCueC0W0oyNS2-Q-42" value="mes" style="ellipse;whiteSpace=wrap;html=1;" parent="1" vertex="1">
          <mxGeometry x="-590" y="795" width="50" height="45" as="geometry" />
        </mxCell>
        <mxCell id="YcdxmWCueC0W0oyNS2-Q-43" value="aÃ±o" style="ellipse;whiteSpace=wrap;html=1;" parent="1" vertex="1">
          <mxGeometry x="-660" y="795" width="50" height="45" as="geometry" />
        </mxCell>
        <mxCell id="YcdxmWCueC0W0oyNS2-Q-44" value="" style="endArrow=none;html=1;rounded=0;" parent="1" source="YcdxmWCueC0W0oyNS2-Q-40" target="YcdxmWCueC0W0oyNS2-Q-41" edge="1">
          <mxGeometry width="50" height="50" relative="1" as="geometry">
            <mxPoint x="-531" y="613" as="sourcePoint" />
            <mxPoint x="-485" y="621" as="targetPoint" />
          </mxGeometry>
        </mxCell>
        <mxCell id="YcdxmWCueC0W0oyNS2-Q-45" value="" style="endArrow=none;html=1;rounded=0;" parent="1" source="YcdxmWCueC0W0oyNS2-Q-40" target="YcdxmWCueC0W0oyNS2-Q-42" edge="1">
          <mxGeometry width="50" height="50" relative="1" as="geometry">
            <mxPoint x="-522" y="756" as="sourcePoint" />
            <mxPoint x="-500" y="751" as="targetPoint" />
          </mxGeometry>
        </mxCell>
        <mxCell id="YcdxmWCueC0W0oyNS2-Q-46" value="" style="endArrow=none;html=1;rounded=0;" parent="1" source="YcdxmWCueC0W0oyNS2-Q-40" target="YcdxmWCueC0W0oyNS2-Q-43" edge="1">
          <mxGeometry width="50" height="50" relative="1" as="geometry">
            <mxPoint x="-530" y="776" as="sourcePoint" />
            <mxPoint x="-508" y="784" as="targetPoint" />
          </mxGeometry>
        </mxCell>
        <mxCell id="YcdxmWCueC0W0oyNS2-Q-54" value="" style="endArrow=none;html=1;rounded=0;" parent="1" source="YcdxmWCueC0W0oyNS2-Q-8" target="YcdxmWCueC0W0oyNS2-Q-40" edge="1">
          <mxGeometry width="50" height="50" relative="1" as="geometry">
            <mxPoint x="-588" y="784" as="sourcePoint" />
            <mxPoint x="-576" y="807" as="targetPoint" />
          </mxGeometry>
        </mxCell>
        <mxCell id="YcdxmWCueC0W0oyNS2-Q-56" value="RELACION Dependencia - Convenio" style="shape=table;startSize=30;container=1;collapsible=0;childLayout=tableLayout;fontStyle=1;align=center;" parent="1" vertex="1">
          <mxGeometry x="-1667.25" y="565" width="301.5" height="150" as="geometry" />
        </mxCell>
        <mxCell id="YcdxmWCueC0W0oyNS2-Q-57" value="" style="shape=tableRow;horizontal=0;startSize=0;swimlaneHead=0;swimlaneBody=0;top=0;left=0;bottom=0;right=0;collapsible=0;dropTarget=0;fillColor=none;points=[[0,0.5],[1,0.5]];portConstraint=eastwest;" parent="YcdxmWCueC0W0oyNS2-Q-56" vertex="1">
          <mxGeometry y="30" width="301.5" height="40" as="geometry" />
        </mxCell>
        <mxCell id="YcdxmWCueC0W0oyNS2-Q-58" value="1 Dependencia" style="shape=partialRectangle;html=1;whiteSpace=wrap;connectable=0;fillColor=none;top=0;left=0;bottom=0;right=0;overflow=hidden;" parent="YcdxmWCueC0W0oyNS2-Q-57" vertex="1">
          <mxGeometry width="100" height="40" as="geometry">
            <mxRectangle width="100" height="40" as="alternateBounds" />
          </mxGeometry>
        </mxCell>
        <mxCell id="YcdxmWCueC0W0oyNS2-Q-59" value="Solicita" style="shape=partialRectangle;html=1;whiteSpace=wrap;connectable=0;fillColor=none;top=0;left=0;bottom=0;right=0;overflow=hidden;" parent="YcdxmWCueC0W0oyNS2-Q-57" vertex="1">
          <mxGeometry x="100" width="77" height="40" as="geometry">
            <mxRectangle width="77" height="40" as="alternateBounds" />
          </mxGeometry>
        </mxCell>
        <mxCell id="YcdxmWCueC0W0oyNS2-Q-60" value="1 Convenio" style="shape=partialRectangle;html=1;whiteSpace=wrap;connectable=0;fillColor=none;top=0;left=0;bottom=0;right=0;overflow=hidden;" parent="YcdxmWCueC0W0oyNS2-Q-57" vertex="1">
          <mxGeometry x="177" width="125" height="40" as="geometry">
            <mxRectangle width="125" height="40" as="alternateBounds" />
          </mxGeometry>
        </mxCell>
        <mxCell id="YcdxmWCueC0W0oyNS2-Q-61" value="" style="shape=tableRow;horizontal=0;startSize=0;swimlaneHead=0;swimlaneBody=0;top=0;left=0;bottom=0;right=0;collapsible=0;dropTarget=0;fillColor=none;points=[[0,0.5],[1,0.5]];portConstraint=eastwest;" parent="YcdxmWCueC0W0oyNS2-Q-56" vertex="1">
          <mxGeometry y="70" width="301.5" height="40" as="geometry" />
        </mxCell>
        <mxCell id="YcdxmWCueC0W0oyNS2-Q-62" value="1 Dependencia" style="shape=partialRectangle;html=1;whiteSpace=wrap;connectable=0;fillColor=none;top=0;left=0;bottom=0;right=0;overflow=hidden;" parent="YcdxmWCueC0W0oyNS2-Q-61" vertex="1">
          <mxGeometry width="100" height="40" as="geometry">
            <mxRectangle width="100" height="40" as="alternateBounds" />
          </mxGeometry>
        </mxCell>
        <mxCell id="YcdxmWCueC0W0oyNS2-Q-63" value="Solictado" style="shape=partialRectangle;html=1;whiteSpace=wrap;connectable=0;fillColor=none;top=0;left=0;bottom=0;right=0;overflow=hidden;" parent="YcdxmWCueC0W0oyNS2-Q-61" vertex="1">
          <mxGeometry x="100" width="77" height="40" as="geometry">
            <mxRectangle width="77" height="40" as="alternateBounds" />
          </mxGeometry>
        </mxCell>
        <mxCell id="YcdxmWCueC0W0oyNS2-Q-64" value="1 Convenio" style="shape=partialRectangle;html=1;whiteSpace=wrap;connectable=0;fillColor=none;top=0;left=0;bottom=0;right=0;overflow=hidden;" parent="YcdxmWCueC0W0oyNS2-Q-61" vertex="1">
          <mxGeometry x="177" width="125" height="40" as="geometry">
            <mxRectangle width="125" height="40" as="alternateBounds" />
          </mxGeometry>
        </mxCell>
        <mxCell id="YcdxmWCueC0W0oyNS2-Q-65" value="" style="shape=tableRow;horizontal=0;startSize=0;swimlaneHead=0;swimlaneBody=0;top=0;left=0;bottom=0;right=0;collapsible=0;dropTarget=0;fillColor=none;points=[[0,0.5],[1,0.5]];portConstraint=eastwest;" parent="YcdxmWCueC0W0oyNS2-Q-56" vertex="1">
          <mxGeometry y="110" width="301.5" height="40" as="geometry" />
        </mxCell>
        <mxCell id="YcdxmWCueC0W0oyNS2-Q-66" value="1" style="shape=partialRectangle;html=1;whiteSpace=wrap;connectable=0;fillColor=none;top=0;left=0;bottom=0;right=0;overflow=hidden;" parent="YcdxmWCueC0W0oyNS2-Q-65" vertex="1">
          <mxGeometry width="100" height="40" as="geometry">
            <mxRectangle width="100" height="40" as="alternateBounds" />
          </mxGeometry>
        </mxCell>
        <mxCell id="YcdxmWCueC0W0oyNS2-Q-67" value="" style="shape=partialRectangle;html=1;whiteSpace=wrap;connectable=0;fillColor=none;top=0;left=0;bottom=0;right=0;overflow=hidden;" parent="YcdxmWCueC0W0oyNS2-Q-65" vertex="1">
          <mxGeometry x="100" width="77" height="40" as="geometry">
            <mxRectangle width="77" height="40" as="alternateBounds" />
          </mxGeometry>
        </mxCell>
        <mxCell id="YcdxmWCueC0W0oyNS2-Q-68" value="1" style="shape=partialRectangle;html=1;whiteSpace=wrap;connectable=0;fillColor=none;top=0;left=0;bottom=0;right=0;overflow=hidden;" parent="YcdxmWCueC0W0oyNS2-Q-65" vertex="1">
          <mxGeometry x="177" width="125" height="40" as="geometry">
            <mxRectangle width="125" height="40" as="alternateBounds" />
          </mxGeometry>
        </mxCell>
        <mxCell id="YcdxmWCueC0W0oyNS2-Q-70" value="razonRech" style="ellipse;whiteSpace=wrap;html=1;" parent="1" vertex="1">
          <mxGeometry x="-785" y="610" width="70" height="45" as="geometry" />
        </mxCell>
        <mxCell id="YcdxmWCueC0W0oyNS2-Q-71" value="" style="endArrow=none;html=1;rounded=0;" parent="1" source="YcdxmWCueC0W0oyNS2-Q-70" target="YcdxmWCueC0W0oyNS2-Q-8" edge="1">
          <mxGeometry width="50" height="50" relative="1" as="geometry">
            <mxPoint x="-780" y="740" as="sourcePoint" />
            <mxPoint x="-730" y="690" as="targetPoint" />
          </mxGeometry>
        </mxCell>
        <mxCell id="YcdxmWCueC0W0oyNS2-Q-72" value="porcentaje" style="ellipse;whiteSpace=wrap;html=1;" parent="1" vertex="1">
          <mxGeometry x="-827" y="660" width="70" height="45" as="geometry" />
        </mxCell>
        <mxCell id="YcdxmWCueC0W0oyNS2-Q-73" value="" style="endArrow=none;html=1;rounded=0;" parent="1" source="YcdxmWCueC0W0oyNS2-Q-72" target="YcdxmWCueC0W0oyNS2-Q-8" edge="1">
          <mxGeometry width="50" height="50" relative="1" as="geometry">
            <mxPoint x="-712" y="656" as="sourcePoint" />
            <mxPoint x="-677" y="672" as="targetPoint" />
          </mxGeometry>
        </mxCell>
        <mxCell id="XwdcLDCgWFUgalhg00Dl-121" value="" style="group" parent="1" vertex="1" connectable="0">
          <mxGeometry x="550" y="-340" width="1360" height="800" as="geometry" />
        </mxCell>
        <mxCell id="p_nJ_jK38WjMyXfddBws-7" value="Documento" style="whiteSpace=wrap;html=1;" parent="XwdcLDCgWFUgalhg00Dl-121" vertex="1">
          <mxGeometry x="119.5" y="415" width="120" height="60" as="geometry" />
        </mxCell>
        <mxCell id="p_nJ_jK38WjMyXfddBws-252" value="tipoDocument" style="ellipse;whiteSpace=wrap;html=1;" parent="XwdcLDCgWFUgalhg00Dl-121" vertex="1">
          <mxGeometry x="80" y="337.5" width="90" height="45" as="geometry" />
        </mxCell>
        <mxCell id="p_nJ_jK38WjMyXfddBws-253" value="descDocument" style="ellipse;whiteSpace=wrap;html=1;" parent="XwdcLDCgWFUgalhg00Dl-121" vertex="1">
          <mxGeometry x="18" y="485" width="90" height="45" as="geometry" />
        </mxCell>
        <mxCell id="p_nJ_jK38WjMyXfddBws-271" value="" style="endArrow=none;html=1;rounded=0;" parent="XwdcLDCgWFUgalhg00Dl-121" source="p_nJ_jK38WjMyXfddBws-253" target="p_nJ_jK38WjMyXfddBws-7" edge="1">
          <mxGeometry width="50" height="50" relative="1" as="geometry">
            <mxPoint x="69.5" y="495" as="sourcePoint" />
            <mxPoint x="119.5" y="445" as="targetPoint" />
          </mxGeometry>
        </mxCell>
        <mxCell id="p_nJ_jK38WjMyXfddBws-276" value="" style="endArrow=none;html=1;rounded=0;" parent="XwdcLDCgWFUgalhg00Dl-121" source="p_nJ_jK38WjMyXfddBws-7" target="p_nJ_jK38WjMyXfddBws-252" edge="1">
          <mxGeometry width="50" height="50" relative="1" as="geometry">
            <mxPoint x="160.5" y="425" as="sourcePoint" />
            <mxPoint x="132.5" y="397" as="targetPoint" />
          </mxGeometry>
        </mxCell>
        <mxCell id="p_nJ_jK38WjMyXfddBws-262" value="Fecha de Entrega" style="ellipse;whiteSpace=wrap;html=1;" parent="XwdcLDCgWFUgalhg00Dl-121" vertex="1">
          <mxGeometry x="180" y="325" width="100" height="45" as="geometry" />
        </mxCell>
        <mxCell id="p_nJ_jK38WjMyXfddBws-263" value="dia" style="ellipse;whiteSpace=wrap;html=1;" parent="XwdcLDCgWFUgalhg00Dl-121" vertex="1">
          <mxGeometry x="250" y="265" width="50" height="45" as="geometry" />
        </mxCell>
        <mxCell id="p_nJ_jK38WjMyXfddBws-264" value="mes" style="ellipse;whiteSpace=wrap;html=1;" parent="XwdcLDCgWFUgalhg00Dl-121" vertex="1">
          <mxGeometry x="180" y="265" width="50" height="45" as="geometry" />
        </mxCell>
        <mxCell id="p_nJ_jK38WjMyXfddBws-266" value="" style="endArrow=none;html=1;rounded=0;" parent="XwdcLDCgWFUgalhg00Dl-121" source="p_nJ_jK38WjMyXfddBws-262" target="p_nJ_jK38WjMyXfddBws-263" edge="1">
          <mxGeometry width="50" height="50" relative="1" as="geometry">
            <mxPoint x="399" y="220.5" as="sourcePoint" />
            <mxPoint x="445" y="228.5" as="targetPoint" />
          </mxGeometry>
        </mxCell>
        <mxCell id="p_nJ_jK38WjMyXfddBws-267" value="" style="endArrow=none;html=1;rounded=0;" parent="XwdcLDCgWFUgalhg00Dl-121" source="p_nJ_jK38WjMyXfddBws-262" target="p_nJ_jK38WjMyXfddBws-264" edge="1">
          <mxGeometry width="50" height="50" relative="1" as="geometry">
            <mxPoint x="408" y="363.5" as="sourcePoint" />
            <mxPoint x="430" y="358.5" as="targetPoint" />
          </mxGeometry>
        </mxCell>
        <mxCell id="p_nJ_jK38WjMyXfddBws-273" value="" style="endArrow=none;html=1;rounded=0;" parent="XwdcLDCgWFUgalhg00Dl-121" source="p_nJ_jK38WjMyXfddBws-262" target="p_nJ_jK38WjMyXfddBws-7" edge="1">
          <mxGeometry width="50" height="50" relative="1" as="geometry">
            <mxPoint x="218.5" y="550" as="sourcePoint" />
            <mxPoint x="198.5" y="485" as="targetPoint" />
          </mxGeometry>
        </mxCell>
        <mxCell id="p_nJ_jK38WjMyXfddBws-278" value="IS A" style="triangle;whiteSpace=wrap;html=1;direction=south;" parent="XwdcLDCgWFUgalhg00Dl-121" vertex="1">
          <mxGeometry x="610" y="415" width="80" height="60" as="geometry" />
        </mxCell>
        <mxCell id="p_nJ_jK38WjMyXfddBws-279" value="" style="endArrow=none;html=1;rounded=0;exitX=1;exitY=0.5;exitDx=0;exitDy=0;entryX=0.5;entryY=1;entryDx=0;entryDy=0;" parent="XwdcLDCgWFUgalhg00Dl-121" source="p_nJ_jK38WjMyXfddBws-7" target="p_nJ_jK38WjMyXfddBws-278" edge="1">
          <mxGeometry width="50" height="50" relative="1" as="geometry">
            <mxPoint x="329.5" y="495" as="sourcePoint" />
            <mxPoint x="379.5" y="445" as="targetPoint" />
          </mxGeometry>
        </mxCell>
        <mxCell id="p_nJ_jK38WjMyXfddBws-294" value="idDocumentConv" style="ellipse;whiteSpace=wrap;html=1;fontStyle=5" parent="XwdcLDCgWFUgalhg00Dl-121" vertex="1">
          <mxGeometry x="239.5" width="109" height="30" as="geometry" />
        </mxCell>
        <mxCell id="bqmvGOm5umFCTY7sgf7N-5" value="Documento" style="whiteSpace=wrap;html=1;" parent="XwdcLDCgWFUgalhg00Dl-121" vertex="1">
          <mxGeometry x="119.5" y="415" width="120" height="60" as="geometry" />
        </mxCell>
        <mxCell id="bqmvGOm5umFCTY7sgf7N-6" value="idDocument" style="ellipse;whiteSpace=wrap;html=1;fontStyle=5" parent="XwdcLDCgWFUgalhg00Dl-121" vertex="1">
          <mxGeometry y="360" width="80" height="45" as="geometry" />
        </mxCell>
        <mxCell id="bqmvGOm5umFCTY7sgf7N-19" value="aÃ±o" style="ellipse;whiteSpace=wrap;html=1;" parent="XwdcLDCgWFUgalhg00Dl-121" vertex="1">
          <mxGeometry x="119.5" y="280" width="50" height="45" as="geometry" />
        </mxCell>
        <mxCell id="bqmvGOm5umFCTY7sgf7N-22" value="" style="endArrow=none;html=1;rounded=0;" parent="XwdcLDCgWFUgalhg00Dl-121" source="p_nJ_jK38WjMyXfddBws-262" target="bqmvGOm5umFCTY7sgf7N-19" edge="1">
          <mxGeometry width="50" height="50" relative="1" as="geometry">
            <mxPoint x="383.4398294960729" y="382.29776910236933" as="sourcePoint" />
            <mxPoint x="422" y="391.5" as="targetPoint" />
          </mxGeometry>
        </mxCell>
        <mxCell id="bqmvGOm5umFCTY7sgf7N-28" value="" style="endArrow=none;html=1;rounded=0;" parent="XwdcLDCgWFUgalhg00Dl-121" source="bqmvGOm5umFCTY7sgf7N-5" target="bqmvGOm5umFCTY7sgf7N-6" edge="1">
          <mxGeometry width="50" height="50" relative="1" as="geometry">
            <mxPoint x="298.5" y="390" as="sourcePoint" />
            <mxPoint x="240.5" y="425" as="targetPoint" />
          </mxGeometry>
        </mxCell>
        <mxCell id="XwdcLDCgWFUgalhg00Dl-3" value="" style="group" parent="XwdcLDCgWFUgalhg00Dl-121" vertex="1" connectable="0">
          <mxGeometry x="300" y="660" width="120" height="60" as="geometry" />
        </mxCell>
        <mxCell id="XwdcLDCgWFUgalhg00Dl-1" value="Dependencia" style="whiteSpace=wrap;html=1;" parent="XwdcLDCgWFUgalhg00Dl-3" vertex="1">
          <mxGeometry width="120" height="60" as="geometry" />
        </mxCell>
        <mxCell id="XwdcLDCgWFUgalhg00Dl-2" value="Carta de Presentacion" style="whiteSpace=wrap;html=1;" parent="XwdcLDCgWFUgalhg00Dl-3" vertex="1">
          <mxGeometry x="10" y="5" width="100" height="50" as="geometry" />
        </mxCell>
        <mxCell id="XwdcLDCgWFUgalhg00Dl-4" value="" style="group" parent="XwdcLDCgWFUgalhg00Dl-121" vertex="1" connectable="0">
          <mxGeometry x="440" y="660" width="120" height="60" as="geometry" />
        </mxCell>
        <mxCell id="XwdcLDCgWFUgalhg00Dl-5" value="Dependencia" style="whiteSpace=wrap;html=1;" parent="XwdcLDCgWFUgalhg00Dl-4" vertex="1">
          <mxGeometry width="120" height="60" as="geometry" />
        </mxCell>
        <mxCell id="XwdcLDCgWFUgalhg00Dl-6" value="Constancia de Estudios" style="whiteSpace=wrap;html=1;" parent="XwdcLDCgWFUgalhg00Dl-4" vertex="1">
          <mxGeometry x="10" y="5" width="100" height="50" as="geometry" />
        </mxCell>
        <mxCell id="XwdcLDCgWFUgalhg00Dl-7" value="" style="group" parent="XwdcLDCgWFUgalhg00Dl-121" vertex="1" connectable="0">
          <mxGeometry x="590" y="660" width="120" height="60" as="geometry" />
        </mxCell>
        <mxCell id="XwdcLDCgWFUgalhg00Dl-8" value="Dependencia" style="whiteSpace=wrap;html=1;" parent="XwdcLDCgWFUgalhg00Dl-7" vertex="1">
          <mxGeometry width="120" height="60" as="geometry" />
        </mxCell>
        <mxCell id="XwdcLDCgWFUgalhg00Dl-9" value="Reporte de Actividades" style="whiteSpace=wrap;html=1;" parent="XwdcLDCgWFUgalhg00Dl-7" vertex="1">
          <mxGeometry x="10" y="5" width="100" height="50" as="geometry" />
        </mxCell>
        <mxCell id="XwdcLDCgWFUgalhg00Dl-10" value="" style="group" parent="XwdcLDCgWFUgalhg00Dl-121" vertex="1" connectable="0">
          <mxGeometry x="740" y="660" width="120" height="60" as="geometry" />
        </mxCell>
        <mxCell id="XwdcLDCgWFUgalhg00Dl-11" value="Dependencia" style="whiteSpace=wrap;html=1;" parent="XwdcLDCgWFUgalhg00Dl-10" vertex="1">
          <mxGeometry width="120" height="60" as="geometry" />
        </mxCell>
        <mxCell id="XwdcLDCgWFUgalhg00Dl-12" value="Decretos" style="whiteSpace=wrap;html=1;" parent="XwdcLDCgWFUgalhg00Dl-10" vertex="1">
          <mxGeometry x="10" y="5" width="100" height="50" as="geometry" />
        </mxCell>
        <mxCell id="XwdcLDCgWFUgalhg00Dl-13" value="" style="group" parent="XwdcLDCgWFUgalhg00Dl-121" vertex="1" connectable="0">
          <mxGeometry x="890" y="660" width="120" height="60" as="geometry" />
        </mxCell>
        <mxCell id="XwdcLDCgWFUgalhg00Dl-14" value="Dependencia" style="whiteSpace=wrap;html=1;" parent="XwdcLDCgWFUgalhg00Dl-13" vertex="1">
          <mxGeometry width="120" height="60" as="geometry" />
        </mxCell>
        <mxCell id="XwdcLDCgWFUgalhg00Dl-15" value="Nombramiento del Representante" style="whiteSpace=wrap;html=1;" parent="XwdcLDCgWFUgalhg00Dl-13" vertex="1">
          <mxGeometry x="10" y="5" width="100" height="50" as="geometry" />
        </mxCell>
        <mxCell id="XwdcLDCgWFUgalhg00Dl-16" value="" style="group" parent="XwdcLDCgWFUgalhg00Dl-121" vertex="1" connectable="0">
          <mxGeometry x="1034" y="660" width="120" height="60" as="geometry" />
        </mxCell>
        <mxCell id="XwdcLDCgWFUgalhg00Dl-17" value="Dependencia" style="whiteSpace=wrap;html=1;" parent="XwdcLDCgWFUgalhg00Dl-16" vertex="1">
          <mxGeometry width="120" height="60" as="geometry" />
        </mxCell>
        <mxCell id="XwdcLDCgWFUgalhg00Dl-18" value="Identificacion Oficial del Representante" style="whiteSpace=wrap;html=1;" parent="XwdcLDCgWFUgalhg00Dl-16" vertex="1">
          <mxGeometry x="10" y="5" width="100" height="50" as="geometry" />
        </mxCell>
        <mxCell id="XwdcLDCgWFUgalhg00Dl-19" value="" style="group" parent="XwdcLDCgWFUgalhg00Dl-121" vertex="1" connectable="0">
          <mxGeometry x="1034" y="515" width="120" height="65" as="geometry" />
        </mxCell>
        <mxCell id="XwdcLDCgWFUgalhg00Dl-20" value="Dependencia" style="whiteSpace=wrap;html=1;" parent="XwdcLDCgWFUgalhg00Dl-19" vertex="1">
          <mxGeometry y="46.58333333333333" width="120" height="65" as="geometry" />
        </mxCell>
        <mxCell id="XwdcLDCgWFUgalhg00Dl-21" value="Comprobante de Domicilio" style="whiteSpace=wrap;html=1;" parent="XwdcLDCgWFUgalhg00Dl-19" vertex="1">
          <mxGeometry x="10" y="52" width="100" height="54.166666666666664" as="geometry" />
        </mxCell>
        <mxCell id="XwdcLDCgWFUgalhg00Dl-22" value="" style="group" parent="XwdcLDCgWFUgalhg00Dl-121" vertex="1" connectable="0">
          <mxGeometry x="1034" y="465" width="120" height="60" as="geometry" />
        </mxCell>
        <mxCell id="XwdcLDCgWFUgalhg00Dl-23" value="Dependencia" style="whiteSpace=wrap;html=1;" parent="XwdcLDCgWFUgalhg00Dl-22" vertex="1">
          <mxGeometry width="120" height="60" as="geometry" />
        </mxCell>
        <mxCell id="XwdcLDCgWFUgalhg00Dl-24" value="Registro Federal del Contribuyente" style="whiteSpace=wrap;html=1;" parent="XwdcLDCgWFUgalhg00Dl-22" vertex="1">
          <mxGeometry x="10" y="5" width="100" height="50" as="geometry" />
        </mxCell>
        <mxCell id="XwdcLDCgWFUgalhg00Dl-25" value="" style="group" parent="XwdcLDCgWFUgalhg00Dl-121" vertex="1" connectable="0">
          <mxGeometry x="1034" y="375" width="120" height="60" as="geometry" />
        </mxCell>
        <mxCell id="XwdcLDCgWFUgalhg00Dl-26" value="Dependencia" style="whiteSpace=wrap;html=1;" parent="XwdcLDCgWFUgalhg00Dl-25" vertex="1">
          <mxGeometry width="120" height="60" as="geometry" />
        </mxCell>
        <mxCell id="XwdcLDCgWFUgalhg00Dl-27" value="Carta de Aceptacion" style="whiteSpace=wrap;html=1;" parent="XwdcLDCgWFUgalhg00Dl-25" vertex="1">
          <mxGeometry x="10" y="5" width="100" height="50" as="geometry" />
        </mxCell>
        <mxCell id="XwdcLDCgWFUgalhg00Dl-28" value="" style="group" parent="XwdcLDCgWFUgalhg00Dl-121" vertex="1" connectable="0">
          <mxGeometry x="1034" y="282.5" width="120" height="60" as="geometry" />
        </mxCell>
        <mxCell id="XwdcLDCgWFUgalhg00Dl-29" value="Dependencia" style="whiteSpace=wrap;html=1;" parent="XwdcLDCgWFUgalhg00Dl-28" vertex="1">
          <mxGeometry width="120" height="60" as="geometry" />
        </mxCell>
        <mxCell id="XwdcLDCgWFUgalhg00Dl-30" value="Listado de Actividades" style="whiteSpace=wrap;html=1;" parent="XwdcLDCgWFUgalhg00Dl-28" vertex="1">
          <mxGeometry x="10" y="5" width="100" height="50" as="geometry" />
        </mxCell>
        <mxCell id="XwdcLDCgWFUgalhg00Dl-31" value="" style="group" parent="XwdcLDCgWFUgalhg00Dl-121" vertex="1" connectable="0">
          <mxGeometry x="1034" y="180" width="120" height="60" as="geometry" />
        </mxCell>
        <mxCell id="XwdcLDCgWFUgalhg00Dl-32" value="Dependencia" style="whiteSpace=wrap;html=1;" parent="XwdcLDCgWFUgalhg00Dl-31" vertex="1">
          <mxGeometry width="120" height="60" as="geometry" />
        </mxCell>
        <mxCell id="XwdcLDCgWFUgalhg00Dl-33" value="Honorarios" style="whiteSpace=wrap;html=1;" parent="XwdcLDCgWFUgalhg00Dl-31" vertex="1">
          <mxGeometry x="10" y="5" width="100" height="50" as="geometry" />
        </mxCell>
        <mxCell id="XwdcLDCgWFUgalhg00Dl-34" value="" style="group" parent="XwdcLDCgWFUgalhg00Dl-121" vertex="1" connectable="0">
          <mxGeometry x="1034" y="80" width="120" height="60" as="geometry" />
        </mxCell>
        <mxCell id="XwdcLDCgWFUgalhg00Dl-35" value="Dependencia" style="whiteSpace=wrap;html=1;" parent="XwdcLDCgWFUgalhg00Dl-34" vertex="1">
          <mxGeometry width="120" height="60" as="geometry" />
        </mxCell>
        <mxCell id="XwdcLDCgWFUgalhg00Dl-36" value="Reporte de Alumnos en Servicio Social" style="whiteSpace=wrap;html=1;" parent="XwdcLDCgWFUgalhg00Dl-34" vertex="1">
          <mxGeometry x="10" y="5" width="100" height="50" as="geometry" />
        </mxCell>
        <mxCell id="XwdcLDCgWFUgalhg00Dl-40" value="" style="group" parent="XwdcLDCgWFUgalhg00Dl-121" vertex="1" connectable="0">
          <mxGeometry x="884" y="80" width="120" height="60" as="geometry" />
        </mxCell>
        <mxCell id="XwdcLDCgWFUgalhg00Dl-41" value="Dependencia" style="whiteSpace=wrap;html=1;" parent="XwdcLDCgWFUgalhg00Dl-40" vertex="1">
          <mxGeometry width="120" height="60" as="geometry" />
        </mxCell>
        <mxCell id="XwdcLDCgWFUgalhg00Dl-42" value="Carta de baja de Alumno de Servicio Social" style="whiteSpace=wrap;html=1;" parent="XwdcLDCgWFUgalhg00Dl-40" vertex="1">
          <mxGeometry x="10" y="5" width="100" height="50" as="geometry" />
        </mxCell>
        <mxCell id="XwdcLDCgWFUgalhg00Dl-43" value="" style="group" parent="XwdcLDCgWFUgalhg00Dl-121" vertex="1" connectable="0">
          <mxGeometry x="740" y="80" width="120" height="60" as="geometry" />
        </mxCell>
        <mxCell id="XwdcLDCgWFUgalhg00Dl-44" value="Dependencia" style="whiteSpace=wrap;html=1;" parent="XwdcLDCgWFUgalhg00Dl-43" vertex="1">
          <mxGeometry width="120" height="60" as="geometry" />
        </mxCell>
        <mxCell id="XwdcLDCgWFUgalhg00Dl-45" value="Carta de Liberacion" style="whiteSpace=wrap;html=1;" parent="XwdcLDCgWFUgalhg00Dl-43" vertex="1">
          <mxGeometry x="10" y="5" width="100" height="50" as="geometry" />
        </mxCell>
        <mxCell id="XwdcLDCgWFUgalhg00Dl-46" value="" style="group" parent="XwdcLDCgWFUgalhg00Dl-121" vertex="1" connectable="0">
          <mxGeometry x="590" y="80" width="120" height="60" as="geometry" />
        </mxCell>
        <mxCell id="XwdcLDCgWFUgalhg00Dl-47" value="Dependencia" style="whiteSpace=wrap;html=1;" parent="XwdcLDCgWFUgalhg00Dl-46" vertex="1">
          <mxGeometry width="120" height="60" as="geometry" />
        </mxCell>
        <mxCell id="XwdcLDCgWFUgalhg00Dl-48" value="Reporte de Dependencias" style="whiteSpace=wrap;html=1;" parent="XwdcLDCgWFUgalhg00Dl-46" vertex="1">
          <mxGeometry x="10" y="5" width="100" height="50" as="geometry" />
        </mxCell>
        <mxCell id="XwdcLDCgWFUgalhg00Dl-52" value="" style="group" parent="XwdcLDCgWFUgalhg00Dl-121" vertex="1" connectable="0">
          <mxGeometry x="440" y="80" width="120" height="60" as="geometry" />
        </mxCell>
        <mxCell id="XwdcLDCgWFUgalhg00Dl-53" value="Dependencia" style="whiteSpace=wrap;html=1;" parent="XwdcLDCgWFUgalhg00Dl-52" vertex="1">
          <mxGeometry width="120" height="60" as="geometry" />
        </mxCell>
        <mxCell id="XwdcLDCgWFUgalhg00Dl-54" value="Carta de Finalizacion" style="whiteSpace=wrap;html=1;" parent="XwdcLDCgWFUgalhg00Dl-52" vertex="1">
          <mxGeometry x="10" y="5" width="100" height="50" as="geometry" />
        </mxCell>
        <mxCell id="XwdcLDCgWFUgalhg00Dl-55" value="" style="endArrow=none;html=1;rounded=0;" parent="XwdcLDCgWFUgalhg00Dl-121" source="p_nJ_jK38WjMyXfddBws-278" target="XwdcLDCgWFUgalhg00Dl-53" edge="1">
          <mxGeometry width="50" height="50" relative="1" as="geometry">
            <mxPoint x="450" y="390" as="sourcePoint" />
            <mxPoint x="420" y="240" as="targetPoint" />
          </mxGeometry>
        </mxCell>
        <mxCell id="XwdcLDCgWFUgalhg00Dl-56" value="" style="endArrow=none;html=1;rounded=0;" parent="XwdcLDCgWFUgalhg00Dl-121" source="p_nJ_jK38WjMyXfddBws-278" target="XwdcLDCgWFUgalhg00Dl-47" edge="1">
          <mxGeometry width="50" height="50" relative="1" as="geometry">
            <mxPoint x="630" y="425" as="sourcePoint" />
            <mxPoint x="400" y="194" as="targetPoint" />
          </mxGeometry>
        </mxCell>
        <mxCell id="XwdcLDCgWFUgalhg00Dl-57" value="" style="endArrow=none;html=1;rounded=0;" parent="XwdcLDCgWFUgalhg00Dl-121" source="p_nJ_jK38WjMyXfddBws-278" target="XwdcLDCgWFUgalhg00Dl-44" edge="1">
          <mxGeometry width="50" height="50" relative="1" as="geometry">
            <mxPoint x="647" y="425" as="sourcePoint" />
            <mxPoint x="543" y="194" as="targetPoint" />
          </mxGeometry>
        </mxCell>
        <mxCell id="XwdcLDCgWFUgalhg00Dl-58" value="" style="endArrow=none;html=1;rounded=0;" parent="XwdcLDCgWFUgalhg00Dl-121" source="p_nJ_jK38WjMyXfddBws-278" target="XwdcLDCgWFUgalhg00Dl-41" edge="1">
          <mxGeometry width="50" height="50" relative="1" as="geometry">
            <mxPoint x="661" y="425" as="sourcePoint" />
            <mxPoint x="669" y="194" as="targetPoint" />
          </mxGeometry>
        </mxCell>
        <mxCell id="XwdcLDCgWFUgalhg00Dl-60" value="" style="endArrow=none;html=1;rounded=0;" parent="XwdcLDCgWFUgalhg00Dl-121" source="p_nJ_jK38WjMyXfddBws-278" target="XwdcLDCgWFUgalhg00Dl-35" edge="1">
          <mxGeometry width="50" height="50" relative="1" as="geometry">
            <mxPoint x="692" y="425" as="sourcePoint" />
            <mxPoint x="938" y="194" as="targetPoint" />
          </mxGeometry>
        </mxCell>
        <mxCell id="XwdcLDCgWFUgalhg00Dl-61" value="" style="endArrow=none;html=1;rounded=0;" parent="XwdcLDCgWFUgalhg00Dl-121" source="p_nJ_jK38WjMyXfddBws-278" target="XwdcLDCgWFUgalhg00Dl-32" edge="1">
          <mxGeometry width="50" height="50" relative="1" as="geometry">
            <mxPoint x="696" y="432" as="sourcePoint" />
            <mxPoint x="1058" y="194" as="targetPoint" />
          </mxGeometry>
        </mxCell>
        <mxCell id="XwdcLDCgWFUgalhg00Dl-62" value="" style="endArrow=none;html=1;rounded=0;" parent="XwdcLDCgWFUgalhg00Dl-121" source="p_nJ_jK38WjMyXfddBws-278" target="XwdcLDCgWFUgalhg00Dl-29" edge="1">
          <mxGeometry width="50" height="50" relative="1" as="geometry">
            <mxPoint x="689" y="442" as="sourcePoint" />
            <mxPoint x="1044" y="281" as="targetPoint" />
          </mxGeometry>
        </mxCell>
        <mxCell id="XwdcLDCgWFUgalhg00Dl-63" value="" style="endArrow=none;html=1;rounded=0;" parent="XwdcLDCgWFUgalhg00Dl-121" source="p_nJ_jK38WjMyXfddBws-278" target="XwdcLDCgWFUgalhg00Dl-26" edge="1">
          <mxGeometry width="50" height="50" relative="1" as="geometry">
            <mxPoint x="684" y="449" as="sourcePoint" />
            <mxPoint x="1044" y="359" as="targetPoint" />
          </mxGeometry>
        </mxCell>
        <mxCell id="XwdcLDCgWFUgalhg00Dl-64" value="" style="endArrow=none;html=1;rounded=0;" parent="XwdcLDCgWFUgalhg00Dl-121" source="p_nJ_jK38WjMyXfddBws-278" target="XwdcLDCgWFUgalhg00Dl-23" edge="1">
          <mxGeometry width="50" height="50" relative="1" as="geometry">
            <mxPoint x="681" y="454" as="sourcePoint" />
            <mxPoint x="1044" y="437" as="targetPoint" />
          </mxGeometry>
        </mxCell>
        <mxCell id="XwdcLDCgWFUgalhg00Dl-65" value="" style="endArrow=none;html=1;rounded=0;" parent="XwdcLDCgWFUgalhg00Dl-121" source="p_nJ_jK38WjMyXfddBws-278" target="XwdcLDCgWFUgalhg00Dl-20" edge="1">
          <mxGeometry width="50" height="50" relative="1" as="geometry">
            <mxPoint x="678" y="457" as="sourcePoint" />
            <mxPoint x="1044" y="506" as="targetPoint" />
          </mxGeometry>
        </mxCell>
        <mxCell id="XwdcLDCgWFUgalhg00Dl-66" value="" style="endArrow=none;html=1;rounded=0;" parent="XwdcLDCgWFUgalhg00Dl-121" source="p_nJ_jK38WjMyXfddBws-278" target="XwdcLDCgWFUgalhg00Dl-17" edge="1">
          <mxGeometry width="50" height="50" relative="1" as="geometry">
            <mxPoint x="676" y="461" as="sourcePoint" />
            <mxPoint x="1044" y="593" as="targetPoint" />
          </mxGeometry>
        </mxCell>
        <mxCell id="XwdcLDCgWFUgalhg00Dl-67" value="" style="endArrow=none;html=1;rounded=0;" parent="XwdcLDCgWFUgalhg00Dl-121" source="p_nJ_jK38WjMyXfddBws-278" target="XwdcLDCgWFUgalhg00Dl-14" edge="1">
          <mxGeometry width="50" height="50" relative="1" as="geometry">
            <mxPoint x="675" y="463" as="sourcePoint" />
            <mxPoint x="1051" y="674" as="targetPoint" />
          </mxGeometry>
        </mxCell>
        <mxCell id="XwdcLDCgWFUgalhg00Dl-68" value="" style="endArrow=none;html=1;rounded=0;" parent="XwdcLDCgWFUgalhg00Dl-121" source="p_nJ_jK38WjMyXfddBws-278" target="XwdcLDCgWFUgalhg00Dl-11" edge="1">
          <mxGeometry width="50" height="50" relative="1" as="geometry">
            <mxPoint x="673" y="466" as="sourcePoint" />
            <mxPoint x="924" y="674" as="targetPoint" />
          </mxGeometry>
        </mxCell>
        <mxCell id="XwdcLDCgWFUgalhg00Dl-69" value="" style="endArrow=none;html=1;rounded=0;" parent="XwdcLDCgWFUgalhg00Dl-121" source="p_nJ_jK38WjMyXfddBws-278" target="XwdcLDCgWFUgalhg00Dl-8" edge="1">
          <mxGeometry width="50" height="50" relative="1" as="geometry">
            <mxPoint x="669" y="471" as="sourcePoint" />
            <mxPoint x="792" y="674" as="targetPoint" />
          </mxGeometry>
        </mxCell>
        <mxCell id="XwdcLDCgWFUgalhg00Dl-70" value="" style="endArrow=none;html=1;rounded=0;" parent="XwdcLDCgWFUgalhg00Dl-121" source="p_nJ_jK38WjMyXfddBws-278" target="XwdcLDCgWFUgalhg00Dl-5" edge="1">
          <mxGeometry width="50" height="50" relative="1" as="geometry">
            <mxPoint x="660" y="485" as="sourcePoint" />
            <mxPoint x="660" y="674" as="targetPoint" />
          </mxGeometry>
        </mxCell>
        <mxCell id="XwdcLDCgWFUgalhg00Dl-71" value="" style="endArrow=none;html=1;rounded=0;" parent="XwdcLDCgWFUgalhg00Dl-121" source="p_nJ_jK38WjMyXfddBws-278" target="XwdcLDCgWFUgalhg00Dl-1" edge="1">
          <mxGeometry width="50" height="50" relative="1" as="geometry">
            <mxPoint x="651" y="471" as="sourcePoint" />
            <mxPoint x="528" y="674" as="targetPoint" />
          </mxGeometry>
        </mxCell>
        <mxCell id="XwdcLDCgWFUgalhg00Dl-74" value="" style="group" parent="XwdcLDCgWFUgalhg00Dl-121" vertex="1" connectable="0">
          <mxGeometry x="290" y="80" width="120" height="60" as="geometry" />
        </mxCell>
        <mxCell id="XwdcLDCgWFUgalhg00Dl-75" value="Dependencia" style="whiteSpace=wrap;html=1;" parent="XwdcLDCgWFUgalhg00Dl-74" vertex="1">
          <mxGeometry width="120" height="60" as="geometry" />
        </mxCell>
        <mxCell id="XwdcLDCgWFUgalhg00Dl-76" value="Convenio" style="whiteSpace=wrap;html=1;" parent="XwdcLDCgWFUgalhg00Dl-74" vertex="1">
          <mxGeometry x="10" y="5" width="100" height="50" as="geometry" />
        </mxCell>
        <mxCell id="XwdcLDCgWFUgalhg00Dl-77" value="" style="endArrow=none;html=1;rounded=0;" parent="XwdcLDCgWFUgalhg00Dl-121" source="p_nJ_jK38WjMyXfddBws-278" target="XwdcLDCgWFUgalhg00Dl-75" edge="1">
          <mxGeometry width="50" height="50" relative="1" as="geometry">
            <mxPoint x="647" y="425" as="sourcePoint" />
            <mxPoint x="260" y="160" as="targetPoint" />
          </mxGeometry>
        </mxCell>
        <mxCell id="XwdcLDCgWFUgalhg00Dl-78" value="idDocumentFin" style="ellipse;whiteSpace=wrap;html=1;fontStyle=5" parent="XwdcLDCgWFUgalhg00Dl-121" vertex="1">
          <mxGeometry x="410" y="10" width="109" height="30" as="geometry" />
        </mxCell>
        <mxCell id="XwdcLDCgWFUgalhg00Dl-83" value="idDocumentLib" style="ellipse;whiteSpace=wrap;html=1;fontStyle=5" parent="XwdcLDCgWFUgalhg00Dl-121" vertex="1">
          <mxGeometry x="710" y="10" width="109" height="30" as="geometry" />
        </mxCell>
        <mxCell id="XwdcLDCgWFUgalhg00Dl-84" value="idDocumentReportAlumn" style="ellipse;whiteSpace=wrap;html=1;fontStyle=5" parent="XwdcLDCgWFUgalhg00Dl-121" vertex="1">
          <mxGeometry x="1160" y="30" width="160" height="30" as="geometry" />
        </mxCell>
        <mxCell id="XwdcLDCgWFUgalhg00Dl-85" value="idDocumentHon" style="ellipse;whiteSpace=wrap;html=1;fontStyle=5" parent="XwdcLDCgWFUgalhg00Dl-121" vertex="1">
          <mxGeometry x="1184" y="130" width="120" height="30" as="geometry" />
        </mxCell>
        <mxCell id="XwdcLDCgWFUgalhg00Dl-87" value="idDocumentAcept" style="ellipse;whiteSpace=wrap;html=1;fontStyle=5" parent="XwdcLDCgWFUgalhg00Dl-121" vertex="1">
          <mxGeometry x="1184.5" y="367.5" width="120" height="30" as="geometry" />
        </mxCell>
        <mxCell id="XwdcLDCgWFUgalhg00Dl-88" value="idDocumentRFC" style="ellipse;whiteSpace=wrap;html=1;fontStyle=5" parent="XwdcLDCgWFUgalhg00Dl-121" vertex="1">
          <mxGeometry x="1246.75" y="475" width="120" height="30" as="geometry" />
        </mxCell>
        <mxCell id="XwdcLDCgWFUgalhg00Dl-89" value="idDocumentDomic" style="ellipse;whiteSpace=wrap;html=1;fontStyle=5" parent="XwdcLDCgWFUgalhg00Dl-121" vertex="1">
          <mxGeometry x="1190" y="579.08" width="120" height="30" as="geometry" />
        </mxCell>
        <mxCell id="XwdcLDCgWFUgalhg00Dl-90" value="idDocumentINE" style="ellipse;whiteSpace=wrap;html=1;fontStyle=5" parent="XwdcLDCgWFUgalhg00Dl-121" vertex="1">
          <mxGeometry x="1198.5" y="730" width="120" height="30" as="geometry" />
        </mxCell>
        <mxCell id="XwdcLDCgWFUgalhg00Dl-91" value="idDocumentPresent" style="ellipse;whiteSpace=wrap;html=1;fontStyle=5" parent="XwdcLDCgWFUgalhg00Dl-121" vertex="1">
          <mxGeometry x="220" y="750" width="126.75" height="30" as="geometry" />
        </mxCell>
        <mxCell id="XwdcLDCgWFUgalhg00Dl-92" value="idDocumentConst" style="ellipse;whiteSpace=wrap;html=1;fontStyle=5" parent="XwdcLDCgWFUgalhg00Dl-121" vertex="1">
          <mxGeometry x="404.5" y="750" width="120" height="30" as="geometry" />
        </mxCell>
        <mxCell id="XwdcLDCgWFUgalhg00Dl-93" value="idDocumentReportAct" style="ellipse;whiteSpace=wrap;html=1;fontStyle=5" parent="XwdcLDCgWFUgalhg00Dl-121" vertex="1">
          <mxGeometry x="545.5" y="740" width="144.5" height="30" as="geometry" />
        </mxCell>
        <mxCell id="XwdcLDCgWFUgalhg00Dl-94" value="idDocumentNomRep" style="ellipse;whiteSpace=wrap;html=1;fontStyle=5" parent="XwdcLDCgWFUgalhg00Dl-121" vertex="1">
          <mxGeometry x="860" y="740" width="130.5" height="30" as="geometry" />
        </mxCell>
        <mxCell id="XwdcLDCgWFUgalhg00Dl-95" value="idDocumentDec" style="ellipse;whiteSpace=wrap;html=1;fontStyle=5" parent="XwdcLDCgWFUgalhg00Dl-121" vertex="1">
          <mxGeometry x="720" y="750" width="109" height="30" as="geometry" />
        </mxCell>
        <mxCell id="XwdcLDCgWFUgalhg00Dl-96" value="documentCURP" style="ellipse;whiteSpace=wrap;html=1;" parent="XwdcLDCgWFUgalhg00Dl-121" vertex="1">
          <mxGeometry x="1215" y="690" width="95" height="30" as="geometry" />
        </mxCell>
        <mxCell id="XwdcLDCgWFUgalhg00Dl-97" value="documentRFC" style="ellipse;whiteSpace=wrap;html=1;" parent="XwdcLDCgWFUgalhg00Dl-121" vertex="1">
          <mxGeometry x="1259.25" y="440" width="95" height="32.5" as="geometry" />
        </mxCell>
        <mxCell id="XwdcLDCgWFUgalhg00Dl-98" value="documentNumConv" style="ellipse;whiteSpace=wrap;html=1;" parent="XwdcLDCgWFUgalhg00Dl-121" vertex="1">
          <mxGeometry x="143.75" y="40" width="122.5" height="32.5" as="geometry" />
        </mxCell>
        <mxCell id="XwdcLDCgWFUgalhg00Dl-99" value="documentMotivoAlumn" style="ellipse;whiteSpace=wrap;html=1;" parent="XwdcLDCgWFUgalhg00Dl-121" vertex="1">
          <mxGeometry x="1024" y="10" width="140" height="30" as="geometry" />
        </mxCell>
        <mxCell id="XwdcLDCgWFUgalhg00Dl-100" value="" style="endArrow=none;html=1;rounded=0;" parent="XwdcLDCgWFUgalhg00Dl-121" source="XwdcLDCgWFUgalhg00Dl-98" target="XwdcLDCgWFUgalhg00Dl-75" edge="1">
          <mxGeometry width="50" height="50" relative="1" as="geometry">
            <mxPoint x="686" y="425" as="sourcePoint" />
            <mxPoint x="270" y="110" as="targetPoint" />
          </mxGeometry>
        </mxCell>
        <mxCell id="XwdcLDCgWFUgalhg00Dl-101" value="" style="endArrow=none;html=1;rounded=0;" parent="XwdcLDCgWFUgalhg00Dl-121" source="p_nJ_jK38WjMyXfddBws-294" target="XwdcLDCgWFUgalhg00Dl-75" edge="1">
          <mxGeometry width="50" height="50" relative="1" as="geometry">
            <mxPoint x="251" y="79" as="sourcePoint" />
            <mxPoint x="250" y="140" as="targetPoint" />
          </mxGeometry>
        </mxCell>
        <mxCell id="XwdcLDCgWFUgalhg00Dl-102" value="" style="endArrow=none;html=1;rounded=0;" parent="XwdcLDCgWFUgalhg00Dl-121" source="XwdcLDCgWFUgalhg00Dl-78" target="XwdcLDCgWFUgalhg00Dl-53" edge="1">
          <mxGeometry width="50" height="50" relative="1" as="geometry">
            <mxPoint x="360" y="40" as="sourcePoint" />
            <mxPoint x="360" y="90" as="targetPoint" />
          </mxGeometry>
        </mxCell>
        <mxCell id="XwdcLDCgWFUgalhg00Dl-104" value="" style="endArrow=none;html=1;rounded=0;" parent="XwdcLDCgWFUgalhg00Dl-121" source="XwdcLDCgWFUgalhg00Dl-83" target="XwdcLDCgWFUgalhg00Dl-44" edge="1">
          <mxGeometry width="50" height="50" relative="1" as="geometry">
            <mxPoint x="661" y="40" as="sourcePoint" />
            <mxPoint x="660" y="90" as="targetPoint" />
          </mxGeometry>
        </mxCell>
        <mxCell id="XwdcLDCgWFUgalhg00Dl-106" value="" style="endArrow=none;html=1;rounded=0;" parent="XwdcLDCgWFUgalhg00Dl-121" source="XwdcLDCgWFUgalhg00Dl-99" target="XwdcLDCgWFUgalhg00Dl-35" edge="1">
          <mxGeometry width="50" height="50" relative="1" as="geometry">
            <mxPoint x="953" y="40" as="sourcePoint" />
            <mxPoint x="954" y="90" as="targetPoint" />
          </mxGeometry>
        </mxCell>
        <mxCell id="XwdcLDCgWFUgalhg00Dl-107" value="" style="endArrow=none;html=1;rounded=0;" parent="XwdcLDCgWFUgalhg00Dl-121" source="XwdcLDCgWFUgalhg00Dl-84" target="XwdcLDCgWFUgalhg00Dl-35" edge="1">
          <mxGeometry width="50" height="50" relative="1" as="geometry">
            <mxPoint x="1094" y="50" as="sourcePoint" />
            <mxPoint x="1100" y="90" as="targetPoint" />
          </mxGeometry>
        </mxCell>
        <mxCell id="XwdcLDCgWFUgalhg00Dl-108" value="" style="endArrow=none;html=1;rounded=0;" parent="XwdcLDCgWFUgalhg00Dl-121" source="XwdcLDCgWFUgalhg00Dl-85" target="XwdcLDCgWFUgalhg00Dl-32" edge="1">
          <mxGeometry width="50" height="50" relative="1" as="geometry">
            <mxPoint x="1220" y="90" as="sourcePoint" />
            <mxPoint x="1164" y="93" as="targetPoint" />
          </mxGeometry>
        </mxCell>
        <mxCell id="XwdcLDCgWFUgalhg00Dl-110" value="" style="endArrow=none;html=1;rounded=0;" parent="XwdcLDCgWFUgalhg00Dl-121" source="XwdcLDCgWFUgalhg00Dl-87" target="XwdcLDCgWFUgalhg00Dl-26" edge="1">
          <mxGeometry width="50" height="50" relative="1" as="geometry">
            <mxPoint x="1194" y="323" as="sourcePoint" />
            <mxPoint x="1164" y="323" as="targetPoint" />
          </mxGeometry>
        </mxCell>
        <mxCell id="XwdcLDCgWFUgalhg00Dl-111" value="" style="endArrow=none;html=1;rounded=0;" parent="XwdcLDCgWFUgalhg00Dl-121" source="XwdcLDCgWFUgalhg00Dl-88" target="XwdcLDCgWFUgalhg00Dl-23" edge="1">
          <mxGeometry width="50" height="50" relative="1" as="geometry">
            <mxPoint x="1200" y="415" as="sourcePoint" />
            <mxPoint x="1164" y="415" as="targetPoint" />
          </mxGeometry>
        </mxCell>
        <mxCell id="XwdcLDCgWFUgalhg00Dl-112" value="" style="endArrow=none;html=1;rounded=0;" parent="XwdcLDCgWFUgalhg00Dl-121" source="XwdcLDCgWFUgalhg00Dl-97" target="XwdcLDCgWFUgalhg00Dl-23" edge="1">
          <mxGeometry width="50" height="50" relative="1" as="geometry">
            <mxPoint x="1203" y="513" as="sourcePoint" />
            <mxPoint x="1164" y="510" as="targetPoint" />
          </mxGeometry>
        </mxCell>
        <mxCell id="XwdcLDCgWFUgalhg00Dl-113" value="" style="endArrow=none;html=1;rounded=0;" parent="XwdcLDCgWFUgalhg00Dl-121" source="XwdcLDCgWFUgalhg00Dl-89" target="XwdcLDCgWFUgalhg00Dl-20" edge="1">
          <mxGeometry width="50" height="50" relative="1" as="geometry">
            <mxPoint x="1215" y="478" as="sourcePoint" />
            <mxPoint x="1164" y="491" as="targetPoint" />
          </mxGeometry>
        </mxCell>
        <mxCell id="XwdcLDCgWFUgalhg00Dl-114" value="" style="endArrow=none;html=1;rounded=0;" parent="XwdcLDCgWFUgalhg00Dl-121" source="XwdcLDCgWFUgalhg00Dl-96" target="XwdcLDCgWFUgalhg00Dl-17" edge="1">
          <mxGeometry width="50" height="50" relative="1" as="geometry">
            <mxPoint x="1200" y="604" as="sourcePoint" />
            <mxPoint x="1164" y="604" as="targetPoint" />
          </mxGeometry>
        </mxCell>
        <mxCell id="XwdcLDCgWFUgalhg00Dl-115" value="" style="endArrow=none;html=1;rounded=0;" parent="XwdcLDCgWFUgalhg00Dl-121" source="XwdcLDCgWFUgalhg00Dl-90" target="XwdcLDCgWFUgalhg00Dl-17" edge="1">
          <mxGeometry width="50" height="50" relative="1" as="geometry">
            <mxPoint x="1227" y="711" as="sourcePoint" />
            <mxPoint x="1164" y="705" as="targetPoint" />
          </mxGeometry>
        </mxCell>
        <mxCell id="XwdcLDCgWFUgalhg00Dl-116" value="" style="endArrow=none;html=1;rounded=0;" parent="XwdcLDCgWFUgalhg00Dl-121" source="XwdcLDCgWFUgalhg00Dl-94" target="XwdcLDCgWFUgalhg00Dl-14" edge="1">
          <mxGeometry width="50" height="50" relative="1" as="geometry">
            <mxPoint x="1209" y="771" as="sourcePoint" />
            <mxPoint x="1148" y="730" as="targetPoint" />
          </mxGeometry>
        </mxCell>
        <mxCell id="XwdcLDCgWFUgalhg00Dl-117" value="" style="endArrow=none;html=1;rounded=0;" parent="XwdcLDCgWFUgalhg00Dl-121" source="XwdcLDCgWFUgalhg00Dl-95" target="XwdcLDCgWFUgalhg00Dl-11" edge="1">
          <mxGeometry width="50" height="50" relative="1" as="geometry">
            <mxPoint x="960" y="780" as="sourcePoint" />
            <mxPoint x="960" y="730" as="targetPoint" />
          </mxGeometry>
        </mxCell>
        <mxCell id="XwdcLDCgWFUgalhg00Dl-118" value="" style="endArrow=none;html=1;rounded=0;" parent="XwdcLDCgWFUgalhg00Dl-121" source="XwdcLDCgWFUgalhg00Dl-93" target="XwdcLDCgWFUgalhg00Dl-8" edge="1">
          <mxGeometry width="50" height="50" relative="1" as="geometry">
            <mxPoint x="810" y="780" as="sourcePoint" />
            <mxPoint x="810" y="730" as="targetPoint" />
          </mxGeometry>
        </mxCell>
        <mxCell id="XwdcLDCgWFUgalhg00Dl-119" value="" style="endArrow=none;html=1;rounded=0;" parent="XwdcLDCgWFUgalhg00Dl-121" source="XwdcLDCgWFUgalhg00Dl-92" target="XwdcLDCgWFUgalhg00Dl-5" edge="1">
          <mxGeometry width="50" height="50" relative="1" as="geometry">
            <mxPoint x="660" y="780" as="sourcePoint" />
            <mxPoint x="660" y="730" as="targetPoint" />
          </mxGeometry>
        </mxCell>
        <mxCell id="XwdcLDCgWFUgalhg00Dl-120" value="" style="endArrow=none;html=1;rounded=0;" parent="XwdcLDCgWFUgalhg00Dl-121" source="XwdcLDCgWFUgalhg00Dl-91" target="XwdcLDCgWFUgalhg00Dl-1" edge="1">
          <mxGeometry width="50" height="50" relative="1" as="geometry">
            <mxPoint x="510" y="780" as="sourcePoint" />
            <mxPoint x="510" y="730" as="targetPoint" />
          </mxGeometry>
        </mxCell>
        <mxCell id="XwdcLDCgWFUgalhg00Dl-122" value="file" style="ellipse;whiteSpace=wrap;html=1;" parent="XwdcLDCgWFUgalhg00Dl-121" vertex="1">
          <mxGeometry x="280" y="345" width="40" height="45" as="geometry" />
        </mxCell>
        <mxCell id="XwdcLDCgWFUgalhg00Dl-123" value="" style="endArrow=none;html=1;rounded=0;" parent="XwdcLDCgWFUgalhg00Dl-121" source="XwdcLDCgWFUgalhg00Dl-122" target="bqmvGOm5umFCTY7sgf7N-5" edge="1">
          <mxGeometry width="50" height="50" relative="1" as="geometry">
            <mxPoint x="229" y="379" as="sourcePoint" />
            <mxPoint x="205" y="425" as="targetPoint" />
          </mxGeometry>
        </mxCell>
        <mxCell id="XwdcLDCgWFUgalhg00Dl-126" value="monto" style="ellipse;whiteSpace=wrap;html=1;" parent="XwdcLDCgWFUgalhg00Dl-121" vertex="1">
          <mxGeometry x="1251" y="170" width="53.5" height="32.5" as="geometry" />
        </mxCell>
        <mxCell id="XwdcLDCgWFUgalhg00Dl-127" value="motivo" style="ellipse;whiteSpace=wrap;html=1;" parent="XwdcLDCgWFUgalhg00Dl-121" vertex="1">
          <mxGeometry x="1250" y="207.5" width="53.5" height="32.5" as="geometry" />
        </mxCell>
        <mxCell id="XwdcLDCgWFUgalhg00Dl-128" value="" style="endArrow=none;html=1;rounded=0;" parent="XwdcLDCgWFUgalhg00Dl-121" source="XwdcLDCgWFUgalhg00Dl-126" target="XwdcLDCgWFUgalhg00Dl-32" edge="1">
          <mxGeometry width="50" height="50" relative="1" as="geometry">
            <mxPoint x="1209" y="203" as="sourcePoint" />
            <mxPoint x="1010" y="210" as="targetPoint" />
          </mxGeometry>
        </mxCell>
        <mxCell id="XwdcLDCgWFUgalhg00Dl-129" value="" style="endArrow=none;html=1;rounded=0;" parent="XwdcLDCgWFUgalhg00Dl-121" source="XwdcLDCgWFUgalhg00Dl-127" target="XwdcLDCgWFUgalhg00Dl-32" edge="1">
          <mxGeometry width="50" height="50" relative="1" as="geometry">
            <mxPoint x="1237" y="231" as="sourcePoint" />
            <mxPoint x="1164" y="225" as="targetPoint" />
          </mxGeometry>
        </mxCell>
        <mxCell id="XwdcLDCgWFUgalhg00Dl-130" value="listAct" style="ellipse;whiteSpace=wrap;html=1;" parent="XwdcLDCgWFUgalhg00Dl-121" vertex="1">
          <mxGeometry x="1280" y="335" width="53.5" height="32.5" as="geometry" />
        </mxCell>
        <mxCell id="XwdcLDCgWFUgalhg00Dl-131" value="" style="endArrow=none;html=1;rounded=0;" parent="XwdcLDCgWFUgalhg00Dl-121" source="XwdcLDCgWFUgalhg00Dl-130" target="XwdcLDCgWFUgalhg00Dl-29" edge="1">
          <mxGeometry width="50" height="50" relative="1" as="geometry">
            <mxPoint x="1198" y="313" as="sourcePoint" />
            <mxPoint x="1164" y="317" as="targetPoint" />
          </mxGeometry>
        </mxCell>
        <mxCell id="XwdcLDCgWFUgalhg00Dl-132" value="matriculaFin" style="ellipse;whiteSpace=wrap;html=1;fontStyle=0" parent="XwdcLDCgWFUgalhg00Dl-121" vertex="1">
          <mxGeometry x="530" y="20" width="70" height="35" as="geometry" />
        </mxCell>
        <mxCell id="XwdcLDCgWFUgalhg00Dl-133" value="" style="endArrow=none;html=1;rounded=0;" parent="XwdcLDCgWFUgalhg00Dl-121" source="XwdcLDCgWFUgalhg00Dl-132" target="XwdcLDCgWFUgalhg00Dl-53" edge="1">
          <mxGeometry width="50" height="50" relative="1" as="geometry">
            <mxPoint x="481" y="50" as="sourcePoint" />
            <mxPoint x="497" y="90" as="targetPoint" />
          </mxGeometry>
        </mxCell>
        <mxCell id="XwdcLDCgWFUgalhg00Dl-134" value="matriculaLib" style="ellipse;whiteSpace=wrap;html=1;fontStyle=0" parent="XwdcLDCgWFUgalhg00Dl-121" vertex="1">
          <mxGeometry x="814" y="25" width="70" height="35" as="geometry" />
        </mxCell>
        <mxCell id="XwdcLDCgWFUgalhg00Dl-135" value="" style="endArrow=none;html=1;rounded=0;" parent="XwdcLDCgWFUgalhg00Dl-121" source="XwdcLDCgWFUgalhg00Dl-134" target="XwdcLDCgWFUgalhg00Dl-44" edge="1">
          <mxGeometry width="50" height="50" relative="1" as="geometry">
            <mxPoint x="824" y="-90" as="sourcePoint" />
            <mxPoint x="830" y="-30" as="targetPoint" />
          </mxGeometry>
        </mxCell>
        <mxCell id="XwdcLDCgWFUgalhg00Dl-136" value="matriculaBaja" style="ellipse;whiteSpace=wrap;html=1;fontStyle=0" parent="XwdcLDCgWFUgalhg00Dl-121" vertex="1">
          <mxGeometry x="938.25" y="5" width="77" height="35" as="geometry" />
        </mxCell>
        <mxCell id="XwdcLDCgWFUgalhg00Dl-137" value="" style="endArrow=none;html=1;rounded=0;" parent="XwdcLDCgWFUgalhg00Dl-121" source="XwdcLDCgWFUgalhg00Dl-136" target="XwdcLDCgWFUgalhg00Dl-41" edge="1">
          <mxGeometry width="50" height="50" relative="1" as="geometry">
            <mxPoint x="944" y="-15" as="sourcePoint" />
            <mxPoint x="990" y="15" as="targetPoint" />
          </mxGeometry>
        </mxCell>
        <mxCell id="XwdcLDCgWFUgalhg00Dl-138" value="idServicioHon" style="ellipse;whiteSpace=wrap;html=1;fontStyle=0" parent="XwdcLDCgWFUgalhg00Dl-121" vertex="1">
          <mxGeometry x="1167" y="240" width="83" height="35" as="geometry" />
        </mxCell>
        <mxCell id="XwdcLDCgWFUgalhg00Dl-139" value="" style="endArrow=none;html=1;rounded=0;" parent="XwdcLDCgWFUgalhg00Dl-121" source="XwdcLDCgWFUgalhg00Dl-138" target="XwdcLDCgWFUgalhg00Dl-32" edge="1">
          <mxGeometry width="50" height="50" relative="1" as="geometry">
            <mxPoint x="1108" y="270" as="sourcePoint" />
            <mxPoint x="1154" y="300" as="targetPoint" />
          </mxGeometry>
        </mxCell>
        <mxCell id="XwdcLDCgWFUgalhg00Dl-141" value="matriculaAcept" style="ellipse;whiteSpace=wrap;html=1;fontStyle=0" parent="XwdcLDCgWFUgalhg00Dl-121" vertex="1">
          <mxGeometry x="1198.5" y="405" width="101.5" height="35" as="geometry" />
        </mxCell>
        <mxCell id="XwdcLDCgWFUgalhg00Dl-142" value="" style="endArrow=none;html=1;rounded=0;" parent="XwdcLDCgWFUgalhg00Dl-121" source="XwdcLDCgWFUgalhg00Dl-26" target="XwdcLDCgWFUgalhg00Dl-141" edge="1">
          <mxGeometry width="50" height="50" relative="1" as="geometry">
            <mxPoint x="1030" y="380" as="sourcePoint" />
            <mxPoint x="1164" y="406" as="targetPoint" />
          </mxGeometry>
        </mxCell>
        <mxCell id="XwdcLDCgWFUgalhg00Dl-143" value="matriculaPresent" style="ellipse;whiteSpace=wrap;html=1;fontStyle=0" parent="XwdcLDCgWFUgalhg00Dl-121" vertex="1">
          <mxGeometry x="318.5" y="780" width="101.5" height="35" as="geometry" />
        </mxCell>
        <mxCell id="XwdcLDCgWFUgalhg00Dl-144" value="" style="endArrow=none;html=1;rounded=0;" parent="XwdcLDCgWFUgalhg00Dl-121" source="XwdcLDCgWFUgalhg00Dl-1" target="XwdcLDCgWFUgalhg00Dl-143" edge="1">
          <mxGeometry width="50" height="50" relative="1" as="geometry">
            <mxPoint x="390" y="887" as="sourcePoint" />
            <mxPoint x="400" y="881" as="targetPoint" />
          </mxGeometry>
        </mxCell>
        <mxCell id="pXRByJer4nILOct9MMqB-9" value="idServicioAct" style="ellipse;whiteSpace=wrap;html=1;" vertex="1" parent="XwdcLDCgWFUgalhg00Dl-121">
          <mxGeometry x="1280" y="300" width="80" height="28.75" as="geometry" />
        </mxCell>
        <mxCell id="pXRByJer4nILOct9MMqB-10" value="" style="endArrow=none;html=1;rounded=0;" edge="1" parent="XwdcLDCgWFUgalhg00Dl-121" source="pXRByJer4nILOct9MMqB-9" target="XwdcLDCgWFUgalhg00Dl-29">
          <mxGeometry width="50" height="50" relative="1" as="geometry">
            <mxPoint x="1269" y="298" as="sourcePoint" />
            <mxPoint x="1164" y="314" as="targetPoint" />
          </mxGeometry>
        </mxCell>
        <mxCell id="pXRByJer4nILOct9MMqB-12" value="idDependRFC" style="ellipse;whiteSpace=wrap;html=1;" vertex="1" parent="XwdcLDCgWFUgalhg00Dl-121">
          <mxGeometry x="1232.75" y="515" width="90" height="32.5" as="geometry" />
        </mxCell>
        <mxCell id="pXRByJer4nILOct9MMqB-13" value="" style="endArrow=none;html=1;rounded=0;" edge="1" parent="XwdcLDCgWFUgalhg00Dl-121" source="pXRByJer4nILOct9MMqB-12" target="XwdcLDCgWFUgalhg00Dl-23">
          <mxGeometry width="50" height="50" relative="1" as="geometry">
            <mxPoint x="1275" y="474" as="sourcePoint" />
            <mxPoint x="1164" y="494" as="targetPoint" />
          </mxGeometry>
        </mxCell>
        <mxCell id="pXRByJer4nILOct9MMqB-14" value="idDependDomic" style="ellipse;whiteSpace=wrap;html=1;" vertex="1" parent="XwdcLDCgWFUgalhg00Dl-121">
          <mxGeometry x="1230" y="617.08" width="90" height="32.5" as="geometry" />
        </mxCell>
        <mxCell id="pXRByJer4nILOct9MMqB-15" value="" style="endArrow=none;html=1;rounded=0;" edge="1" parent="XwdcLDCgWFUgalhg00Dl-121" source="pXRByJer4nILOct9MMqB-14" target="XwdcLDCgWFUgalhg00Dl-20">
          <mxGeometry width="50" height="50" relative="1" as="geometry">
            <mxPoint x="1272.25" y="576.08" as="sourcePoint" />
            <mxPoint x="1151.25" y="609.08" as="targetPoint" />
          </mxGeometry>
        </mxCell>
        <mxCell id="pXRByJer4nILOct9MMqB-23" value="idDependCURP" style="ellipse;whiteSpace=wrap;html=1;" vertex="1" parent="XwdcLDCgWFUgalhg00Dl-121">
          <mxGeometry x="1094" y="740" width="90" height="32.5" as="geometry" />
        </mxCell>
        <mxCell id="pXRByJer4nILOct9MMqB-24" value="" style="endArrow=none;html=1;rounded=0;" edge="1" parent="XwdcLDCgWFUgalhg00Dl-121" source="pXRByJer4nILOct9MMqB-23" target="XwdcLDCgWFUgalhg00Dl-17">
          <mxGeometry width="50" height="50" relative="1" as="geometry">
            <mxPoint x="1089" y="770" as="sourcePoint" />
            <mxPoint x="1110" y="760" as="targetPoint" />
            <Array as="points" />
          </mxGeometry>
        </mxCell>
        <mxCell id="pXRByJer4nILOct9MMqB-25" value="codUserDependConv" style="ellipse;whiteSpace=wrap;html=1;" vertex="1" parent="XwdcLDCgWFUgalhg00Dl-121">
          <mxGeometry x="127.5" y="93.75" width="122.5" height="32.5" as="geometry" />
        </mxCell>
        <mxCell id="pXRByJer4nILOct9MMqB-26" value="" style="endArrow=none;html=1;rounded=0;" edge="1" parent="XwdcLDCgWFUgalhg00Dl-121" source="pXRByJer4nILOct9MMqB-25" target="XwdcLDCgWFUgalhg00Dl-75">
          <mxGeometry width="50" height="50" relative="1" as="geometry">
            <mxPoint x="313" y="40" as="sourcePoint" />
            <mxPoint x="342" y="90" as="targetPoint" />
          </mxGeometry>
        </mxCell>
        <mxCell id="XwdcLDCgWFUgalhg00Dl-79" value="idDocumentReportDep" style="ellipse;whiteSpace=wrap;html=1;fontStyle=5" parent="1" vertex="1">
          <mxGeometry x="1070" y="-410" width="144.5" height="30" as="geometry" />
        </mxCell>
        <mxCell id="XwdcLDCgWFUgalhg00Dl-103" value="" style="endArrow=none;html=1;rounded=0;" parent="1" source="XwdcLDCgWFUgalhg00Dl-79" target="XwdcLDCgWFUgalhg00Dl-47" edge="1">
          <mxGeometry width="50" height="50" relative="1" as="geometry">
            <mxPoint x="1060" y="-300" as="sourcePoint" />
            <mxPoint x="1060" y="-250" as="targetPoint" />
          </mxGeometry>
        </mxCell>
        <mxCell id="XwdcLDCgWFUgalhg00Dl-124" value="documentMotivoDep" style="ellipse;whiteSpace=wrap;html=1;" parent="1" vertex="1">
          <mxGeometry x="1180" y="-370" width="140" height="30" as="geometry" />
        </mxCell>
        <mxCell id="XwdcLDCgWFUgalhg00Dl-125" value="" style="endArrow=none;html=1;rounded=0;" parent="1" source="XwdcLDCgWFUgalhg00Dl-124" target="XwdcLDCgWFUgalhg00Dl-47" edge="1">
          <mxGeometry width="50" height="50" relative="1" as="geometry">
            <mxPoint x="1157" y="-370" as="sourcePoint" />
            <mxPoint x="1200" y="-250" as="targetPoint" />
          </mxGeometry>
        </mxCell>
        <mxCell id="XwdcLDCgWFUgalhg00Dl-80" value="idDocumentBajaAlumn" style="ellipse;whiteSpace=wrap;html=1;fontStyle=5" parent="1" vertex="1">
          <mxGeometry x="1370" y="-390" width="144.5" height="30" as="geometry" />
        </mxCell>
        <mxCell id="XwdcLDCgWFUgalhg00Dl-105" value="" style="endArrow=none;html=1;rounded=0;" parent="1" source="XwdcLDCgWFUgalhg00Dl-80" target="XwdcLDCgWFUgalhg00Dl-41" edge="1">
          <mxGeometry width="50" height="50" relative="1" as="geometry">
            <mxPoint x="1360" y="-300" as="sourcePoint" />
            <mxPoint x="1360" y="-250" as="targetPoint" />
          </mxGeometry>
        </mxCell>
        <mxCell id="XwdcLDCgWFUgalhg00Dl-146" value="matriculaConst" style="ellipse;whiteSpace=wrap;html=1;fontStyle=0" parent="1" vertex="1">
          <mxGeometry x="1044.5" y="447.5" width="95.5" height="35" as="geometry" />
        </mxCell>
        <mxCell id="XwdcLDCgWFUgalhg00Dl-147" value="" style="endArrow=none;html=1;rounded=0;" parent="1" source="XwdcLDCgWFUgalhg00Dl-5" target="XwdcLDCgWFUgalhg00Dl-146" edge="1">
          <mxGeometry width="50" height="50" relative="1" as="geometry">
            <mxPoint x="1000" y="497" as="sourcePoint" />
            <mxPoint x="1010" y="491" as="targetPoint" />
          </mxGeometry>
        </mxCell>
        <mxCell id="XwdcLDCgWFUgalhg00Dl-86" value="idDocumentAct" style="ellipse;whiteSpace=wrap;html=1;fontStyle=5" parent="1" vertex="1">
          <mxGeometry x="1801" y="-75" width="120" height="30" as="geometry" />
        </mxCell>
        <mxCell id="XwdcLDCgWFUgalhg00Dl-109" value="" style="endArrow=none;html=1;rounded=0;" parent="1" source="XwdcLDCgWFUgalhg00Dl-86" target="XwdcLDCgWFUgalhg00Dl-29" edge="1">
          <mxGeometry width="50" height="50" relative="1" as="geometry">
            <mxPoint x="1750" y="-120" as="sourcePoint" />
            <mxPoint x="1714" y="-120" as="targetPoint" />
          </mxGeometry>
        </mxCell>
        <mxCell id="pXRByJer4nILOct9MMqB-16" value="matriculaReportAct" style="ellipse;whiteSpace=wrap;html=1;fontStyle=0" vertex="1" parent="1">
          <mxGeometry x="1160" y="447.5" width="110" height="37.5" as="geometry" />
        </mxCell>
        <mxCell id="pXRByJer4nILOct9MMqB-17" value="" style="endArrow=none;html=1;rounded=0;" edge="1" parent="1" source="XwdcLDCgWFUgalhg00Dl-8" target="pXRByJer4nILOct9MMqB-16">
          <mxGeometry width="50" height="50" relative="1" as="geometry">
            <mxPoint x="1071" y="390" as="sourcePoint" />
            <mxPoint x="1096" y="458" as="targetPoint" />
            <Array as="points">
              <mxPoint x="1260" y="410" />
            </Array>
          </mxGeometry>
        </mxCell>
        <mxCell id="pXRByJer4nILOct9MMqB-18" value="idDependDec" style="ellipse;whiteSpace=wrap;html=1;" vertex="1" parent="1">
          <mxGeometry x="1340" y="447.5" width="90" height="32.5" as="geometry" />
        </mxCell>
        <mxCell id="pXRByJer4nILOct9MMqB-19" value="" style="endArrow=none;html=1;rounded=0;" edge="1" parent="1" source="pXRByJer4nILOct9MMqB-18" target="XwdcLDCgWFUgalhg00Dl-11">
          <mxGeometry width="50" height="50" relative="1" as="geometry">
            <mxPoint x="1339" y="420" as="sourcePoint" />
            <mxPoint x="1350" y="390" as="targetPoint" />
            <Array as="points">
              <mxPoint x="1400" y="410" />
            </Array>
          </mxGeometry>
        </mxCell>
        <mxCell id="pXRByJer4nILOct9MMqB-21" value="idDependNomRep" style="ellipse;whiteSpace=wrap;html=1;" vertex="1" parent="1">
          <mxGeometry x="1500" y="442.5" width="104.5" height="32.5" as="geometry" />
        </mxCell>
        <mxCell id="pXRByJer4nILOct9MMqB-22" value="" style="endArrow=none;html=1;rounded=0;" edge="1" parent="1" source="pXRByJer4nILOct9MMqB-21" target="XwdcLDCgWFUgalhg00Dl-14">
          <mxGeometry width="50" height="50" relative="1" as="geometry">
            <mxPoint x="1513.5" y="415" as="sourcePoint" />
            <mxPoint x="1549.5" y="375" as="targetPoint" />
            <Array as="points">
              <mxPoint x="1574.5" y="405" />
            </Array>
          </mxGeometry>
        </mxCell>
      </root>
    </mxGraphModel>
  </diagram>
</mxfile>
